<?xml version="1.0" encoding="utf-8"?>
<!-- Generator: Adobe Illustrator 15.0.0, SVG Export Plug-In  -->
<!DOCTYPE svg PUBLIC "-//W3C//DTD SVG 1.1//EN" "http://www.w3.org/Graphics/SVG/1.1/DTD/svg11.dtd" [
	<!ENTITY ns_flows "http://ns.adobe.com/Flows/1.0/">
]>
<svg version="1.1"
	 xmlns="http://www.w3.org/2000/svg" xmlns:xlink="http://www.w3.org/1999/xlink" xmlns:a="http://ns.adobe.com/AdobeSVGViewerExtensions/3.0/"
	 x="0px" y="0px" width="92px" height="60px" viewBox="0 0 92 60" overflow="visible" enable-background="new 0 0 92 60"
	 xml:space="preserve">
<defs>
</defs>
<linearGradient id="SVGID_1_" gradientUnits="userSpaceOnUse" x1="-736.9995" y1="-535.3999" x2="-736.9995" y2="-565.4993" gradientTransform="matrix(-1 0 0 1 -691 595.5)">
	<stop  offset="0" style="stop-color:#D60080"/>
	<stop  offset="0.3" style="stop-color:#EC008C"/>
	<stop  offset="0.4268" style="stop-color:#EC098E"/>
	<stop  offset="0.6335" style="stop-color:#ED2194"/>
	<stop  offset="0.893" style="stop-color:#EE499D"/>
	<stop  offset="1" style="stop-color:#EF5BA1"/>
</linearGradient>
<path fill="url(#SVGID_1_)" d="M0,44.5C0,39.3,12.3,30,17.6,30h64.9c5.2,0,9.5,4.3,9.5,9.5v10.9c0,5.3-4.3,9.5-9.6,9.5H17.6
	C12.3,60.1,0,50.8,0,45.6V44.5z"/>
<path fill="#F484BE" d="M82.4,31.5h-3.1V34h3.1V31.5L82.4,31.5L82.4,31.5z M77.3,31.5h-3.1V34h3.1V31.5L77.3,31.5z M72.2,31.5h-3.1
	V34h3.1V31.5L72.2,31.5z M67,31.5h-3.1V34H67V31.5L67,31.5z M61.9,31.5h-3.1V34h3.1V31.5L61.9,31.5z M56.7,31.5h-3.1V34h3.1V31.5
	L56.7,31.5z M51.6,31.5h-3.1V34h3.1V31.5L51.6,31.5z M46.4,31.5h-3.1V34h3.1V31.5L46.4,31.5z M41.3,31.5h-3.1V34h3.1V31.5L41.3,31.5
	z M36.2,31.5h-3.1V34h3.1V31.5L36.2,31.5z M31,31.5h-3.1V34H31V31.5L31,31.5z M25.9,31.5h-3.1V34h3.1V31.5L25.9,31.5z M20.7,31.5
	h-3.1V34h3.1V31.5L20.7,31.5z M15.6,31.9L15.6,31.9L15.6,31.9L15.6,31.9L15.6,31.9L15.6,31.9L15.6,31.9
	C15.6,31.9,15.5,31.9,15.6,31.9C15.5,31.9,15.5,31.9,15.6,31.9C15.5,31.9,15.5,31.9,15.6,31.9C15.5,31.9,15.5,31.9,15.6,31.9
	c-0.1,0-0.1,0-0.1,0l0,0l0,0l0,0l0,0l0,0l0,0l0,0l0,0l0,0l0,0l0,0l0,0l0,0l0,0l0,0l0,0l0,0l0,0l0,0l0,0l0,0l0,0l0,0l0,0l0,0l0,0l0,0
	l0,0l0,0l0,0l0,0l0,0l0,0l0,0l0,0l0,0l0,0l0,0l0,0l0,0l0,0l0,0l0,0l0,0l0,0l0,0l0,0l0,0l0,0l0,0l0,0l0,0l0,0l0,0l0,0l0,0l0,0l0,0
	l0,0l0,0l0,0l0,0l0,0l0,0l0,0l0,0l0,0l0,0l0,0l0,0l0,0l0,0l0,0c-0.7,0.3-1.4,0.6-2.2,1l0.7,2.5c0.9-0.5,1.7-0.8,2.4-1.1L15.6,31.9
	L15.6,31.9z M11,34.2c-0.4,0.2-0.8,0.5-1.1,0.7l0,0l0,0l0,0C9.8,35,9.8,35,9.7,35l0,0l0,0l0,0l0,0l0,0l0,0l0,0l0,0l0,0l0,0l0,0l0,0
	l0,0l0,0l0,0l0,0l0,0l0,0l0,0l0,0l0,0l0,0l0,0l0,0l0,0l0,0l0,0l0,0l0,0l0,0l0,0l0,0l0,0l0,0l0,0l0,0l0,0l0,0l0,0l0,0l0,0l0,0l0,0
	l0,0l0,0l0,0l0,0l0,0l0,0l0,0l0,0l0,0l0,0l0,0c-0.6,0.5-0.9,0.7-1.2,0.9l1.5,2c0.8-0.6,1.6-1.1,2.4-1.6L11,34.2L11,34.2z M6.9,37.2
	c-0.1,0.1-0.2,0.1-0.2,0.2l0,0l0,0l0,0l0,0l0,0l0,0l0,0l0,0l0,0l0,0l0,0l0,0l0,0l0,0l0,0l0,0l0,0l0,0l0,0l0,0
	c-0.7,0.6-1.4,1.2-2,1.8l1.8,1.7c0.5-0.5,1.2-1.1,2-1.8L6.9,37.2L6.9,37.2z M3.3,40.9c-0.1,0.2-0.3,0.4-0.4,0.6l0,0l0,0l0,0l0,0l0,0
	l0,0l0,0l0,0l0,0l0,0l0,0l0,0l0,0l0,0l0,0l0,0l0,0l0,0l0,0l0,0l0,0l0,0l0,0l0,0l0,0l0,0l0,0l0,0l0,0l0,0l0,0l0,0l0,0l0,0l0,0l0,0
	l0,0l0,0c-0.4,0.7-0.8,1.3-1,1.9l2.4,0.8c0.1-0.3,0.4-0.9,1.1-1.9L3.3,40.9L3.3,40.9z M4,45.6l-2.5,0.1c0,0.1,0,0.3,0.1,0.4l0,0l0,0
	l0,0l0,0l0,0l0,0l0,0l0,0l0,0l0,0l0,0l0,0l0,0l0,0l0,0l0,0l0,0l0,0l0,0l0,0l0,0l0,0l0,0l0,0l0,0l0,0l0,0l0,0l0,0l0,0l0,0l0,0l0,0
	l0,0l0,0l0,0l0,0l0,0l0,0l0,0l0,0l0,0l0,0l0,0l0,0l0,0l0,0l0,0l0,0l0,0l0,0l0,0l0,0l0,0l0,0l0,0l0,0l0,0l0,0l0,0l0,0l0,0l0,0l0,0
	l0,0l0,0l0,0l0,0l0,0l0,0l0,0l0,0l0,0l0,0l0,0l0,0l0,0l0,0l0,0l0,0l0,0l0,0l0,0l0,0l0,0l0,0l0,0l0,0c0.2,0.6,0.5,1.3,1,2l2.2-1
	C4.1,46.1,4,45.6,4,45.6L4,45.6z M5.8,48.4L4,50.1c0.4,0.5,0.9,0.9,1.3,1.4l0,0l0,0l0,0l0,0l0,0l0,0l0,0l0,0l0,0l0,0l0,0l0,0l0,0
	l0,0l0,0l0,0l0,0l0,0l0,0l0,0l0,0l0,0l0,0l0,0l0,0l0,0l0,0l0,0l0,0l0,0l0,0l0,0l0,0l0,0l0,0l0,0l0,0l0,0l0,0l0,0l0,0l0,0l0,0l0,0
	l0,0l0,0l0,0l0,0l0,0l0,0l0,0l0,0l0,0l0,0l0,0l0,0l0,0l0,0l0,0l0,0l0,0l0,0l0,0l0,0l0,0l0,0l0,0l0,0l0.1,0.1l0,0l0,0l0,0l0,0l0,0
	l0,0l0,0l0,0l0,0l0,0l0,0l0,0l0,0l0,0l0,0l0,0l0,0l0,0l0,0l0,0l0,0l0,0l0,0l0,0l0,0l0,0l0,0l0,0l0,0l0,0l0,0l0,0l0,0l0,0l0,0l0,0
	l0,0l0,0l0,0l0,0l0,0l0,0l0,0l0,0l0,0l0,0l0,0l1.7-1.9C7.1,49.7,6.4,49.1,5.8,48.4L5.8,48.4z M9.3,51.6l-1.6,2
	c0.7,0.5,1.4,1.1,2.1,1.6l0,0l0,0l0,0l0,0l0,0l0,0l0,0l0,0l0,0l0,0l0,0l0,0l0,0l0,0l0,0l0,0c0.1,0.1,0.2,0.1,0.3,0.2l1.4-2.1
	C10.8,52.8,10.1,52.2,9.3,51.6L9.3,51.6z M13.2,54.3L12,56.5c0.7,0.4,1.3,0.7,2,1l0,0l0,0l0,0l0,0l0,0l0,0l0,0l0,0l0,0l0,0l0,0l0,0
	l0,0l0,0l0,0l0,0l0,0l0,0l0,0l0,0l0,0l0,0l0,0l0,0l0,0l0,0l0,0l0,0l0,0l0,0l0,0l0,0l0,0l0,0l0,0l0,0l0,0l0,0l0,0l0,0l0,0l0,0l0,0
	l0,0l0,0l0,0l0,0l0,0c0.2,0.1,0.4,0.2,0.5,0.2l0.9-2.3C14.9,55.2,14.1,54.8,13.2,54.3L13.2,54.3z M17.2,56l-0.5,2.5l0,0l0,0l0,0l0,0
	l0,0l0,0l0,0l0,0l0,0l0,0l0,0l0,0l0,0l0,0l0,0l0,0l0,0l0,0l0,0l0,0l0,0l0,0c0,0,0,0,0.1,0l0,0l0,0l0,0l0,0l0,0l0,0l0,0l0,0l0,0l0,0
	l0,0l0,0l0,0l0,0l0,0c0,0,0,0,0.1,0l0,0l0,0l0,0l0,0l0,0l0,0l0,0l0,0l0,0l0,0l0,0l0,0l0,0l0,0l0,0l0,0l0,0l0,0l0,0l0,0l0,0l0,0l0,0
	l0,0l0,0l0,0l0,0l0,0l0,0l0,0l0,0l0,0l0,0l0,0l0,0l0,0l0,0l0,0l0,0l0,0l0,0l0,0l0,0l0,0l0,0l0,0l0,0l0,0l0,0l0,0l0,0l0,0l0,0l0,0
	l0,0l0,0l0,0l0,0l0,0l0,0l0,0l0,0l0,0l0,0l0,0l0,0l0,0l0,0l0,0l0,0l0,0l0,0l0,0l0,0l0,0l0,0l0,0l0,0l0,0l0,0l0,0l0,0l0,0l0,0l0,0
	l0,0l0,0l0,0l0,0l0,0l0,0l0,0l0,0l0,0l0,0l0,0l0,0l0,0l0,0l0,0l0,0l0,0l0,0l0,0l0,0l0,0l0,0l0,0l0,0l0,0l0,0l0,0l0,0l0,0l0,0l0,0
	l0,0l0,0l0,0l0,0l0,0l0,0l0,0h2.2v-2.4h-2.2C17.5,56.1,17.4,56.1,17.2,56L17.2,56z M24.9,56.1h-3.1v2.5h3.1V56.1L24.9,56.1z
	 M30.1,56.1H27v2.5h3.1V56.1L30.1,56.1z M35.2,56.1h-3.1v2.5h3.1V56.1L35.2,56.1z M40.4,56.1h-3.1v2.5h3.1V56.1L40.4,56.1z
	 M45.5,56.1h-3.1v2.5h3.1V56.1L45.5,56.1z M50.7,56.1h-3.1v2.5h3.1V56.1L50.7,56.1z M55.8,56.1h-3.1v2.5h3.1V56.1L55.8,56.1z
	 M60.9,56.1h-3.1v2.5h3.1V56.1L60.9,56.1z M66.1,56.1H63v2.5h3.1V56.1L66.1,56.1z M71.2,56.1h-3.1v2.5h3.1V56.1L71.2,56.1z
	 M76.4,56.1h-3.1v2.5h3.1V56.1L76.4,56.1z M81.5,56.1h-3.1v2.5h3.1V56.1L81.5,56.1z M85.2,55.3c-0.6,0.4-1.3,0.6-2,0.7l0.3,2.5
	c1-0.1,2-0.5,2.9-1L85.2,55.3L85.2,55.3z M87.5,52.7c-0.3,0.7-0.7,1.2-1.2,1.7l1.8,1.8c0.5-0.5,1-1.1,1.3-1.7l0,0l0,0l0,0l0,0l0,0
	l0,0l0,0l0,0l0,0l0,0l0,0l0,0l0,0l0,0l0,0l0,0l0,0l0,0l0,0l0,0l0,0l0,0l0,0l0,0l0,0l0,0l0,0l0,0l0,0l0,0l0,0l0,0l0,0l0,0l0,0l0,0
	l0,0l0,0l0,0l0,0l0,0l0,0l0,0l0,0l0,0l0,0l0,0l0,0l0,0l0,0l0,0l0,0l0,0l0,0l0,0l0,0l0,0l0,0l0,0l0,0l0,0l0,0l0,0l0,0l0,0l0,0l0,0
	l0,0l0,0l0,0l0,0l0,0l0,0l0,0l0,0l0,0l0,0l0,0l0,0l0,0l0,0l0,0l0,0l0,0l0,0l0,0l0,0l0,0l0,0l0,0l0,0l0,0l0,0l0,0l0,0l0,0l0,0l0,0
	l0,0l0,0l0,0l0,0l0,0l0,0l0,0l0,0l0,0l0,0l0,0l0,0l0,0l0,0l0,0l0,0l0,0l0,0l0,0l0,0l0,0l0,0l0,0l0,0l0,0l0,0c0,0,0-0.1,0.1-0.1
	L87.5,52.7L87.5,52.7z M90.5,48.6H88v1.9c0,0.3,0,0.5-0.1,0.8l2.5,0.4c0-0.3,0.1-0.6,0.1-0.8l0,0l0,0l0,0l0,0l0,0l0,0l0,0l0,0l0,0
	l0,0l0,0l0,0l0,0l0,0l0,0l0,0l0,0l0,0l0,0l0,0l0,0l0,0l0,0l0,0l0,0l0,0l0,0l0,0l0,0l0,0l0,0l0,0l0,0l0,0l0,0l0,0l0,0l0,0l0,0l0,0
	l0,0l0,0l0,0l0,0l0,0l0,0l0,0l0,0l0,0l0,0l0,0l0,0l0,0l0,0l0,0l0,0l0,0l0,0l0,0l0,0l0,0l0,0l0,0l0,0l0,0V48.6L90.5,48.6z M90.5,43.4
	H88v3.1h2.5V43.4L90.5,43.4z M90.3,38.2l-2.5,0.4c0,0.3,0.1,0.6,0.1,0.9v1.8h2.5v-1.8l0,0l0,0l0,0l0,0l0,0l0,0l0,0l0,0l0,0l0,0l0,0
	l0,0l0,0l0,0l0,0l0,0l0,0l0,0l0,0l0,0l0,0l0,0l0,0l0,0l0,0l0,0l0,0l0,0l0,0l0,0l0,0l0,0l0,0l0,0l0,0l0,0l0,0l0,0l0,0l0,0l0,0l0,0
	l0,0l0,0l0,0l0,0l0,0l0,0l0,0l0,0l0,0l0,0l0,0l0,0l0,0l0,0l0,0l0,0l0,0l0,0l0,0l0,0l0,0l0,0l0,0l0,0l0,0l0,0l0,0l0,0l0,0l0,0l0,0
	l0,0l0,0l0,0l0,0l0,0l0,0l0,0l0,0l0,0l0,0l0,0l0,0l0,0l0,0l0,0l0,0l0,0l0,0l0,0l0,0l0,0l0,0l0,0l0,0l0,0l0,0l0,0l0,0l0,0l0,0l0,0
	l0,0l0,0l0,0l0,0l0,0l0,0l0,0l0,0l0,0l0,0l0,0l0,0l0,0l0,0l0,0l0,0l0,0l0,0l0,0l0,0l0,0l0,0l0,0l0,0l0,0l0,0l0,0l0,0l0,0l0,0l0,0
	l0,0l0,0l0,0l0,0l0,0l0,0l0,0l0,0l0,0l0,0l0,0l0,0l0,0l0,0l0,0l0,0l0,0l0,0l0,0l0,0l0,0l0,0l0,0l0,0l0,0l0,0l0,0l0,0l0,0l0,0l0,0
	l0,0l0,0l0,0l0,0l0,0l0,0l0,0l0,0l0,0l0,0l0,0l0,0l0,0l0,0l0,0l0,0l0,0l0,0l0,0l0,0l0,0l0,0l0,0l0,0l0,0l0,0l0,0l0,0l0,0l0,0l0,0
	l0,0l0,0l0,0l0,0l0,0l0,0l0,0l0,0l0,0l0,0l0,0l0,0l0,0l0,0l0,0l0,0l0,0l0,0l0,0l0,0l0,0l0,0l0,0l0,0l0,0l0,0l0,0l0,0l0,0l0,0l0,0
	l0,0l0,0l0,0l0,0l0,0l0,0l0,0C90.4,38.4,90.4,38.3,90.3,38.2C90.4,38.3,90.4,38.3,90.3,38.2C90.4,38.3,90.4,38.3,90.3,38.2
	C90.4,38.3,90.4,38.3,90.3,38.2C90.4,38.3,90.4,38.3,90.3,38.2C90.4,38.3,90.4,38.3,90.3,38.2C90.4,38.3,90.4,38.3,90.3,38.2
	C90.4,38.3,90.4,38.3,90.3,38.2C90.4,38.3,90.4,38.3,90.3,38.2C90.4,38.3,90.4,38.3,90.3,38.2C90.4,38.3,90.4,38.3,90.3,38.2
	C90.4,38.3,90.4,38.3,90.3,38.2C90.4,38.3,90.4,38.3,90.3,38.2C90.4,38.3,90.4,38.3,90.3,38.2C90.4,38.3,90.4,38.3,90.3,38.2
	C90.4,38.3,90.4,38.3,90.3,38.2C90.4,38.3,90.4,38.2,90.3,38.2L90.3,38.2L90.3,38.2z M88,33.8l-1.7,1.8c0.5,0.5,0.9,1.1,1.2,1.7
	l2.3-1c-0.1-0.1-0.1-0.3-0.2-0.4l0,0l0,0l0,0l0,0l0,0l0,0l0,0l0,0l0,0l0,0l0,0l0,0l0,0l0,0l0,0l0,0l0,0l0,0l0,0l0,0l0,0l0,0l0,0l0,0
	l0,0l0,0l0,0l0,0l0,0l0,0l0,0l0,0l0,0l0,0l0,0l0,0l0,0l0,0l0,0l0,0l0,0l0,0l0,0l0,0l0,0l0,0l0,0l0,0l0,0l0,0l0,0l0,0l0,0l0,0l0,0
	l0,0l0,0l0,0l0,0l0,0l0,0l0,0l0,0l0,0l0,0l0,0l0,0l0,0l0,0l0,0l0,0l0,0l0,0l0,0l0,0l0,0l0,0l0,0C89,34.9,88.5,34.3,88,33.8L88,33.8z
	 M83.4,31.6l-0.3,2.5c0.7,0.1,1.4,0.3,2,0.7l1.2-2.2C85.5,32.1,84.5,31.7,83.4,31.6L83.4,31.6z"/>
<path fill="#8A1654" d="M82.4,31.5h-3.1V33h3.1V31.5L82.4,31.5L82.4,31.5z M77.3,31.5h-3.1V33h3.1V31.5L77.3,31.5z M72.2,31.5h-3.1
	V33h3.1V31.5L72.2,31.5z M67,31.5h-3.1V33H67V31.5L67,31.5z M61.9,31.5h-3.1V33h3.1V31.5L61.9,31.5z M56.7,31.5h-3.1V33h3.1V31.5
	L56.7,31.5z M51.6,31.5h-3.1V33h3.1V31.5L51.6,31.5z M46.4,31.5h-3.1V33h3.1V31.5L46.4,31.5z M41.3,31.5h-3.1V33h3.1V31.5L41.3,31.5
	z M36.2,31.5h-3.1V33h3.1V31.5L36.2,31.5z M31,31.5h-3.1V33H31V31.5L31,31.5z M25.9,31.5h-3.1V33h3.1V31.5L25.9,31.5z M20.7,31.5
	h-3.1V33h3.1V31.5L20.7,31.5z M15.6,31.9c-0.6,0.2-1.2,0.4-1.8,0.7l0,0l0,0l0,0l0,0l0,0l0,0l0,0l0,0l0,0l0,0l0,0l0,0l0,0l0,0l0,0
	l0,0l0,0l0,0l0,0l0,0l0,0l0,0l0,0l0,0l0,0l0,0l0,0l0,0l0,0l0,0l0,0l0,0c-0.3,0.1-0.5,0.3-0.8,0.4l0.7,1.3c1-0.5,1.8-0.9,2.6-1.1
	L15.6,31.9L15.6,31.9z M11,34.2c-0.9,0.5-1.7,1.1-2.5,1.7l0.9,1.2c0.8-0.6,1.6-1.1,2.4-1.6L11,34.2L11,34.2z M6.9,37.2
	c-0.8,0.7-1.5,1.3-2.1,2l0,0l0,0l0,0l0,0l0,0l0,0l0,0l0,0l0,0l0,0l0,0l0,0l0,0l0,0l0,0l0,0l0,0l0,0l0,0l0,0l0,0l0,0c0,0,0,0-0.1,0.1
	l1.1,1c0.5-0.6,1.2-1.3,2-1.9L6.9,37.2L6.9,37.2z M3.3,40.9c-0.7,0.9-1.3,1.8-1.5,2.7L3.1,44c0.2-0.6,0.6-1.4,1.3-2.2L3.3,40.9
	L3.3,40.9z M3,45.6l-1.5,0.1c0,0.4,0.1,0.9,0.4,1.4l0,0l0,0l0,0l0,0l0,0l0,0l0,0l0,0l0,0l0,0l0,0l0,0l0,0l0,0l0,0l0,0l0,0l0,0l0,0
	l0,0l0,0l0,0l0,0l0,0l0,0l0,0l0,0l0,0l0,0l0,0l0,0l0,0l0,0l0,0l0,0l0,0l0,0l0,0l0,0l0,0l0,0l0,0l0,0l0,0l0,0l0,0l0,0l0,0l0,0l0,0
	l0,0l0,0l0,0l0,0l0,0l0,0l0,0l0,0l0,0l0,0l0,0l0,0l0,0l0,0c0.2,0.4,0.4,0.8,0.7,1.2l1.2-0.8C3.2,46.5,3.1,45.9,3,45.6L3,45.6z
	 M5.1,49.1l-1.1,1c0.5,0.6,1.1,1.2,1.8,1.8l0,0l0,0l0,0l0,0l0,0l0,0l0,0l0,0l0,0l0,0l0,0l0,0c0.1,0.2,0.2,0.3,0.4,0.4l1-1.1
	C6.4,50.5,5.7,49.8,5.1,49.1L5.1,49.1z M8.7,52.4l-0.9,1.2c0.7,0.6,1.4,1.1,2.1,1.6l0,0l0,0l0,0l0,0l0,0l0,0l0,0l0,0l0,0l0,0l0,0
	l0,0l0,0l0,0l0,0l0,0c0.1,0.1,0.2,0.1,0.3,0.2l0.8-1.2C10.3,53.6,9.5,53,8.7,52.4L8.7,52.4z M12.7,55.2L12,56.5c1,0.6,1.9,1,2.8,1.4
	l0.6-1.4C14.5,56.2,13.7,55.7,12.7,55.2L12.7,55.2z M17,57l-0.3,1.5c0.2,0,0.4,0.1,0.6,0.1l0,0l0,0l0,0l0,0l0,0l0,0l0,0l0,0l0,0l0,0
	l0,0l0,0l0,0l0,0l0,0l0,0l0,0l0,0l0,0l0,0l0,0l0,0l0,0l0,0l0,0l0,0l0,0l0,0l0,0l0,0l0,0l0,0l0,0l0,0l0,0l0,0l0,0l0,0l0,0l0,0l0,0
	l0,0l0,0l0,0l0,0l0,0l0,0l0,0l0,0l0,0l0,0l0,0l0,0l0,0l0,0l0,0l0,0l0,0l0,0l0,0l0,0l0,0l0,0l0,0l0,0l0,0l0,0l0,0l0,0l0,0l0,0l0,0
	l0,0l0,0l0,0l0,0l0,0l0,0l0,0l0,0l0,0h2.2v-1.5h-2.2C17.4,57.1,17.2,57,17,57L17,57z M24.9,57.1h-3.1v1.5h3.1V57.1L24.9,57.1z
	 M30.1,57.1H27v1.5h3.1V57.1L30.1,57.1z M35.2,57.1h-3.1v1.5h3.1V57.1L35.2,57.1z M40.4,57.1h-3.1v1.5h3.1V57.1L40.4,57.1z
	 M45.5,57.1h-3.1v1.5h3.1V57.1L45.5,57.1z M50.7,57.1h-3.1v1.5h3.1V57.1L50.7,57.1z M55.8,57.1h-3.1v1.5h3.1V57.1L55.8,57.1z
	 M60.9,57.1h-3.1v1.5h3.1V57.1L60.9,57.1z M66.1,57.1H63v1.5h3.1V57.1L66.1,57.1z M71.2,57.1h-3.1v1.5h3.1V57.1L71.2,57.1z
	 M76.4,57.1h-3.1v1.5h3.1V57.1L76.4,57.1z M81.5,57.1h-3.1v1.5h3.1V57.1L81.5,57.1z M85.7,56.2c-0.7,0.4-1.5,0.7-2.4,0.8l0.2,1.5
	l0,0l0,0l0,0l0,0l0,0l0,0l0,0l0,0l0,0l0,0l0,0l0,0l0,0l0,0l0,0l0,0l0,0l0,0l0,0l0,0l0,0l0,0l0,0l0,0l0,0l0,0l0,0l0,0l0,0l0,0
	c0.4-0.1,0.8-0.2,1.2-0.3l0,0l0,0l0,0h0.1l0,0l0,0l0,0l0,0l0,0l0,0l0,0l0,0l0,0l0,0l0,0l0,0l0,0l0,0l0,0l0,0l0,0l0,0l0,0l0,0l0,0
	l0,0l0,0l0,0l0,0l0,0l0,0l0,0l0,0l0,0l0,0l0,0l0,0l0,0l0,0l0,0l0,0l0,0l0,0l0,0l0,0l0,0l0,0l0,0l0,0l0,0l0,0l0,0l0,0l0,0l0,0l0,0
	l0,0l0,0l0,0l0,0l0,0l0,0l0,0l0,0l0,0l0,0l0,0l0,0l0,0l0,0l0,0l0,0c0.4-0.2,0.8-0.4,1.2-0.6l0,0l0,0l0,0l0,0l0,0l0,0l0,0l0,0l0,0
	l0,0l0,0l0,0l0,0l0,0l0,0l0,0l0,0L85.7,56.2L85.7,56.2z M88.4,53.1c-0.3,0.8-0.8,1.5-1.4,2.1l1.1,1.1c0.2-0.2,0.3-0.3,0.5-0.5l0,0
	l0,0l0,0l0,0l0,0l0,0l0,0l0,0l0,0l0,0l0,0l0,0l0,0l0,0l0,0l0,0l0,0l0,0l0,0l0,0l0,0l0,0l0,0l0,0l0,0l0,0l0,0l0,0l0,0l0,0l0,0l0,0
	l0,0l0,0l0,0l0,0l0,0l0,0l0,0l0,0l0,0l0,0l0,0l0,0l0,0l0,0l0,0l0,0l0,0l0,0l0,0l0,0l0,0l0,0l0,0l0,0l0,0l0,0l0,0l0,0l0,0l0,0l0,0
	l0,0l0,0l0,0l0,0l0,0l0,0l0,0l0,0l0,0l0,0l0,0l0,0l0,0l0,0l0,0l0,0l0,0l0,0l0,0l0,0l0,0l0,0l0,0l0,0l0,0l0,0l0,0l0,0l0,0l0,0l0,0
	l0,0l0,0l0,0l0,0l0,0l0,0l0,0l0,0l0,0l0,0l0,0l0,0l0,0l0,0l0,0l0,0l0,0l0,0l0,0l0,0l0,0l0,0l0,0l0,0l0,0l0,0l0,0l0,0l0,0l0,0l0,0
	l0,0l0,0l0,0l0,0l0,0l0,0l0,0l0,0l0,0l0,0l0,0l0,0l0,0l0,0l0,0l0,0l0,0l0,0l0,0l0,0l0,0l0,0l0,0l0,0l0,0l0,0l0,0l0,0l0,0l0,0l0,0
	l0,0l0,0l0,0l0,0l0,0l0,0l0,0l0,0l0,0c0.4-0.5,0.7-1,0.9-1.6L88.4,53.1L88.4,53.1z M90.5,48.6H89v1.9c0,0.3,0,0.6-0.1,0.9l1.5,0.2
	c0-0.1,0-0.1,0-0.2l0,0l0,0l0,0l0,0l0,0l0,0l0,0l0,0l0,0l0,0l0,0l0,0l0,0l0,0l0,0l0,0l0,0l0,0l0,0l0,0l0,0l0,0l0,0l0,0l0,0l0,0l0,0
	l0,0l0,0l0,0l0,0l0,0l0,0l0,0l0,0l0,0l0,0l0,0l0,0l0,0l0,0l0,0l0,0l0,0l0,0l0,0l0,0l0,0l0,0l0,0l0,0l0,0l0,0l0,0l0,0l0,0l0,0l0,0
	l0,0l0,0l0,0l0,0l0,0l0,0l0,0l0,0l0,0l0,0l0,0l0,0l0,0l0,0l0,0l0,0l0,0l0,0l0,0l0,0l0,0l0,0l0,0l0,0l0,0l0,0l0,0l0,0l0,0l0,0l0,0
	l0,0l0,0l0,0l0,0l0,0l0,0l0,0l0,0l0,0l0,0l0,0l0,0l0,0l0,0l0,0l0,0l0,0l0,0l0,0l0,0l0,0l0,0l0,0l0,0l0,0l0,0l0,0l0,0l0,0l0,0l0,0
	l0,0l0,0l0,0l0,0l0,0l0,0l0,0l0,0l0,0l0,0l0,0l0,0l0,0l0,0l0,0l0,0l0,0l0,0l0,0l0,0l0,0l0,0l0,0l0,0l0,0l0,0l0,0l0,0l0,0l0,0l0,0
	l0,0l0,0l0,0l0,0l0,0l0,0l0,0l0,0l0,0l0,0l0,0l0,0l0,0l0,0l0,0l0,0l0,0l0,0l0,0l0,0l0,0l0,0l0,0l0,0l0,0l0,0l0,0l0,0l0,0l0,0l0,0
	l0,0l0,0l0,0l0,0l0,0l0,0l0,0l0,0l0,0l0,0l0,0l0,0l0,0l0,0l0,0l0,0l0,0l0,0L90.5,48.6L90.5,48.6z M90.5,43.4H89v3.1h1.5V43.4
	L90.5,43.4z M90.3,38.2l-1.5,0.2c0.1,0.4,0.2,0.8,0.2,1.1v1.8h1.5v-1.8l0,0l0,0l0,0l0,0l0,0l0,0l0,0l0,0l0,0l0,0l0,0l0,0l0,0l0,0
	l0,0l0,0l0,0l0,0l0,0l0,0l0,0l0,0l0,0l0,0l0,0l0,0l0,0l0,0l0,0l0,0l0,0l0,0l0,0l0,0l0,0l0,0l0,0l0,0l0,0l0,0l0,0l0,0l0,0l0,0l0,0
	l0,0l0,0l0,0l0,0l0,0l0,0l0,0l0,0l0,0l0,0l0,0l0,0l0,0l0,0l0,0l0,0l0,0l0,0l0,0l0,0l0,0l0,0l0,0l0,0l0,0l0,0l0,0l0,0l0,0l0,0l0,0
	l0,0l0,0l0,0l0,0l0,0l0,0l0,0l0,0l0,0l0,0l0,0l0,0l0,0l0,0l0,0l0,0l0,0l0,0C90.4,38.8,90.4,38.5,90.3,38.2L90.3,38.2z M88,33.8
	l-1,1.1c0.6,0.6,1.1,1.3,1.4,2l1.4-0.6C89.3,35.3,88.7,34.5,88,33.8L88,33.8z M83.4,31.6l-0.2,1.5c0.8,0.1,1.6,0.4,2.4,0.8l0.7-1.3
	C85.5,32.1,84.5,31.7,83.4,31.6L83.4,31.6z"/>
<linearGradient id="SVGID_2_" gradientUnits="userSpaceOnUse" x1="-737.0005" y1="-595.4995" x2="-737.0005" y2="-565.4006" gradientTransform="matrix(-1 0 0 1 -691 595.5)">
	<stop  offset="0" style="stop-color:#D60080"/>
	<stop  offset="0.3" style="stop-color:#EC008C"/>
	<stop  offset="0.4268" style="stop-color:#EC098E"/>
	<stop  offset="0.6335" style="stop-color:#ED2194"/>
	<stop  offset="0.893" style="stop-color:#EE499D"/>
	<stop  offset="1" style="stop-color:#EF5BA1"/>
</linearGradient>
<path fill="url(#SVGID_2_)" d="M0,14.5C0,9.3,12.3,0,17.6,0h64.9C87.7,0,92,4.3,92,9.5v10.9c0,5.3-4.3,9.5-9.6,9.5H17.6
	C12.3,30.1,0,20.8,0,15.6V14.5z"/>
<path fill="#F484BE" d="M82.4,1.5h-3.1V4h3.1V1.5L82.4,1.5L82.4,1.5z M77.3,1.5h-3.1V4h3.1V1.5L77.3,1.5z M72.2,1.5h-3.1V4h3.1V1.5
	L72.2,1.5z M67,1.5h-3.1V4H67V1.5L67,1.5z M61.9,1.5h-3.1V4h3.1V1.5L61.9,1.5z M56.7,1.5h-3.1V4h3.1V1.5L56.7,1.5z M51.6,1.5h-3.1V4
	h3.1V1.5L51.6,1.5z M46.4,1.5h-3.1V4h3.1V1.5L46.4,1.5z M41.3,1.5h-3.1V4h3.1V1.5L41.3,1.5z M36.2,1.5h-3.1V4h3.1V1.5L36.2,1.5z
	 M31,1.5h-3.1V4H31V1.5L31,1.5z M25.9,1.5h-3.1V4h3.1V1.5L25.9,1.5z M20.7,1.5h-3.1V4h3.1V1.5L20.7,1.5z M15.6,1.9L15.6,1.9
	L15.6,1.9L15.6,1.9L15.6,1.9L15.6,1.9L15.6,1.9C15.6,1.9,15.5,1.9,15.6,1.9C15.5,1.9,15.5,1.9,15.6,1.9C15.5,1.9,15.5,1.9,15.6,1.9
	C15.5,1.9,15.5,1.9,15.6,1.9c-0.1,0-0.1,0-0.1,0l0,0l0,0l0,0l0,0l0,0l0,0l0,0l0,0l0,0l0,0l0,0l0,0l0,0l0,0l0,0l0,0l0,0l0,0l0,0l0,0
	l0,0l0,0l0,0l0,0l0,0l0,0l0,0l0,0l0,0l0,0l0,0l0,0l0,0l0,0l0,0l0,0l0,0l0,0l0,0l0,0l0,0l0,0l0,0l0,0l0,0l0,0l0,0l0,0l0,0l0,0l0,0
	l0,0l0,0l0,0l0,0l0,0l0,0l0,0l0,0l0,0l0,0l0,0l0,0l0,0l0,0l0,0l0,0l0,0l0,0l0,0l0,0l0,0l0,0c-0.7,0.3-1.4,0.6-2.2,1L14,5.4
	c0.9-0.5,1.7-0.8,2.4-1.1L15.6,1.9L15.6,1.9z M11,4.2c-0.4,0.2-0.8,0.5-1.1,0.7l0,0l0,0l0,0C9.8,5,9.8,5,9.7,5l0,0l0,0l0,0l0,0l0,0
	l0,0l0,0l0,0l0,0l0,0l0,0l0,0l0,0l0,0l0,0l0,0l0,0l0,0l0,0l0,0l0,0l0,0l0,0l0,0l0,0l0,0l0,0l0,0l0,0l0,0l0,0l0,0l0,0l0,0l0,0l0,0
	l0,0l0,0l0,0l0,0l0,0l0,0l0,0l0,0l0,0l0,0l0,0l0,0l0,0l0,0l0,0l0,0l0,0l0,0C9.1,5.5,8.8,5.7,8.5,5.9l1.5,2c0.8-0.6,1.6-1.1,2.4-1.6
	L11,4.2L11,4.2z M6.9,7.2C6.8,7.3,6.7,7.3,6.7,7.4l0,0l0,0l0,0l0,0l0,0l0,0l0,0l0,0l0,0l0,0l0,0l0,0l0,0l0,0l0,0l0,0l0,0l0,0l0,0
	l0,0C6,8,5.3,8.6,4.7,9.2l1.8,1.7c0.5-0.5,1.2-1.1,2-1.8L6.9,7.2L6.9,7.2z M3.3,10.9c-0.1,0.2-0.3,0.4-0.4,0.6l0,0l0,0l0,0l0,0l0,0
	l0,0l0,0l0,0l0,0l0,0l0,0l0,0l0,0l0,0l0,0l0,0l0,0l0,0l0,0l0,0l0,0l0,0l0,0l0,0l0,0l0,0l0,0l0,0l0,0l0,0l0,0l0,0l0,0l0,0l0,0l0,0
	l0,0l0,0c-0.4,0.7-0.8,1.3-1,1.9l2.4,0.8c0.1-0.3,0.4-0.9,1.1-1.9L3.3,10.9L3.3,10.9z M4,15.6l-2.5,0.1c0,0.1,0,0.3,0.1,0.4l0,0l0,0
	l0,0l0,0l0,0l0,0l0,0l0,0l0,0l0,0l0,0l0,0l0,0l0,0l0,0l0,0l0,0l0,0l0,0l0,0l0,0l0,0l0,0l0,0l0,0l0,0l0,0l0,0l0,0l0,0l0,0l0,0l0,0
	l0,0l0,0l0,0l0,0l0,0l0,0l0,0l0,0l0,0l0,0l0,0l0,0l0,0l0,0l0,0l0,0l0,0l0,0l0,0l0,0l0,0l0,0l0,0l0,0l0,0l0,0l0,0l0,0l0,0l0,0l0,0
	l0,0l0,0l0,0l0,0l0,0l0,0l0,0l0,0l0,0l0,0l0,0l0,0l0,0l0,0l0,0l0,0l0,0l0,0l0,0l0,0l0,0l0,0l0,0l0,0c0.2,0.6,0.5,1.3,1,2l2.2-1
	C4.1,16.1,4,15.6,4,15.6L4,15.6z M5.8,18.4L4,20.1c0.4,0.5,0.9,0.9,1.3,1.4l0,0l0,0l0,0l0,0l0,0l0,0l0,0l0,0l0,0l0,0l0,0l0,0l0,0
	l0,0l0,0l0,0l0,0l0,0l0,0l0,0l0,0l0,0l0,0l0,0l0,0l0,0l0,0l0,0l0,0l0,0l0,0l0,0l0,0l0,0l0,0l0,0l0,0l0,0l0,0l0,0l0,0l0,0l0,0l0,0
	l0,0l0,0l0,0l0,0l0,0l0,0l0,0l0,0l0,0l0,0l0,0l0,0l0,0l0,0l0,0l0,0l0,0l0,0l0,0l0,0l0,0l0,0l0,0l0,0l0.1,0.1l0,0l0,0l0,0l0,0l0,0
	l0,0l0,0l0,0l0,0l0,0l0,0l0,0l0,0l0,0l0,0l0,0l0,0l0,0l0,0l0,0l0,0l0,0l0,0l0,0l0,0l0,0l0,0l0,0l0,0l0,0l0,0l0,0l0,0l0,0l0,0l0,0
	l0,0l0,0l0,0l0,0l0,0l0,0l0,0l0,0l0,0l0,0l0,0l1.7-1.9C7.1,19.7,6.4,19.1,5.8,18.4L5.8,18.4z M9.3,21.6l-1.6,2
	c0.7,0.5,1.4,1.1,2.1,1.6l0,0l0,0l0,0l0,0l0,0l0,0l0,0l0,0l0,0l0,0l0,0l0,0l0,0l0,0l0,0l0,0c0.1,0.1,0.2,0.1,0.3,0.2l1.4-2.1
	C10.8,22.8,10.1,22.2,9.3,21.6L9.3,21.6z M13.2,24.3L12,26.5c0.7,0.4,1.3,0.7,2,1l0,0l0,0l0,0l0,0l0,0l0,0l0,0l0,0l0,0l0,0l0,0l0,0
	l0,0l0,0l0,0l0,0l0,0l0,0l0,0l0,0l0,0l0,0l0,0l0,0l0,0l0,0l0,0l0,0l0,0l0,0l0,0l0,0l0,0l0,0l0,0l0,0l0,0l0,0l0,0l0,0l0,0l0,0l0,0
	l0,0l0,0l0,0l0,0l0,0c0.2,0.1,0.4,0.2,0.5,0.2l0.9-2.3C14.9,25.2,14.1,24.8,13.2,24.3L13.2,24.3z M17.2,26l-0.5,2.5l0,0l0,0l0,0l0,0
	l0,0l0,0l0,0l0,0l0,0l0,0l0,0l0,0l0,0l0,0l0,0l0,0l0,0l0,0l0,0l0,0l0,0l0,0c0,0,0,0,0.1,0l0,0l0,0l0,0l0,0l0,0l0,0l0,0l0,0l0,0l0,0
	l0,0l0,0l0,0l0,0l0,0c0,0,0,0,0.1,0l0,0l0,0l0,0l0,0l0,0l0,0l0,0l0,0l0,0l0,0l0,0l0,0l0,0l0,0l0,0l0,0l0,0l0,0l0,0l0,0l0,0l0,0l0,0
	l0,0l0,0l0,0l0,0l0,0l0,0l0,0l0,0l0,0l0,0l0,0l0,0l0,0l0,0l0,0l0,0l0,0l0,0l0,0l0,0l0,0l0,0l0,0l0,0l0,0l0,0l0,0l0,0l0,0l0,0l0,0
	l0,0l0,0l0,0l0,0l0,0l0,0l0,0l0,0l0,0l0,0l0,0l0,0l0,0l0,0l0,0l0,0l0,0l0,0l0,0l0,0l0,0l0,0l0,0l0,0l0,0l0,0l0,0l0,0l0,0l0,0l0,0
	l0,0l0,0l0,0l0,0l0,0l0,0l0,0l0,0l0,0l0,0l0,0l0,0l0,0l0,0l0,0l0,0l0,0l0,0l0,0l0,0l0,0l0,0l0,0l0,0l0,0l0,0l0,0l0,0l0,0l0,0l0,0
	l0,0l0,0l0,0l0,0l0,0l0,0l0,0h2.2v-2.4h-2.2C17.5,26.1,17.4,26.1,17.2,26L17.2,26z M24.9,26.1h-3.1v2.5h3.1V26.1L24.9,26.1z
	 M30.1,26.1H27v2.5h3.1V26.1L30.1,26.1z M35.2,26.1h-3.1v2.5h3.1V26.1L35.2,26.1z M40.4,26.1h-3.1v2.5h3.1V26.1L40.4,26.1z
	 M45.5,26.1h-3.1v2.5h3.1V26.1L45.5,26.1z M50.7,26.1h-3.1v2.5h3.1V26.1L50.7,26.1z M55.8,26.1h-3.1v2.5h3.1V26.1L55.8,26.1z
	 M60.9,26.1h-3.1v2.5h3.1V26.1L60.9,26.1z M66.1,26.1H63v2.5h3.1V26.1L66.1,26.1z M71.2,26.1h-3.1v2.5h3.1V26.1L71.2,26.1z
	 M76.4,26.1h-3.1v2.5h3.1V26.1L76.4,26.1z M81.5,26.1h-3.1v2.5h3.1V26.1L81.5,26.1z M85.2,25.3c-0.6,0.4-1.3,0.6-2,0.7l0.3,2.5
	c1-0.1,2-0.5,2.9-1L85.2,25.3L85.2,25.3z M87.5,22.7c-0.3,0.7-0.7,1.2-1.2,1.7l1.8,1.8c0.5-0.5,1-1.1,1.3-1.7l0,0l0,0l0,0l0,0l0,0
	l0,0l0,0l0,0l0,0l0,0l0,0l0,0l0,0l0,0l0,0l0,0l0,0l0,0l0,0l0,0l0,0l0,0l0,0l0,0l0,0l0,0l0,0l0,0l0,0l0,0l0,0l0,0l0,0l0,0l0,0l0,0
	l0,0l0,0l0,0l0,0l0,0l0,0l0,0l0,0l0,0l0,0l0,0l0,0l0,0l0,0l0,0l0,0l0,0l0,0l0,0l0,0l0,0l0,0l0,0l0,0l0,0l0,0l0,0l0,0l0,0l0,0l0,0
	l0,0l0,0l0,0l0,0l0,0l0,0l0,0l0,0l0,0l0,0l0,0l0,0l0,0l0,0l0,0l0,0l0,0l0,0l0,0l0,0l0,0l0,0l0,0l0,0l0,0l0,0l0,0l0,0l0,0l0,0l0,0
	l0,0l0,0l0,0l0,0l0,0l0,0l0,0l0,0l0,0l0,0l0,0l0,0l0,0l0,0l0,0l0,0l0,0l0,0l0,0l0,0l0,0l0,0l0,0l0,0l0,0l0,0c0,0,0-0.1,0.1-0.1
	L87.5,22.7L87.5,22.7z M90.5,18.6H88v1.9c0,0.3,0,0.5-0.1,0.8l2.5,0.4c0-0.3,0.1-0.6,0.1-0.8l0,0l0,0l0,0l0,0l0,0l0,0l0,0l0,0l0,0
	l0,0l0,0l0,0l0,0l0,0l0,0l0,0l0,0l0,0l0,0l0,0l0,0l0,0l0,0l0,0l0,0l0,0l0,0l0,0l0,0l0,0l0,0l0,0l0,0l0,0l0,0l0,0l0,0l0,0l0,0l0,0
	l0,0l0,0l0,0l0,0l0,0l0,0l0,0l0,0l0,0l0,0l0,0l0,0l0,0l0,0l0,0l0,0l0,0l0,0l0,0l0,0l0,0l0,0l0,0l0,0l0,0V18.6L90.5,18.6z M90.5,13.4
	H88v3.1h2.5V13.4L90.5,13.4z M90.3,8.2l-2.5,0.4c0,0.3,0.1,0.6,0.1,0.9v1.8h2.5V9.5l0,0l0,0l0,0l0,0l0,0l0,0l0,0l0,0l0,0l0,0l0,0
	l0,0l0,0l0,0l0,0l0,0l0,0l0,0l0,0l0,0l0,0l0,0l0,0l0,0l0,0l0,0l0,0l0,0l0,0l0,0l0,0l0,0l0,0l0,0l0,0l0,0l0,0l0,0l0,0l0,0l0,0l0,0
	l0,0l0,0l0,0l0,0l0,0l0,0l0,0l0,0l0,0l0,0l0,0l0,0l0,0l0,0l0,0l0,0l0,0l0,0l0,0l0,0l0,0l0,0l0,0l0,0l0,0l0,0l0,0l0,0l0,0l0,0l0,0
	l0,0l0,0l0,0l0,0l0,0l0,0l0,0l0,0l0,0l0,0l0,0l0,0l0,0l0,0l0,0l0,0l0,0l0,0l0,0l0,0l0,0l0,0l0,0l0,0l0,0l0,0l0,0l0,0l0,0l0,0l0,0
	l0,0l0,0l0,0l0,0l0,0l0,0l0,0l0,0l0,0l0,0l0,0l0,0l0,0l0,0l0,0l0,0l0,0l0,0l0,0l0,0l0,0l0,0l0,0l0,0l0,0l0,0l0,0l0,0l0,0l0,0l0,0
	l0,0l0,0l0,0l0,0l0,0l0,0l0,0l0,0l0,0l0,0l0,0l0,0l0,0l0,0l0,0l0,0l0,0l0,0l0,0l0,0l0,0l0,0l0,0l0,0l0,0l0,0l0,0l0,0l0,0l0,0l0,0
	l0,0l0,0l0,0l0,0l0,0l0,0l0,0l0,0l0,0l0,0l0,0l0,0l0,0l0,0l0,0l0,0l0,0l0,0l0,0l0,0l0,0l0,0l0,0l0,0l0,0l0,0l0,0l0,0l0,0l0,0l0,0
	l0,0l0,0l0,0l0,0l0,0l0,0l0,0l0,0l0,0l0,0l0,0l0,0l0,0l0,0l0,0l0,0l0,0l0,0l0,0l0,0l0,0l0,0l0,0l0,0l0,0l0,0l0,0l0,0l0,0l0,0l0,0
	l0,0l0,0l0,0l0,0l0,0l0,0l0,0C90.4,8.4,90.4,8.3,90.3,8.2C90.4,8.3,90.4,8.3,90.3,8.2C90.4,8.3,90.4,8.3,90.3,8.2
	C90.4,8.3,90.4,8.3,90.3,8.2C90.4,8.3,90.4,8.3,90.3,8.2C90.4,8.3,90.4,8.3,90.3,8.2C90.4,8.3,90.4,8.3,90.3,8.2
	C90.4,8.3,90.4,8.3,90.3,8.2C90.4,8.3,90.4,8.3,90.3,8.2C90.4,8.3,90.4,8.3,90.3,8.2C90.4,8.3,90.4,8.3,90.3,8.2
	C90.4,8.3,90.4,8.3,90.3,8.2C90.4,8.3,90.4,8.3,90.3,8.2C90.4,8.3,90.4,8.3,90.3,8.2C90.4,8.3,90.4,8.3,90.3,8.2
	C90.4,8.3,90.4,8.3,90.3,8.2C90.4,8.3,90.4,8.2,90.3,8.2L90.3,8.2L90.3,8.2z M88,3.8l-1.7,1.8c0.5,0.5,0.9,1.1,1.2,1.7l2.3-1
	c-0.1-0.1-0.1-0.3-0.2-0.4l0,0l0,0l0,0l0,0l0,0l0,0l0,0l0,0l0,0l0,0l0,0l0,0l0,0l0,0l0,0l0,0l0,0l0,0l0,0l0,0l0,0l0,0l0,0l0,0l0,0
	l0,0l0,0l0,0l0,0l0,0l0,0l0,0l0,0l0,0l0,0l0,0l0,0l0,0l0,0l0,0l0,0l0,0l0,0l0,0l0,0l0,0l0,0l0,0l0,0l0,0l0,0l0,0l0,0l0,0l0,0l0,0
	l0,0l0,0l0,0l0,0l0,0l0,0l0,0l0,0l0,0l0,0l0,0l0,0l0,0l0,0l0,0l0,0l0,0l0,0l0,0l0,0l0,0l0,0C89,4.9,88.5,4.3,88,3.8L88,3.8z
	 M83.4,1.6l-0.3,2.5c0.7,0.1,1.4,0.3,2,0.7l1.2-2.2C85.5,2.1,84.5,1.7,83.4,1.6L83.4,1.6z"/>
<path fill="#8A1654" d="M82.4,1.5h-3.1V3h3.1V1.5L82.4,1.5L82.4,1.5z M77.3,1.5h-3.1V3h3.1V1.5L77.3,1.5z M72.2,1.5h-3.1V3h3.1V1.5
	L72.2,1.5z M67,1.5h-3.1V3H67V1.5L67,1.5z M61.9,1.5h-3.1V3h3.1V1.5L61.9,1.5z M56.7,1.5h-3.1V3h3.1V1.5L56.7,1.5z M51.6,1.5h-3.1V3
	h3.1V1.5L51.6,1.5z M46.4,1.5h-3.1V3h3.1V1.5L46.4,1.5z M41.3,1.5h-3.1V3h3.1V1.5L41.3,1.5z M36.2,1.5h-3.1V3h3.1V1.5L36.2,1.5z
	 M31,1.5h-3.1V3H31V1.5L31,1.5z M25.9,1.5h-3.1V3h3.1V1.5L25.9,1.5z M20.7,1.5h-3.1V3h3.1V1.5L20.7,1.5z M15.6,1.9
	c-0.6,0.2-1.2,0.4-1.8,0.7l0,0l0,0l0,0l0,0l0,0l0,0l0,0l0,0l0,0l0,0l0,0l0,0l0,0l0,0l0,0l0,0l0,0l0,0l0,0l0,0l0,0l0,0l0,0l0,0l0,0
	l0,0l0,0l0,0l0,0l0,0l0,0l0,0C13.5,2.7,13.3,2.9,13,3l0.7,1.3c1-0.5,1.8-0.9,2.6-1.1L15.6,1.9L15.6,1.9z M11,4.2
	c-0.9,0.5-1.7,1.1-2.5,1.7l0.9,1.2C10.2,6.5,11,6,11.8,5.5L11,4.2L11,4.2z M6.9,7.2c-0.8,0.7-1.5,1.3-2.1,2l0,0l0,0l0,0l0,0l0,0l0,0
	l0,0l0,0l0,0l0,0l0,0l0,0l0,0l0,0l0,0l0,0l0,0l0,0l0,0l0,0l0,0l0,0c0,0,0,0-0.1,0.1l1.1,1C6.3,9.7,7,9,7.8,8.4L6.9,7.2L6.9,7.2z
	 M3.3,10.9c-0.7,0.9-1.3,1.8-1.5,2.7L3.1,14c0.2-0.6,0.6-1.4,1.3-2.2L3.3,10.9L3.3,10.9z M3,15.6l-1.5,0.1c0,0.4,0.1,0.9,0.4,1.4
	l0,0l0,0l0,0l0,0l0,0l0,0l0,0l0,0l0,0l0,0l0,0l0,0l0,0l0,0l0,0l0,0l0,0l0,0l0,0l0,0l0,0l0,0l0,0l0,0l0,0l0,0l0,0l0,0l0,0l0,0l0,0
	l0,0l0,0l0,0l0,0l0,0l0,0l0,0l0,0l0,0l0,0l0,0l0,0l0,0l0,0l0,0l0,0l0,0l0,0l0,0l0,0l0,0l0,0l0,0l0,0l0,0l0,0l0,0l0,0l0,0l0,0l0,0
	l0,0l0,0c0.2,0.4,0.4,0.8,0.7,1.2l1.2-0.8C3.2,16.5,3.1,15.9,3,15.6L3,15.6z M5.1,19.1l-1.1,1c0.5,0.6,1.1,1.2,1.8,1.8l0,0l0,0l0,0
	l0,0l0,0l0,0l0,0l0,0l0,0l0,0l0,0l0,0c0.1,0.2,0.2,0.3,0.4,0.4l1-1.1C6.4,20.5,5.7,19.8,5.1,19.1L5.1,19.1z M8.7,22.4l-0.9,1.2
	c0.7,0.6,1.4,1.1,2.1,1.6l0,0l0,0l0,0l0,0l0,0l0,0l0,0l0,0l0,0l0,0l0,0l0,0l0,0l0,0l0,0l0,0c0.1,0.1,0.2,0.1,0.3,0.2l0.8-1.2
	C10.3,23.6,9.5,23,8.7,22.4L8.7,22.4z M12.7,25.2L12,26.5c1,0.6,1.9,1,2.8,1.4l0.6-1.4C14.5,26.2,13.7,25.7,12.7,25.2L12.7,25.2z
	 M17,27l-0.3,1.5c0.2,0,0.4,0.1,0.6,0.1l0,0l0,0l0,0l0,0l0,0l0,0l0,0l0,0l0,0l0,0l0,0l0,0l0,0l0,0l0,0l0,0l0,0l0,0l0,0l0,0l0,0l0,0
	l0,0l0,0l0,0l0,0l0,0l0,0l0,0l0,0l0,0l0,0l0,0l0,0l0,0l0,0l0,0l0,0l0,0l0,0l0,0l0,0l0,0l0,0l0,0l0,0l0,0l0,0l0,0l0,0l0,0l0,0l0,0
	l0,0l0,0l0,0l0,0l0,0l0,0l0,0l0,0l0,0l0,0l0,0l0,0l0,0l0,0l0,0l0,0l0,0l0,0l0,0l0,0l0,0l0,0l0,0l0,0l0,0l0,0l0,0l0,0h2.2v-1.5h-2.2
	C17.4,27.1,17.2,27,17,27L17,27z M24.9,27.1h-3.1v1.5h3.1V27.1L24.9,27.1z M30.1,27.1H27v1.5h3.1V27.1L30.1,27.1z M35.2,27.1h-3.1
	v1.5h3.1V27.1L35.2,27.1z M40.4,27.1h-3.1v1.5h3.1V27.1L40.4,27.1z M45.5,27.1h-3.1v1.5h3.1V27.1L45.5,27.1z M50.7,27.1h-3.1v1.5
	h3.1V27.1L50.7,27.1z M55.8,27.1h-3.1v1.5h3.1V27.1L55.8,27.1z M60.9,27.1h-3.1v1.5h3.1V27.1L60.9,27.1z M66.1,27.1H63v1.5h3.1V27.1
	L66.1,27.1z M71.2,27.1h-3.1v1.5h3.1V27.1L71.2,27.1z M76.4,27.1h-3.1v1.5h3.1V27.1L76.4,27.1z M81.5,27.1h-3.1v1.5h3.1V27.1
	L81.5,27.1z M85.7,26.2c-0.7,0.4-1.5,0.7-2.4,0.8l0.2,1.5l0,0l0,0l0,0l0,0l0,0l0,0l0,0l0,0l0,0l0,0l0,0l0,0l0,0l0,0l0,0l0,0l0,0l0,0
	l0,0l0,0l0,0l0,0l0,0l0,0l0,0l0,0l0,0l0,0l0,0l0,0c0.4-0.1,0.8-0.2,1.2-0.3l0,0l0,0l0,0h0.1l0,0l0,0l0,0l0,0l0,0l0,0l0,0l0,0l0,0
	l0,0l0,0l0,0l0,0l0,0l0,0l0,0l0,0l0,0l0,0l0,0l0,0l0,0l0,0l0,0l0,0l0,0l0,0l0,0l0,0l0,0l0,0l0,0l0,0l0,0l0,0l0,0l0,0l0,0l0,0l0,0
	l0,0l0,0l0,0l0,0l0,0l0,0l0,0l0,0l0,0l0,0l0,0l0,0l0,0l0,0l0,0l0,0l0,0l0,0l0,0l0,0l0,0l0,0l0,0l0,0l0,0l0,0l0,0l0,0
	c0.4-0.2,0.8-0.4,1.2-0.6l0,0l0,0l0,0l0,0l0,0l0,0l0,0l0,0l0,0l0,0l0,0l0,0l0,0l0,0l0,0l0,0l0,0L85.7,26.2L85.7,26.2z M88.4,23.1
	c-0.3,0.8-0.8,1.5-1.4,2.1l1.1,1.1c0.2-0.2,0.3-0.3,0.5-0.5l0,0l0,0l0,0l0,0l0,0l0,0l0,0l0,0l0,0l0,0l0,0l0,0l0,0l0,0l0,0l0,0l0,0
	l0,0l0,0l0,0l0,0l0,0l0,0l0,0l0,0l0,0l0,0l0,0l0,0l0,0l0,0l0,0l0,0l0,0l0,0l0,0l0,0l0,0l0,0l0,0l0,0l0,0l0,0l0,0l0,0l0,0l0,0l0,0
	l0,0l0,0l0,0l0,0l0,0l0,0l0,0l0,0l0,0l0,0l0,0l0,0l0,0l0,0l0,0l0,0l0,0l0,0l0,0l0,0l0,0l0,0l0,0l0,0l0,0l0,0l0,0l0,0l0,0l0,0l0,0
	l0,0l0,0l0,0l0,0l0,0l0,0l0,0l0,0l0,0l0,0l0,0l0,0l0,0l0,0l0,0l0,0l0,0l0,0l0,0l0,0l0,0l0,0l0,0l0,0l0,0l0,0l0,0l0,0l0,0l0,0l0,0
	l0,0l0,0l0,0l0,0l0,0l0,0l0,0l0,0l0,0l0,0l0,0l0,0l0,0l0,0l0,0l0,0l0,0l0,0l0,0l0,0l0,0l0,0l0,0l0,0l0,0l0,0l0,0l0,0l0,0l0,0l0,0
	l0,0l0,0l0,0l0,0l0,0l0,0l0,0l0,0l0,0l0,0l0,0l0,0l0,0l0,0l0,0l0,0l0,0l0,0l0,0l0,0l0,0l0,0l0,0l0,0c0.4-0.5,0.7-1,0.9-1.6
	L88.4,23.1L88.4,23.1z M90.5,18.6H89v1.9c0,0.3,0,0.6-0.1,0.9l1.5,0.2c0-0.1,0-0.1,0-0.2l0,0l0,0l0,0l0,0l0,0l0,0l0,0l0,0l0,0l0,0
	l0,0l0,0l0,0l0,0l0,0l0,0l0,0l0,0l0,0l0,0l0,0l0,0l0,0l0,0l0,0l0,0l0,0l0,0l0,0l0,0l0,0l0,0l0,0l0,0l0,0l0,0l0,0l0,0l0,0l0,0l0,0
	l0,0l0,0l0,0l0,0l0,0l0,0l0,0l0,0l0,0l0,0l0,0l0,0l0,0l0,0l0,0l0,0l0,0l0,0l0,0l0,0l0,0l0,0l0,0l0,0l0,0l0,0l0,0l0,0l0,0l0,0l0,0
	l0,0l0,0l0,0l0,0l0,0l0,0l0,0l0,0l0,0l0,0l0,0l0,0l0,0l0,0l0,0l0,0l0,0l0,0l0,0l0,0l0,0l0,0l0,0l0,0l0,0l0,0l0,0l0,0l0,0l0,0l0,0
	l0,0l0,0l0,0l0,0l0,0l0,0l0,0l0,0l0,0l0,0l0,0l0,0l0,0l0,0l0,0l0,0l0,0l0,0l0,0l0,0l0,0l0,0l0,0l0,0l0,0l0,0l0,0l0,0l0,0l0,0l0,0
	l0,0l0,0l0,0l0,0l0,0l0,0l0,0l0,0l0,0l0,0l0,0l0,0l0,0l0,0l0,0l0,0l0,0l0,0l0,0l0,0l0,0l0,0l0,0l0,0l0,0l0,0l0,0l0,0l0,0l0,0l0,0
	l0,0l0,0l0,0l0,0l0,0l0,0l0,0l0,0l0,0l0,0l0,0l0,0l0,0l0,0l0,0l0,0l0,0l0,0l0,0l0,0l0,0l0,0l0,0l0,0l0,0l0,0l0,0l0,0l0,0l0,0l0,0
	l0,0l0,0l0,0l0,0L90.5,18.6L90.5,18.6z M90.5,13.4H89v3.1h1.5V13.4L90.5,13.4z M90.3,8.2l-1.5,0.2C88.9,8.8,89,9.2,89,9.5v1.8h1.5
	V9.5l0,0l0,0l0,0l0,0l0,0l0,0l0,0l0,0l0,0l0,0l0,0l0,0l0,0l0,0l0,0l0,0l0,0l0,0l0,0l0,0l0,0l0,0l0,0l0,0l0,0l0,0l0,0l0,0l0,0l0,0
	l0,0l0,0l0,0l0,0l0,0l0,0l0,0l0,0l0,0l0,0l0,0l0,0l0,0l0,0l0,0l0,0l0,0l0,0l0,0l0,0l0,0l0,0l0,0l0,0l0,0l0,0l0,0l0,0l0,0l0,0l0,0
	l0,0l0,0l0,0l0,0l0,0l0,0l0,0l0,0l0,0l0,0l0,0l0,0l0,0l0,0l0,0l0,0l0,0l0,0l0,0l0,0l0,0l0,0l0,0l0,0l0,0l0,0l0,0l0,0l0,0l0,0l0,0
	l0,0l0,0C90.4,8.8,90.4,8.5,90.3,8.2L90.3,8.2z M88,3.8l-1,1.1c0.6,0.6,1.1,1.3,1.4,2l1.4-0.6C89.3,5.3,88.7,4.5,88,3.8L88,3.8z
	 M83.4,1.6l-0.2,1.5c0.8,0.1,1.6,0.4,2.4,0.8l0.7-1.3C85.5,2.1,84.5,1.7,83.4,1.6L83.4,1.6z"/>
</svg>
