<?xml version="1.0" encoding="utf-8"?>
<!-- Generator: Adobe Illustrator 15.0.0, SVG Export Plug-In  -->
<!DOCTYPE svg PUBLIC "-//W3C//DTD SVG 1.1//EN" "http://www.w3.org/Graphics/SVG/1.1/DTD/svg11.dtd" [
	<!ENTITY ns_flows "http://ns.adobe.com/Flows/1.0/">
]>
<svg version="1.1"
	 xmlns="http://www.w3.org/2000/svg" xmlns:xlink="http://www.w3.org/1999/xlink" xmlns:a="http://ns.adobe.com/AdobeSVGViewerExtensions/3.0/"
	 x="0px" y="0px" width="260px" height="84px" viewBox="0 0 260 84" overflow="visible" enable-background="new 0 0 260 84"
	 xml:space="preserve">
<defs>
</defs>
<linearGradient id="SVGID_1_" gradientUnits="userSpaceOnUse" x1="476.0508" y1="-323.4995" x2="476.0508" y2="-281.4995" gradientTransform="matrix(1 0 0 -1 -346 -239.5)">
	<stop  offset="0" style="stop-color:#D60080"/>
	<stop  offset="0.3" style="stop-color:#EC008C"/>
	<stop  offset="0.4268" style="stop-color:#EC098E"/>
	<stop  offset="0.6335" style="stop-color:#ED2194"/>
	<stop  offset="0.893" style="stop-color:#EE499D"/>
	<stop  offset="1" style="stop-color:#EF5BA1"/>
</linearGradient>
<path fill="url(#SVGID_1_)" d="M260,74.5c0,5.3-4.3,9.5-9.6,9.5H9.6C4.3,84,0,79.7,0,74.5v-23C0,46.3,4.3,42,9.6,42h240.9
	c5.3,0,9.6,4.3,9.6,9.5L260,74.5L260,74.5z"/>
<path fill="#F484BE" d="M250.4,43.5h-3.1V46h3.1V43.5L250.4,43.5L250.4,43.5z M245.3,43.5h-3.1V46h3.1V43.5L245.3,43.5z M240.2,43.5
	h-3.1V46h3.1V43.5L240.2,43.5z M235,43.5h-3.1V46h3.1V43.5L235,43.5z M229.9,43.5h-3.1V46h3.1V43.5L229.9,43.5z M224.7,43.5h-3.1V46
	h3.1V43.5L224.7,43.5z M219.6,43.5h-3.1V46h3.1V43.5L219.6,43.5z M214.4,43.5h-3.1V46h3.1V43.5L214.4,43.5z M209.3,43.5h-3.1V46h3.1
	V43.5L209.3,43.5z M204.2,43.5h-3.1V46h3.1V43.5L204.2,43.5z M199,43.5h-3.1V46h3.1V43.5L199,43.5z M193.9,43.5h-3.1V46h3.1V43.5
	L193.9,43.5z M188.7,43.5h-3.1V46h3.1V43.5L188.7,43.5z M183.6,43.5h-3.1V46h3.1V43.5L183.6,43.5z M178.4,43.5h-3.1V46h3.1V43.5
	L178.4,43.5z M173.3,43.5h-3.1V46h3.1V43.5L173.3,43.5z M168.1,43.5H165V46h3.1V43.5L168.1,43.5z M163,43.5h-3.1V46h3.1V43.5
	L163,43.5z M157.9,43.5h-3.1V46h3.1V43.5L157.9,43.5z M152.7,43.5h-3.1V46h3.1V43.5L152.7,43.5z M147.6,43.5h-3.1V46h3.1V43.5
	L147.6,43.5z M142.4,43.5h-3.1V46h3.1V43.5L142.4,43.5z M137.3,43.5h-3.1V46h3.1V43.5L137.3,43.5z M132.1,43.5H129V46h3.1V43.5
	L132.1,43.5z M127,43.5h-3.1V46h3.1V43.5L127,43.5z M121.9,43.5h-3.1V46h3.1V43.5L121.9,43.5z M116.7,43.5h-3.1V46h3.1V43.5
	L116.7,43.5z M111.6,43.5h-3.1V46h3.1V43.5L111.6,43.5z M106.4,43.5h-3.1V46h3.1V43.5L106.4,43.5z M101.3,43.5h-3.1V46h3.1V43.5
	L101.3,43.5z M96.1,43.5H93V46h3.1V43.5L96.1,43.5z M91,43.5h-3.1V46H91V43.5L91,43.5z M85.9,43.5h-3.1V46h3.1V43.5L85.9,43.5z
	 M80.7,43.5h-3.1V46h3.1V43.5L80.7,43.5z M75.6,43.5h-3.1V46h3.1V43.5L75.6,43.5z M70.4,43.5h-3.1V46h3.1V43.5L70.4,43.5z
	 M65.3,43.5h-3.1V46h3.1V43.5L65.3,43.5z M60.1,43.5H57V46h3.1V43.5L60.1,43.5z M55,43.5h-3.1V46H55V43.5L55,43.5z M49.8,43.5h-3.1
	V46h3.1V43.5L49.8,43.5z M44.7,43.5h-3.1V46h3.1V43.5L44.7,43.5z M39.6,43.5h-3.1V46h3.1V43.5L39.6,43.5z M34.4,43.5h-3.1V46h3.1
	V43.5L34.4,43.5z M29.3,43.5h-3.1V46h3.1V43.5L29.3,43.5z M24.1,43.5H21V46h3.1V43.5L24.1,43.5z M19,43.5h-3.1V46H19V43.5L19,43.5z
	 M13.8,43.5h-3.1V46h3.1V43.5L13.8,43.5z M8.7,43.6c-0.3,0-0.5,0.1-0.8,0.1l0,0l0,0l0,0l0,0l0,0l0,0l0,0l0,0l0,0l0,0l0,0l0,0l0,0
	l0,0l0,0l0,0l0,0l0,0l0,0l0,0l0,0l0,0l0,0l0,0l0,0l0,0l0,0l0,0l0,0l0,0l0,0l0,0l0,0l0,0l0,0l0,0l0,0l0,0l0,0H7.8l0,0l0,0l0,0l0,0
	l0,0l0,0l0,0l0,0l0,0l0,0l0,0l0,0l0,0l0,0l0,0l0,0l0,0l0,0l0,0l0,0l0,0l0,0l0,0l0,0l0,0l0,0l0,0l0,0l0,0l0,0l0,0l0,0l0,0l0,0l0,0
	l0,0l0,0l0,0l0,0l0,0l0,0l0,0l0,0l0,0l0,0l0,0l0,0l0,0l0,0l0,0l0,0l0,0l0,0l0,0l0,0l0,0l0,0l0,0l0,0l0,0l0,0l0,0l0,0l0,0l0,0l0,0
	l0,0l0,0l0,0l0,0l0,0l0,0l0,0l0,0l0,0l0,0l0,0l0,0l0,0l0,0l0,0l0,0l0,0l0,0l0,0l0,0l0,0l0,0l0,0l0,0l0,0l0,0l0,0l0,0l0,0l0,0l0,0
	l0,0l0,0l0,0l0,0l0,0l0,0l0,0l0,0l0,0l0,0l0,0l0,0l0,0l0,0l0,0l0,0l0,0l0,0l0,0l0,0l0,0l0,0l0,0l0,0l0,0l0,0l0,0l0,0l0,0l0,0l0,0
	l0,0l0,0l0,0l0,0l0,0l0,0l0,0l0,0l0,0l0,0l0,0l0,0l0,0l0,0l0,0l0,0l0,0l0,0l0,0c-0.1,0-0.1,0-0.2,0.1l0,0l0,0l0,0l0,0l0,0
	c-1.4,0.5-1.6,0.6-1.8,0.7L7,46.7c0.6-0.3,1.3-0.5,2-0.6L8.7,43.6L8.7,43.6z M4.1,45.7c-0.7,0.7-1.4,1.5-1.8,2.5l2.3,1.1
	c0.3-0.7,0.7-1.3,1.2-1.8L4.1,45.7L4.1,45.7z M1.7,50.1c-0.1,0.4-0.1,0.8-0.2,1.2l0,0l0,0l0,0l0,0l0,0l0,0l0,0l0,0l0,0l0,0l0,0l0,0
	l0,0l0,0l0,0l0,0l0,0l0,0l0,0l0,0l0,0l0,0l0,0l0,0l0,0l0,0l0,0l0,0l0,0l0,0l0,0l0,0l0,0l0,0l0,0l0,0V53H4v-1.5c0-0.3,0-0.7,0.1-1
	L1.7,50.1L1.7,50.1z M4,55.3H1.5v3.1H4V55.3L4,55.3z M4,60.4H1.5v3.1H4V60.4L4,60.4z M4,65.5H1.5v3.1H4V65.5L4,65.5z M4,70.7H1.5
	v3.1H4V70.7L4,70.7z M4.1,75.4l-2.5,0.4c0,0.2,0.1,0.4,0.1,0.6l0,0l0,0l0,0l0,0l0,0l0,0l0,0l0,0l0,0l0,0l0,0l0,0l0,0l0,0l0,0l0,0
	l0,0l0,0l0,0l0,0l0,0l0,0l0,0l0,0l0,0l0,0l0,0l0,0l0,0l0,0l0,0l0,0l0,0l0,0l0,0l0,0l0,0l0,0l0,0l0,0l0,0l0,0l0,0l0,0
	c0.2,0.7,0.5,1.4,0.9,2l2.1-1.3C4.5,76.8,4.2,76.1,4.1,75.4L4.1,75.4z M5.8,78.5l-1.7,1.8c0,0,0,0,0.1,0.1l0,0l0,0l0,0l0,0l0,0l0,0
	l0,0l0,0l0,0l0,0l0,0l0,0l0,0l0,0l0,0l0,0l0,0l0,0l0,0l0,0l0,0l0,0l0,0l0,0l0,0l0,0l0,0l0,0l0,0l0,0l0,0l0,0l0,0l0,0l0,0l0,0l0,0
	l0,0l0,0l0,0l0,0l0,0l0,0l0,0l0,0l0,0l0,0l0,0l0,0l0,0l0,0l0,0l0,0l0,0l0,0l0,0l0,0l0,0l0,0l0,0l0,0l0,0l0,0l0,0l0,0l0,0l0,0l0,0
	l0,0l0,0l0,0l0,0l0,0l0,0l0,0l0,0l0,0l0,0l0,0l0,0l0,0l0,0l0,0l0,0l0,0l0,0l0,0l0,0l0,0l0,0l0,0l0,0l0,0c0.5,0.4,1,0.7,1.6,1l0,0
	l0,0l0,0l0,0l0,0l0,0l0,0l0,0l0,0l0,0l0,0l0,0l0,0l0,0l0,0l0,0l0,0l0,0l0,0l0,0l0,0l0,0l0,0l0,0l0,0l0,0l0,0l0,0l0,0l0,0l0,0l0,0
	l0,0l0,0l0,0l0,0l0,0l0,0c0.1,0,0.2,0.1,0.3,0.1L7,79.2C6.9,79.3,6.3,78.9,5.8,78.5L5.8,78.5z M8.9,79.9l-0.3,2.5l0,0l0,0l0,0l0,0
	l0,0l0,0l0,0l0,0l0,0l0,0l0,0l0,0l0,0l0,0l0,0l0,0l0,0l0,0l0,0l0,0l0,0c0,0,0,0,0.1,0l0,0l0,0l0,0l0,0l0,0l0,0l0,0h0.1l0,0l0,0l0,0
	l0,0l0,0l0,0l0,0c0,0,0,0,0.1,0l0,0l0,0l0,0l0,0l0,0l0,0l0,0l0,0l0,0l0,0l0,0l0,0l0,0l0,0l0,0l0,0l0,0l0,0l0,0l0,0l0,0l0,0l0,0l0,0
	l0,0l0,0l0,0l0,0l0,0l0,0l0,0l0,0l0,0l0,0l0,0l0,0l0,0l0,0l0,0l0,0l0,0l0,0l0,0l0,0l0,0l0,0l0,0l0,0l0,0l0,0l0,0l0,0l0,0l0,0l0,0
	l0,0h2.2V80H9.6C9.3,80,9.1,79.9,8.9,79.9L8.9,79.9z M16.9,80h-3.1v2.5h3.1V80L16.9,80z M22,80h-3.1v2.5H22V80L22,80z M27.2,80h-3.1
	v2.5h3.1V80L27.2,80z M32.3,80h-3.1v2.5h3.1V80L32.3,80z M37.4,80h-3.1v2.5h3.1V80L37.4,80z M42.6,80h-3.1v2.5h3.1V80L42.6,80z
	 M47.7,80h-3.1v2.5h3.1V80L47.7,80z M52.9,80h-3.1v2.5h3.1V80L52.9,80z M58,80h-3.1v2.5H58V80L58,80z M63.2,80h-3.1v2.5h3.1V80
	L63.2,80z M68.3,80h-3.1v2.5h3.1V80L68.3,80z M73.4,80h-3.1v2.5h3.1V80L73.4,80z M78.6,80h-3.1v2.5h3.1V80L78.6,80z M83.7,80h-3.1
	v2.5h3.1V80L83.7,80z M88.9,80h-3.1v2.5h3.1V80L88.9,80z M94,80h-3.1v2.5H94V80L94,80z M99.2,80h-3.1v2.5h3.1V80L99.2,80z M104.3,80
	h-3.1v2.5h3.1V80L104.3,80z M109.5,80h-3.1v2.5h3.1V80L109.5,80z M114.6,80h-3.1v2.5h3.1V80L114.6,80z M119.7,80h-3.1v2.5h3.1V80
	L119.7,80z M124.9,80h-3.1v2.5h3.1V80L124.9,80z M130,80h-3.1v2.5h3.1V80L130,80z M135.2,80h-3.1v2.5h3.1V80L135.2,80z M140.3,80
	h-3.1v2.5h3.1V80L140.3,80z M145.5,80h-3.1v2.5h3.1V80L145.5,80z M150.6,80h-3.1v2.5h3.1V80L150.6,80z M155.7,80h-3.1v2.5h3.1V80
	L155.7,80z M160.9,80h-3.1v2.5h3.1V80L160.9,80z M166,80h-3.1v2.5h3.1V80L166,80z M171.2,80h-3.1v2.5h3.1V80L171.2,80z M176.3,80
	h-3.1v2.5h3.1V80L176.3,80z M181.5,80h-3.1v2.5h3.1V80L181.5,80z M186.6,80h-3.1v2.5h3.1V80L186.6,80z M191.7,80h-3.1v2.5h3.1V80
	L191.7,80z M196.9,80h-3.1v2.5h3.1V80L196.9,80z M202,80h-3.1v2.5h3.1V80L202,80z M207.2,80h-3.1v2.5h3.1V80L207.2,80z M212.3,80
	h-3.1v2.5h3.1V80L212.3,80z M217.5,80h-3.1v2.5h3.1V80L217.5,80z M222.6,80h-3.1v2.5h3.1V80L222.6,80z M227.8,80h-3.1v2.5h3.1V80
	L227.8,80z M232.9,80h-3.1v2.5h3.1V80L232.9,80z M238,80h-3v2.5h3.1L238,80L238,80z M243.2,80h-3.1v2.5h3.1V80L243.2,80z M248.3,80
	h-3.1v2.5h3.1V80L248.3,80z M252.5,79.6c-0.6,0.3-1.3,0.4-2,0.4h-0.1v2.5h0.1l0,0l0,0l0,0l0,0l0,0l0,0l0,0l0,0l0,0l0,0l0,0l0,0l0,0
	l0,0l0,0l0,0l0,0l0,0l0,0l0,0l0,0l0,0l0,0l0,0l0,0l0,0l0,0l0,0l0,0l0,0l0,0l0,0l0,0l0,0l0,0l0,0l0,0l0,0l0,0l0,0l0,0l0,0l0,0l0,0
	l0,0l0,0l0,0l0,0l0,0l0,0l0,0l0,0l0,0l0,0l0,0l0,0l0,0l0,0l0,0l0,0l0,0l0,0l0,0l0,0l0,0l0,0l0,0l0,0l0,0l0,0l0,0l0,0l0,0l0,0l0,0
	l0,0l0,0l0,0l0,0l0,0l0,0l0,0l0,0l0,0l0,0l0,0l0,0l0,0l0,0l0,0l0,0l0,0l0,0l0,0l0,0l0,0l0,0l0,0l0,0l0,0l0,0l0,0l0,0l0,0l0,0l0,0
	l0,0l0,0l0,0l0,0l0,0l0,0l0,0l0,0l0,0l0,0l0,0l0,0l0,0l0,0l0,0l0,0l0,0l0,0l0,0l0,0l0,0l0,0l0,0l0,0l0,0l0,0l0,0l0,0l0,0l0,0l0,0
	l0,0l0,0l0,0l0,0l0,0l0,0l0,0l0,0l0,0l0,0l0,0l0,0l0,0l0,0l0,0l0,0l0,0l0,0l0,0l0,0l0,0l0,0l0,0l0,0l0,0l0,0l0,0l0,0l0,0l0,0l0,0
	l0,0l0,0l0,0l0,0l0,0l0,0l0,0l0,0l0,0l0,0l0,0l0,0l0,0l0,0l0,0l0,0l0,0l0,0l0,0l0,0l0,0l0,0l0,0l0,0l0,0l0,0l0,0l0,0l0,0l0,0l0,0
	l0,0l0,0l0,0l0,0l0,0l0,0l0,0l0,0l0,0l0,0l0,0l0,0l0,0l0,0l0,0l0,0l0,0l0,0l0,0l0,0l0,0l0,0l0,0l0,0c0,0,0,0,0.1,0l0,0l0,0l0,0l0,0
	l0,0l0,0l0,0l0,0l0,0l0,0l0,0l0,0l0,0l0,0l0,0l0,0l0,0l0,0l0,0l0,0l0,0l0,0l0,0h0.1l0,0l0,0l0,0l0,0l0,0l0,0l0,0l0,0l0,0l0,0l0,0
	l0,0l0,0l0,0l0,0l0,0l0,0h0.1l0,0l0,0l0,0l0,0l0,0l0,0l0,0l0,0l0,0l0,0l0,0c0.3-0.1,0.6-0.2,0.9-0.3L252.5,79.6L252.5,79.6z
	 M255.1,77.3c-0.4,0.6-0.9,1.1-1.4,1.6l1.5,2c0.3-0.2,0.6-0.5,0.9-0.7l0,0l0,0l0,0l0,0l0,0l0,0l0,0l0,0l0,0l0,0l0,0l0,0l0,0l0,0l0,0
	l0,0l0,0l0,0l0,0l0,0l0,0l0,0l0,0l0,0l0,0l0,0l0,0l0,0l0,0l0,0l0,0l0,0l0,0l0,0l0,0l0,0l0,0l0,0l0,0l0,0l0,0l0,0l0,0l0,0l0,0l0,0
	l0.1-0.1l0,0l0.1-0.1l0,0l0,0l0,0l0,0l0,0l0,0l0,0l0,0l0,0l0,0c0.3-0.3,0.5-0.7,0.7-1L255.1,77.3L255.1,77.3z M258.5,73.7H256v0.7
	c0,0.5-0.1,1.1-0.2,1.6l2.4,0.7c0.1-0.2,0.1-0.4,0.1-0.5l0,0l0,0l0,0l0,0l0,0l0,0l0,0l0,0l0,0l0,0l0,0l0,0l0,0l0,0l0,0l0,0l0,0l0,0
	l0,0l0,0l0,0l0,0l0,0l0,0l0,0l0,0l0,0l0,0l0,0l0,0l0,0l0,0l0,0l0,0l0,0l0,0l0,0l0,0l0,0l0,0l0,0l0,0l0,0l0,0l0,0l0,0l0,0l0,0l0,0
	l0,0l0,0l0,0l0,0l0,0l0,0l0,0l0,0l0,0l0,0l0,0l0,0l0,0l0,0l0,0l0,0l0,0l0,0l0,0l0,0l0,0l0,0l0,0l0,0l0,0l0,0l0,0l0,0l0,0l0,0l0,0
	l0,0l0,0l0,0l0,0l0,0l0,0l0,0l0,0l0,0l0,0l0,0l0,0l0,0l0,0l0,0l0,0l0,0l0,0l0,0l0,0l0,0l0,0l0,0l0,0l0,0l0,0l0,0l0,0l0,0l0,0l0,0
	l0,0l0,0l0,0l0,0l0,0l0,0l0,0l0,0l0,0l0,0l0,0l0,0l0,0l0,0l0,0l0,0l0,0l0,0l0,0l0,0l0,0l0,0l0,0l0,0l0,0l0,0l0,0l0,0l0,0l0,0l0,0
	l0,0l0,0l0,0l0,0l0,0l0,0l0,0l0,0l0,0l0,0l0,0l0,0l0,0l0,0l0,0l0,0l0,0l0,0l0,0l0,0l0,0l0,0l0,0l0,0l0,0l0,0l0,0l0,0l0,0l0,0l0,0
	l0,0l0,0l0,0l0,0l0,0l0,0l0,0l0,0l0,0l0,0l0,0l0,0l0,0l0,0l0,0l0,0l0,0l0,0l0,0l0,0l0,0l0,0l0,0l0,0l0,0l0,0l0,0l0,0l0,0l0,0l0,0
	l0,0l0,0l0,0l0,0l0,0l0,0l0,0l0,0l0,0l0,0l0,0l0,0l0,0l0,0l0,0l0,0l0,0l0,0l0,0l0,0l0,0l0,0l0,0l0,0l0,0l0,0l0,0l0,0l0,0l0,0l0,0
	l0,0l0,0l0,0l0,0l0,0l0,0l0,0l0,0l0,0l0,0l0,0l0,0l0,0v-2.5H258.5z M258.5,68.6H256v3.1h2.5V68.6L258.5,68.6z M258.5,63.4H256v3.1
	h2.5V63.4L258.5,63.4z M258.5,58.3H256v3.1h2.5V58.3L258.5,58.3z M258.5,53.1H256v3.1h2.5V53.1L258.5,53.1z M257.7,48.1l-2.3,1.1
	c0.3,0.6,0.5,1.3,0.5,2l2.5-0.1c0-0.2,0-0.3,0-0.5l0,0l0,0l0,0l0,0l0,0l0,0l0,0l0,0l0,0l0,0l0,0l0,0l0,0l0,0l0,0l0,0l0,0l0,0l0,0
	l0,0l0,0l0,0l0,0l0,0l0,0l0,0l0,0l0,0l0,0l0,0l0,0l0,0l0,0l0,0C258.3,49.6,258,48.8,257.7,48.1L257.7,48.1z M254.2,44.5l-1.2,2.2
	c0.6,0.3,1.2,0.8,1.6,1.3l1.9-1.6c-0.1-0.1-0.3-0.3-0.4-0.4l0,0l0,0l0,0l0,0l0,0l0,0l0,0l0,0l0,0l0,0l0,0l0,0l0,0l0,0l0,0l0,0l0,0
	l0,0l0,0l0,0l0,0l0,0l0,0l0,0l0,0l0,0l0,0l0,0l0,0l0,0l0,0l0,0l0,0l0,0l0,0l0,0l0,0l0,0l0,0l0,0l0,0l0,0l0,0l0,0l0,0l0,0l0,0l0,0
	l0,0l0,0l0,0l0,0l0,0l0,0l0,0l0,0l0,0l0,0l0,0l0,0l0,0l0,0l0,0l0,0l0,0l0,0l0,0l0,0l0,0l0,0l0,0l0,0l0,0l0,0
	C255.4,45.2,254.8,44.8,254.2,44.5L254.2,44.5L254.2,44.5L254.2,44.5L254.2,44.5L254.2,44.5L254.2,44.5L254.2,44.5L254.2,44.5
	L254.2,44.5L254.2,44.5L254.2,44.5L254.2,44.5L254.2,44.5L254.2,44.5z M250.4,43.5V46c0.4,0,0.8,0,1.2,0.1l0.6-2.4
	c-0.4-0.1-0.9-0.2-1.3-0.2l0,0l0,0l0,0l0,0l0,0l0,0l0,0l0,0l0,0l0,0l0,0l0,0l0,0l0,0l0,0l0,0l0,0l0,0l0,0l0,0l0,0l0,0l0,0l0,0l0,0
	l0,0l0,0l0,0l0,0l0,0l0,0l0,0l0,0l0,0l0,0l0,0l0,0l0,0l0,0l0,0l0,0l0,0l0,0l0,0l0,0l0,0l0,0l0,0l0,0l0,0l0,0l0,0
	C250.5,43.5,250.5,43.5,250.4,43.5C250.5,43.5,250.5,43.5,250.4,43.5C250.5,43.5,250.5,43.5,250.4,43.5
	C250.5,43.5,250.5,43.5,250.4,43.5C250.5,43.5,250.5,43.5,250.4,43.5C250.5,43.5,250.5,43.5,250.4,43.5
	C250.5,43.5,250.5,43.5,250.4,43.5C250.5,43.5,250.5,43.5,250.4,43.5C250.5,43.5,250.5,43.5,250.4,43.5
	C250.5,43.5,250.5,43.5,250.4,43.5C250.5,43.5,250.5,43.5,250.4,43.5C250.5,43.5,250.5,43.5,250.4,43.5
	C250.5,43.5,250.5,43.5,250.4,43.5C250.5,43.5,250.4,43.5,250.4,43.5L250.4,43.5L250.4,43.5z"/>
<path fill="#8A1654" d="M250.4,43.5h-3.1V45h3.1V43.5L250.4,43.5L250.4,43.5z M245.3,43.5h-3.1V45h3.1V43.5L245.3,43.5z M240.2,43.5
	h-3.1V45h3.1V43.5L240.2,43.5z M235,43.5h-3.1V45h3.1V43.5L235,43.5z M229.9,43.5h-3.1V45h3.1V43.5L229.9,43.5z M224.7,43.5h-3.1V45
	h3.1V43.5L224.7,43.5z M219.6,43.5h-3.1V45h3.1V43.5L219.6,43.5z M214.4,43.5h-3.1V45h3.1V43.5L214.4,43.5z M209.3,43.5h-3.1V45h3.1
	V43.5L209.3,43.5z M204.2,43.5h-3.1V45h3.1V43.5L204.2,43.5z M199,43.5h-3.1V45h3.1V43.5L199,43.5z M193.9,43.5h-3.1V45h3.1V43.5
	L193.9,43.5z M188.7,43.5h-3.1V45h3.1V43.5L188.7,43.5z M183.6,43.5h-3.1V45h3.1V43.5L183.6,43.5z M178.4,43.5h-3.1V45h3.1V43.5
	L178.4,43.5z M173.3,43.5h-3.1V45h3.1V43.5L173.3,43.5z M168.1,43.5H165V45h3.1V43.5L168.1,43.5z M163,43.5h-3.1V45h3.1V43.5
	L163,43.5z M157.9,43.5h-3.1V45h3.1V43.5L157.9,43.5z M152.7,43.5h-3.1V45h3.1V43.5L152.7,43.5z M147.6,43.5h-3.1V45h3.1V43.5
	L147.6,43.5z M142.4,43.5h-3.1V45h3.1V43.5L142.4,43.5z M137.3,43.5h-3.1V45h3.1V43.5L137.3,43.5z M132.1,43.5H129V45h3.1V43.5
	L132.1,43.5z M127,43.5h-3.1V45h3.1V43.5L127,43.5z M121.9,43.5h-3.1V45h3.1V43.5L121.9,43.5z M116.7,43.5h-3.1V45h3.1V43.5
	L116.7,43.5z M111.6,43.5h-3.1V45h3.1V43.5L111.6,43.5z M106.4,43.5h-3.1V45h3.1V43.5L106.4,43.5z M101.3,43.5h-3.1V45h3.1V43.5
	L101.3,43.5z M96.1,43.5H93V45h3.1V43.5L96.1,43.5z M91,43.5h-3.1V45H91V43.5L91,43.5z M85.9,43.5h-3.1V45h3.1V43.5L85.9,43.5z
	 M80.7,43.5h-3.1V45h3.1V43.5L80.7,43.5z M75.6,43.5h-3.1V45h3.1V43.5L75.6,43.5z M70.4,43.5h-3.1V45h3.1V43.5L70.4,43.5z
	 M65.3,43.5h-3.1V45h3.1V43.5L65.3,43.5z M60.1,43.5H57V45h3.1V43.5L60.1,43.5z M55,43.5h-3.1V45H55V43.5L55,43.5z M49.8,43.5h-3.1
	V45h3.1V43.5L49.8,43.5z M44.7,43.5h-3.1V45h3.1V43.5L44.7,43.5z M39.6,43.5h-3.1V45h3.1V43.5L39.6,43.5z M34.4,43.5h-3.1V45h3.1
	V43.5L34.4,43.5z M29.3,43.5h-3.1V45h3.1V43.5L29.3,43.5z M24.1,43.5H21V45h3.1V43.5L24.1,43.5z M19,43.5h-3.1V45H19V43.5L19,43.5z
	 M13.8,43.5h-3.1V45h3.1V43.5L13.8,43.5z M8.7,43.6C8.1,43.7,7.6,43.8,7,44l0,0l0,0l0,0l0,0l0,0l0,0l0,0l0,0l0,0l0,0l0,0l0,0l0,0
	l0,0l0,0l0,0l0,0l0,0l0,0l0,0l0,0l0,0l0,0l0,0l0,0l0,0l0,0l0,0l0,0l0,0l0,0l0,0l0,0l0,0l0,0l0,0l0,0l0,0l0,0l0,0l0,0l0,0l0,0l0,0
	l0,0l0,0l0,0l0,0l0,0l0,0l0,0l0,0l0,0l0,0l0,0l0,0l0,0l0,0c-0.1,0-0.1,0-0.2,0.1l0,0l0,0l0,0l0,0l0,0l0,0l0,0l0,0l0,0l0,0l0,0l0,0
	l0,0l0,0l0,0l0,0l0,0l0,0l0,0l0,0l0,0l0,0l0,0l0,0l0,0l0,0l0,0l0,0l0,0l0,0l0,0l0,0l0,0l0,0l0,0l0,0l0,0l0,0l0,0l0,0l0,0l0,0l0,0
	l0,0l0,0l0,0l0,0l0,0l0,0l0,0l0,0l0,0l0,0l0,0l0,0l0,0l0,0l0,0l0,0l0,0l0,0l0,0l0,0l0,0l0,0l0,0l0,0l0,0l0,0l0,0l0,0l0,0l0,0l0,0
	l0,0l0,0l0,0l0,0l0,0l0,0l0,0l0,0l0,0l0,0l0,0l0,0l0,0l0,0l0,0l0,0l0,0l0,0l0,0l0,0l0,0l0,0l0,0l0,0l0,0l0,0l0,0l0,0
	c-0.1,0-0.1,0.1-0.2,0.1l0.7,1.3c-0.1-0.1,0.7-0.3,1.6-0.4L8.7,43.6L8.7,43.6z M4.1,45.7L4.1,45.7C4,45.7,4,45.7,4.1,45.7
	C4,45.7,4,45.7,4.1,45.7C4,45.7,4,45.7,4.1,45.7C4,45.8,4,45.8,4.1,45.7C4,45.8,4,45.8,4.1,45.7C4,45.8,4,45.8,4.1,45.7
	C4,45.8,4,45.8,4.1,45.7C4,45.8,4,45.8,4.1,45.7C4,45.8,4,45.8,4.1,45.7C4,45.8,4,45.8,4.1,45.7C4,45.8,4,45.8,4.1,45.7
	C4,45.8,4,45.8,4,45.8l0,0l0,0l0,0l0,0l0,0l0,0l0,0l0,0l0,0l0,0l0,0l0,0l0,0l0,0l0,0l0,0l0,0l0,0l0,0l0,0l0,0l0,0l0,0l0,0l0,0l0,0
	l0,0l0,0l0,0l0,0l0,0l0,0l0,0l0,0l0,0l0,0l0,0l0,0l0,0l0,0l0,0l0,0l0,0l0,0l0,0l0,0l0,0l0,0c-0.3,0.3-0.4,0.4-0.4,0.4l0,0
	c-0.1,0.1-0.2,0.2-0.3,0.3l0,0l0,0l0,0l0,0l0,0l0,0l0,0l0,0l0,0l0,0l0,0l0,0l0,0l0,0l0,0l0,0l0,0l0,0l0,0l0,0l0,0l0,0l0,0l0,0l0,0
	l0,0l0,0l0,0l0,0l0,0l0,0l0,0l0,0l0,0l0,0l0,0l0,0l0,0l0,0l0,0l0,0l0,0l0,0l0,0l0,0l0,0l0,0l0,0l0,0l0,0l0,0l0,0l0,0l0,0l0,0l0,0
	l0,0l0,0l0,0l0,0l0,0l0,0l0,0l0,0c-0.5,0.7-0.8,1.2-1,1.7l1.4,0.6c0.3-0.8,0.8-1.4,1.4-2L4.1,45.7L4.1,45.7z M1.7,50.1v0.1l0,0l0,0
	l0,0l0,0l0,0l0,0l0,0l0,0l0,0l0,0l0,0l0,0l0,0l0,0l0,0l0,0l0,0l0,0l0,0l0,0c0,0.2-0.1,0.5-0.1,0.7l0,0l0,0l0,0l0,0l0,0
	c0,0,0,0,0,0.1l0,0l0,0l0,0l0,0l0,0l0,0l0,0l0,0l0,0l0,0l0,0l0,0l0,0l0,0l0,0l0,0l0,0l0,0l0,0l0,0l0,0l0,0l0,0l0,0l0,0l0,0l0,0l0,0
	l0,0l0,0l0,0l0,0l0,0l0,0l0,0l0,0l0,0l0,0l0,0l0,0l0,0l0,0l0,0l0,0l0,0l0,0l0,0l0,0l0,0l0,0l0,0l0,0l0,0l0,0l0,0v1.7H3v-1.2
	c0-0.4,0-0.8,0.1-1.2L1.7,50.1L1.7,50.1z M3,55.3H1.5v3.1H3V55.3L3,55.3z M3,60.4H1.5v3.1H3V60.4L3,60.4z M3,65.5H1.5v3.1H3V65.5
	L3,65.5z M3,70.7H1.5v3.1H3V70.7L3,70.7z M3.1,75.6l-1.5,0.3c0.1,0.7,0.3,1.3,0.6,1.9l0,0l0,0l0,0l0,0l0,0l0,0l0,0l0,0l0,0l0,0l0,0
	l0,0l0,0l0,0l0,0l0,0l0,0l0,0l0,0l0,0l0,0l0,0l0,0l0,0l0,0l0,0l0,0l0,0l0,0l0,0l0,0l0,0l0,0l0,0l0,0l0,0l0,0l0,0l0,0l0,0l0,0l0,0
	l0,0l0,0l0,0l0,0l0,0l0,0l0,0l0,0l0,0l0,0l0,0l0,0l0,0l0,0l0,0l0,0l0,0l0,0l0,0l0,0l0,0l0,0l0,0l0,0l0,0l0,0l0,0l0,0l0,0l0,0l0,0
	l0,0c0.1,0.2,0.2,0.4,0.3,0.6L4,77.9C3.6,77.2,3.3,76.4,3.1,75.6L3.1,75.6z M5.1,79.2l-1,1.1c0.2,0.2,0.4,0.3,0.6,0.5l0,0l0,0l0,0
	l0,0l0,0l0,0l0,0l0,0l0,0l0,0l0,0l0,0l0,0l0,0l0,0l0,0l0,0l0,0l0,0l0,0l0,0l0,0l0,0l0,0l0,0l0,0C5,81,5.4,81.3,5.8,81.5l0,0l0,0l0,0
	l0,0l0,0l0,0l0,0l0,0l0,0l0,0l0,0l0,0l0,0l0,0l0,0l0,0l0,0l0,0l0,0l0,0l0,0l0,0l0,0l0,0l0,0l0,0l0,0l0,0l0,0l0,0l0,0l0,0l0,0l0,0
	l0,0l0,0l0,0l0,0l0,0l0,0l0,0l0,0l0,0l0,0l0,0l0,0l0,0l0,0l0,0l0,0l0,0l0,0l0,0l0,0l0,0l0,0l0,0l0,0l0,0l0,0l0,0l0,0l0,0l0,0l0,0
	l0,0l0,0l0,0l0,0l0,0l0,0l0,0l0,0l0,0l0,0l0,0l0,0l0,0l0,0l0,0l0,0l0,0l0,0l0,0c0.1,0.1,0.2,0.1,0.4,0.1l0.5-1.4
	C6.4,80.2,5.7,79.8,5.1,79.2L5.1,79.2z M8.8,80.9l-0.2,1.5c0.2,0,0.3,0,0.5,0l0,0l0,0l0,0l0,0l0,0l0,0l0,0l0,0l0,0l0,0l0,0l0,0l0,0
	l0,0l0,0l0,0l0,0l0,0l0,0l0,0l0,0l0,0l0,0l0,0l0,0l0,0l0,0l0,0l0,0l0,0l0,0l0,0l0,0l0,0l0,0l0,0l0,0l0,0l0,0l0,0l0,0l0,0l0,0l0,0
	l0,0l0,0l0,0l0,0l0,0l0,0l0,0l0,0l0,0l0,0l0,0l0,0l0,0l0,0l0,0l0,0h2.2V81H9.6C9.3,81,9.1,80.9,8.8,80.9L8.8,80.9z M16.9,81h-3.1
	v1.5h3.1V81L16.9,81z M22,81h-3.1v1.5H22V81L22,81z M27.2,81h-3.1v1.5h3.1V81L27.2,81z M32.3,81h-3.1v1.5h3.1V81L32.3,81z M37.4,81
	h-3.1v1.5h3.1V81L37.4,81z M42.6,81h-3.1v1.5h3.1V81L42.6,81z M47.7,81h-3.1v1.5h3.1V81L47.7,81z M52.9,81h-3.1v1.5h3.1V81L52.9,81z
	 M58,81h-3.1v1.5H58V81L58,81z M63.2,81h-3.1v1.5h3.1V81L63.2,81z M68.3,81h-3.1v1.5h3.1V81L68.3,81z M73.4,81h-3.1v1.5h3.1V81
	L73.4,81z M78.6,81h-3.1v1.5h3.1V81L78.6,81z M83.7,81h-3.1v1.5h3.1V81L83.7,81z M88.9,81h-3.1v1.5h3.1V81L88.9,81z M94,81h-3.1v1.5
	H94V81L94,81z M99.2,81h-3.1v1.5h3.1V81L99.2,81z M104.3,81h-3.1v1.5h3.1V81L104.3,81z M109.5,81h-3.1v1.5h3.1V81L109.5,81z
	 M114.6,81h-3.1v1.5h3.1V81L114.6,81z M119.7,81h-3.1v1.5h3.1V81L119.7,81z M124.9,81h-3.1v1.5h3.1V81L124.9,81z M130,81h-3.1v1.5
	h3.1V81L130,81z M135.2,81h-3.1v1.5h3.1V81L135.2,81z M140.3,81h-3.1v1.5h3.1V81L140.3,81z M145.5,81h-3.1v1.5h3.1V81L145.5,81z
	 M150.6,81h-3.1v1.5h3.1V81L150.6,81z M155.7,81h-3.1v1.5h3.1V81L155.7,81z M160.9,81h-3.1v1.5h3.1V81L160.9,81z M166,81h-3.1v1.5
	h3.1V81L166,81z M171.2,81h-3.1v1.5h3.1V81L171.2,81z M176.3,81h-3.1v1.5h3.1V81L176.3,81z M181.5,81h-3.1v1.5h3.1V81L181.5,81z
	 M186.6,81h-3.1v1.5h3.1V81L186.6,81z M191.7,81h-3.1v1.5h3.1V81L191.7,81z M196.9,81h-3.1v1.5h3.1V81L196.9,81z M202,81h-3.1v1.5
	h3.1V81L202,81z M207.2,81h-3.1v1.5h3.1V81L207.2,81z M212.3,81h-3.1v1.5h3.1V81L212.3,81z M217.5,81h-3.1v1.5h3.1V81L217.5,81z
	 M222.6,81h-3.1v1.5h3.1V81L222.6,81z M227.8,81h-3.1v1.5h3.1V81L227.8,81z M232.9,81h-3.1v1.5h3.1V81L232.9,81z M238,81h-3v1.5h3.1
	L238,81L238,81z M243.2,81h-3.1v1.5h3.1V81L243.2,81z M248.3,81h-3.1v1.5h3.1V81L248.3,81z M252.8,80.5c-0.8,0.3-1.6,0.5-2.4,0.5
	h-0.1v1.5h0.1l0,0l0,0l0,0l0,0l0,0l0,0l0,0l0,0l0,0l0,0l0,0l0,0l0,0l0,0l0,0l0,0l0,0l0,0l0,0l0,0l0,0l0,0l0,0l0,0l0,0l0,0l0,0l0,0
	l0,0l0,0l0,0l0,0l0,0l0,0l0,0l0,0l0,0l0,0l0,0l0,0l0,0l0,0l0,0l0,0l0,0l0,0l0,0l0,0l0,0l0,0l0,0l0,0l0,0l0,0l0,0l0,0l0,0l0,0l0,0
	l0,0l0,0l0,0l0,0l0,0l0,0l0,0l0,0l0,0l0,0l0,0l0,0l0,0l0,0l0,0l0,0l0,0l0,0l0,0l0,0l0,0l0,0l0,0l0,0l0,0l0,0l0,0l0,0l0,0l0,0l0,0
	l0,0l0,0l0,0l0,0l0,0l0,0c0,0,0,0,0.1,0l0,0l0,0l0,0l0,0l0,0l0,0l0,0l0,0l0,0l0,0l0,0l0,0l0,0l0,0l0,0l0,0l0,0l0,0l0,0l0,0l0,0l0,0
	l0,0h0.1l0,0l0,0l0,0l0,0l0,0l0,0l0,0l0,0l0,0l0,0l0,0l0,0l0,0c0.6-0.1,1.2-0.2,1.8-0.4l0,0l0,0l0,0l0,0l0,0l0,0l0,0l0,0l0,0l0,0
	l0,0l0,0l0,0l0,0l0,0l0,0l0,0l0,0l0,0l0,0l0,0l0,0l0,0l0,0l0,0l0,0l0,0l0,0l0,0L252.8,80.5L252.8,80.5z M256,77.9
	c-0.4,0.7-1,1.3-1.7,1.8l0.9,1.2l0,0l0,0l0,0l0,0l0,0l0,0l0,0l0,0c0.8-0.6,1.5-1.4,2-2.2L256,77.9L256,77.9z M258.5,73.7H257v0.7
	c0,0.6-0.1,1.3-0.3,1.9l1.4,0.4c0.2-0.5,0.3-1.1,0.3-1.6l0,0l0,0l0,0l0,0l0,0l0,0l0,0l0,0l0,0l0,0l0,0l0,0l0,0l0,0l0,0l0,0l0,0l0,0
	l0,0l0,0l0,0l0,0l0,0l0,0l0,0l0,0l0,0l0,0l0,0l0,0l0,0l0,0l0,0l0,0l0,0l0,0l0,0l0,0l0,0l0,0l0,0l0,0l0,0l0,0l0,0l0,0l0,0l0,0l0,0
	l0,0l0,0l0,0l0,0l0,0l0,0l0,0l0,0l0,0l0,0l0,0l0,0l0,0l0,0l0,0l0,0l0,0l0,0l0,0l0,0l0,0l0,0l0,0l0,0l0,0l0,0l0,0l0,0l0,0l0,0l0,0
	l0,0l0,0l0,0l0,0l0,0l0,0l0,0l0,0l0,0l0,0l0,0l0,0l0,0L258.5,73.7L258.5,73.7z M258.5,68.6H257v3.1h1.5V68.6L258.5,68.6z
	 M258.5,63.4H257v3.1h1.5V63.4L258.5,63.4z M258.5,58.3H257v3.1h1.5V58.3L258.5,58.3z M258.5,53.1H257v3.1h1.5V53.1L258.5,53.1z
	 M257.7,48.1l-1.4,0.6c0.4,0.8,0.6,1.6,0.6,2.4l1.5-0.1c0-0.5-0.1-1-0.2-1.5l0,0c0-0.1,0-0.2-0.1-0.2l0,0l0,0l0,0l0,0l0,0l0,0l0,0
	l0,0l0,0l0,0l0,0l0,0l0,0l0,0l0,0l0,0l0,0l0,0l0,0l0,0l0,0l0,0l0,0l0,0l0,0l0,0l0,0l0,0l0,0l0,0l0,0l0,0l0,0l0,0l0,0l0,0l0,0l0,0
	l0,0l0,0l0,0l0,0l0,0l0,0l0,0l0,0l0,0l0,0l0,0l0,0l0,0l0,0l0,0l0,0l0,0l0,0l0,0l0,0l0,0l0,0l0,0l0,0l0,0l0,0l0,0l0,0l0,0l0,0l0,0
	l0,0l0,0l0,0l0,0l0,0l0,0l0,0l0,0l0,0l0,0l0,0l0,0l0,0l0,0l0,0l0,0l0,0l0,0l0,0l0,0l0,0l0,0l0,0l0,0l0,0l0,0l0,0l0,0l0,0l0,0l0,0
	l0,0l0,0l0,0l0,0l0,0l0,0l0,0l0,0c0-0.1-0.1-0.2-0.1-0.3l0,0l0,0l0,0C257.8,48.3,257.7,48.2,257.7,48.1L257.7,48.1L257.7,48.1z
	 M254.2,44.5l-0.7,1.3c0.7,0.4,1.4,0.9,1.9,1.6l1.1-1C255.9,45.6,255.1,45,254.2,44.5L254.2,44.5z M250.4,43.5V45
	c0.5,0,1,0.1,1.5,0.2l0.3-1.5c-0.1,0-0.2,0-0.3-0.1l0,0l0,0l0,0l0,0l0,0c0,0,0,0-0.1,0l0,0l0,0l0,0l0,0l0,0l0,0l0,0l0,0l0,0l0,0l0,0
	l0,0l0,0l0,0l0,0l0,0l0,0l0,0l0,0l0,0l0,0l0,0l0,0l0,0l0,0l0,0l0,0l0,0l0,0l0,0l0,0l0,0l0,0l0,0l0,0l0,0l0,0l0,0l0,0l0,0l0,0l0,0
	l0,0l0,0l0,0l0,0l0,0l0,0l0,0l0,0l0,0l0,0l0,0l0,0l0,0l0,0l0,0l0,0l0,0l0,0l0,0l0,0l0,0l0,0l0,0l0,0l0,0l0,0l0,0l0,0l0,0l0,0l0,0
	l0,0l0,0l0,0l0,0l0,0l0,0l0,0l0,0l0,0l0,0l0,0l0,0l0,0l0,0l0,0l0,0l0,0l0,0l0,0l0,0l0,0l0,0l0,0l0,0l0,0l0,0l0,0l0,0l0,0l0,0l0,0
	l0,0l0,0l0,0l0,0l0,0l0,0l0,0l0,0l0,0l0,0l0,0l0,0l0,0l0,0l0,0l0,0l0,0l0,0l0,0l0,0l0,0l0,0l0,0l0,0l0,0l0,0l0,0l0,0l0,0l0,0l0,0
	l0,0l0,0l0,0l0,0l0,0l0,0l0,0l0,0l0,0l0,0l0,0l0,0l0,0l0,0l0,0l0,0l0,0l0,0l0,0l0,0l0,0l0,0l0,0l0,0l0,0l0,0l0,0l0,0l0,0l0,0l0,0
	l0,0l0,0l0,0l0,0l0,0l0,0l0,0l0,0l0,0l0,0l0,0l0,0C250.5,43.5,250.5,43.5,250.4,43.5C250.5,43.5,250.5,43.5,250.4,43.5
	C250.5,43.5,250.5,43.5,250.4,43.5C250.5,43.5,250.5,43.5,250.4,43.5C250.5,43.5,250.5,43.5,250.4,43.5
	C250.5,43.5,250.5,43.5,250.4,43.5C250.5,43.5,250.5,43.5,250.4,43.5C250.5,43.5,250.5,43.5,250.4,43.5
	C250.5,43.5,250.5,43.5,250.4,43.5C250.5,43.5,250.5,43.5,250.4,43.5C250.5,43.5,250.5,43.5,250.4,43.5
	C250.5,43.5,250.5,43.5,250.4,43.5C250.5,43.5,250.5,43.5,250.4,43.5C250.5,43.5,250.4,43.5,250.4,43.5L250.4,43.5L250.4,43.5z"/>
<linearGradient id="SVGID_2_" gradientUnits="userSpaceOnUse" x1="476.0488" y1="-239.5" x2="476.0488" y2="-281.5005" gradientTransform="matrix(1 0 0 -1 -346 -239.5)">
	<stop  offset="0" style="stop-color:#D60080"/>
	<stop  offset="0.3" style="stop-color:#EC008C"/>
	<stop  offset="0.4268" style="stop-color:#EC098E"/>
	<stop  offset="0.6335" style="stop-color:#ED2194"/>
	<stop  offset="0.893" style="stop-color:#EE499D"/>
	<stop  offset="1" style="stop-color:#EF5BA1"/>
</linearGradient>
<path fill="url(#SVGID_2_)" d="M260,32.5c0,5.3-4.3,9.5-9.6,9.5H9.6C4.3,42,0,37.7,0,32.5v-23C0,4.3,4.3,0,9.6,0h240.9
	c5.3,0,9.6,4.3,9.6,9.5L260,32.5L260,32.5z"/>
<path fill="#F484BE" d="M250.4,1.5h-3.1V4h3.1V1.5L250.4,1.5L250.4,1.5z M245.3,1.5h-3.1V4h3.1V1.5L245.3,1.5z M240.2,1.5h-3.1V4
	h3.1V1.5L240.2,1.5z M235,1.5h-3.1V4h3.1V1.5L235,1.5z M229.9,1.5h-3.1V4h3.1V1.5L229.9,1.5z M224.7,1.5h-3.1V4h3.1V1.5L224.7,1.5z
	 M219.6,1.5h-3.1V4h3.1V1.5L219.6,1.5z M214.4,1.5h-3.1V4h3.1V1.5L214.4,1.5z M209.3,1.5h-3.1V4h3.1V1.5L209.3,1.5z M204.2,1.5h-3.1
	V4h3.1V1.5L204.2,1.5z M199,1.5h-3.1V4h3.1V1.5L199,1.5z M193.9,1.5h-3.1V4h3.1V1.5L193.9,1.5z M188.7,1.5h-3.1V4h3.1V1.5L188.7,1.5
	z M183.6,1.5h-3.1V4h3.1V1.5L183.6,1.5z M178.4,1.5h-3.1V4h3.1V1.5L178.4,1.5z M173.3,1.5h-3.1V4h3.1V1.5L173.3,1.5z M168.1,1.5H165
	V4h3.1V1.5L168.1,1.5z M163,1.5h-3.1V4h3.1V1.5L163,1.5z M157.9,1.5h-3.1V4h3.1V1.5L157.9,1.5z M152.7,1.5h-3.1V4h3.1V1.5L152.7,1.5
	z M147.6,1.5h-3.1V4h3.1V1.5L147.6,1.5z M142.4,1.5h-3.1V4h3.1V1.5L142.4,1.5z M137.3,1.5h-3.1V4h3.1V1.5L137.3,1.5z M132.1,1.5H129
	V4h3.1V1.5L132.1,1.5z M127,1.5h-3.1V4h3.1V1.5L127,1.5z M121.9,1.5h-3.1V4h3.1V1.5L121.9,1.5z M116.7,1.5h-3.1V4h3.1V1.5L116.7,1.5
	z M111.6,1.5h-3.1V4h3.1V1.5L111.6,1.5z M106.4,1.5h-3.1V4h3.1V1.5L106.4,1.5z M101.3,1.5h-3.1V4h3.1V1.5L101.3,1.5z M96.1,1.5H93V4
	h3.1V1.5L96.1,1.5z M91,1.5h-3.1V4H91V1.5L91,1.5z M85.9,1.5h-3.1V4h3.1V1.5L85.9,1.5z M80.7,1.5h-3.1V4h3.1V1.5L80.7,1.5z
	 M75.6,1.5h-3.1V4h3.1V1.5L75.6,1.5z M70.4,1.5h-3.1V4h3.1V1.5L70.4,1.5z M65.3,1.5h-3.1V4h3.1V1.5L65.3,1.5z M60.1,1.5H57V4h3.1
	V1.5L60.1,1.5z M55,1.5h-3.1V4H55V1.5L55,1.5z M49.8,1.5h-3.1V4h3.1V1.5L49.8,1.5z M44.7,1.5h-3.1V4h3.1V1.5L44.7,1.5z M39.6,1.5
	h-3.1V4h3.1V1.5L39.6,1.5z M34.4,1.5h-3.1V4h3.1V1.5L34.4,1.5z M29.3,1.5h-3.1V4h3.1V1.5L29.3,1.5z M24.1,1.5H21V4h3.1V1.5L24.1,1.5
	z M19,1.5h-3.1V4H19V1.5L19,1.5z M13.8,1.5h-3.1V4h3.1V1.5L13.8,1.5z M8.7,1.6c-0.3,0-0.5,0.1-0.8,0.1l0,0l0,0l0,0l0,0l0,0l0,0l0,0
	l0,0l0,0l0,0l0,0l0,0l0,0l0,0l0,0l0,0l0,0l0,0l0,0l0,0l0,0l0,0l0,0l0,0l0,0l0,0l0,0l0,0l0,0l0,0l0,0l0,0l0,0l0,0l0,0l0,0l0,0l0,0
	l0,0H7.8l0,0l0,0l0,0l0,0l0,0l0,0l0,0l0,0l0,0l0,0l0,0l0,0l0,0l0,0l0,0l0,0l0,0l0,0l0,0l0,0l0,0l0,0l0,0l0,0l0,0l0,0l0,0l0,0l0,0
	l0,0l0,0l0,0l0,0l0,0l0,0l0,0l0,0l0,0l0,0l0,0l0,0l0,0l0,0l0,0l0,0l0,0l0,0l0,0l0,0l0,0l0,0l0,0l0,0l0,0l0,0l0,0l0,0l0,0l0,0l0,0
	l0,0l0,0l0,0l0,0l0,0l0,0l0,0l0,0l0,0l0,0l0,0l0,0l0,0l0,0l0,0l0,0l0,0l0,0l0,0l0,0l0,0l0,0l0,0l0,0l0,0l0,0l0,0l0,0l0,0l0,0l0,0
	l0,0l0,0l0,0l0,0l0,0l0,0l0,0l0,0l0,0l0,0l0,0l0,0l0,0l0,0l0,0l0,0l0,0l0,0l0,0l0,0l0,0l0,0l0,0l0,0l0,0l0,0l0,0l0,0l0,0l0,0l0,0
	l0,0l0,0l0,0l0,0l0,0l0,0l0,0l0,0l0,0l0,0l0,0l0,0l0,0l0,0l0,0l0,0l0,0l0,0l0,0l0,0l0,0l0,0l0,0l0,0l0,0c-0.1,0-0.1,0-0.2,0.1l0,0
	l0,0l0,0l0,0l0,0C6.2,2.3,6,2.4,5.8,2.5L7,4.7c0.6-0.3,1.3-0.5,2-0.6L8.7,1.6L8.7,1.6z M4.1,3.7C3.4,4.4,2.7,5.2,2.3,6.2l2.3,1.1
	C4.9,6.6,5.3,6,5.8,5.5L4.1,3.7L4.1,3.7z M1.7,8.1C1.6,8.5,1.6,8.9,1.5,9.3l0,0l0,0l0,0l0,0l0,0l0,0l0,0l0,0l0,0l0,0l0,0l0,0l0,0
	l0,0l0,0l0,0l0,0l0,0l0,0l0,0l0,0l0,0l0,0l0,0l0,0l0,0l0,0l0,0l0,0l0,0l0,0l0,0l0,0l0,0l0,0l0,0V11H4V9.5c0-0.3,0-0.7,0.1-1L1.7,8.1
	L1.7,8.1z M4,13.3H1.5v3.1H4V13.3L4,13.3z M4,18.4H1.5v3.1H4V18.4L4,18.4z M4,23.5H1.5v3.1H4V23.5L4,23.5z M4,28.7H1.5v3.1H4V28.7
	L4,28.7z M4.1,33.4l-2.5,0.4c0,0.2,0.1,0.4,0.1,0.6l0,0l0,0l0,0l0,0l0,0l0,0l0,0l0,0l0,0l0,0l0,0l0,0l0,0l0,0l0,0l0,0l0,0l0,0l0,0
	l0,0l0,0l0,0l0,0l0,0l0,0l0,0l0,0l0,0l0,0l0,0l0,0l0,0l0,0l0,0l0,0l0,0l0,0l0,0l0,0l0,0l0,0l0,0l0,0l0,0c0.2,0.7,0.5,1.4,0.9,2
	l2.1-1.3C4.5,34.8,4.2,34.1,4.1,33.4L4.1,33.4z M5.8,36.5l-1.7,1.8c0,0,0,0,0.1,0.1l0,0l0,0l0,0l0,0l0,0l0,0l0,0l0,0l0,0l0,0l0,0
	l0,0l0,0l0,0l0,0l0,0l0,0l0,0l0,0l0,0l0,0l0,0l0,0l0,0l0,0l0,0l0,0l0,0l0,0l0,0l0,0l0,0l0,0l0,0l0,0l0,0l0,0l0,0l0,0l0,0l0,0l0,0
	l0,0l0,0l0,0l0,0l0,0l0,0l0,0l0,0l0,0l0,0l0,0l0,0l0,0l0,0l0,0l0,0l0,0l0,0l0,0l0,0l0,0l0,0l0,0l0,0l0,0l0,0l0,0l0,0l0,0l0,0l0,0
	l0,0l0,0l0,0l0,0l0,0l0,0l0,0l0,0l0,0l0,0l0,0l0,0l0,0l0,0l0,0l0,0l0,0l0,0l0,0l0,0c0.5,0.4,1,0.7,1.6,1l0,0l0,0l0,0l0,0l0,0l0,0
	l0,0l0,0l0,0l0,0l0,0l0,0l0,0l0,0l0,0l0,0l0,0l0,0l0,0l0,0l0,0l0,0l0,0l0,0l0,0l0,0l0,0l0,0l0,0l0,0l0,0l0,0l0,0l0,0l0,0l0,0l0,0
	l0,0c0.1,0,0.2,0.1,0.3,0.1L7,37.2C6.9,37.3,6.3,36.9,5.8,36.5L5.8,36.5z M8.9,37.9l-0.3,2.5l0,0l0,0l0,0l0,0l0,0l0,0l0,0l0,0l0,0
	l0,0l0,0l0,0l0,0l0,0l0,0l0,0l0,0l0,0l0,0l0,0l0,0c0,0,0,0,0.1,0l0,0l0,0l0,0l0,0l0,0l0,0l0,0h0.1l0,0l0,0l0,0l0,0l0,0l0,0l0,0
	c0,0,0,0,0.1,0l0,0l0,0l0,0l0,0l0,0l0,0l0,0l0,0l0,0l0,0l0,0l0,0l0,0l0,0l0,0l0,0l0,0l0,0l0,0l0,0l0,0l0,0l0,0l0,0l0,0l0,0l0,0l0,0
	l0,0l0,0l0,0l0,0l0,0l0,0l0,0l0,0l0,0l0,0l0,0l0,0l0,0l0,0l0,0l0,0l0,0l0,0l0,0l0,0l0,0l0,0l0,0l0,0l0,0l0,0l0,0l0,0h2.2V38H9.6
	C9.3,38,9.1,37.9,8.9,37.9L8.9,37.9z M16.9,38h-3.1v2.5h3.1V38L16.9,38z M22,38h-3.1v2.5H22V38L22,38z M27.2,38h-3.1v2.5h3.1V38
	L27.2,38z M32.3,38h-3.1v2.5h3.1V38L32.3,38z M37.4,38h-3.1v2.5h3.1V38L37.4,38z M42.6,38h-3.1v2.5h3.1V38L42.6,38z M47.7,38h-3.1
	v2.5h3.1V38L47.7,38z M52.9,38h-3.1v2.5h3.1V38L52.9,38z M58,38h-3.1v2.5H58V38L58,38z M63.2,38h-3.1v2.5h3.1V38L63.2,38z M68.3,38
	h-3.1v2.5h3.1V38L68.3,38z M73.4,38h-3.1v2.5h3.1V38L73.4,38z M78.6,38h-3.1v2.5h3.1V38L78.6,38z M83.7,38h-3.1v2.5h3.1V38L83.7,38z
	 M88.9,38h-3.1v2.5h3.1V38L88.9,38z M94,38h-3.1v2.5H94V38L94,38z M99.2,38h-3.1v2.5h3.1V38L99.2,38z M104.3,38h-3.1v2.5h3.1V38
	L104.3,38z M109.5,38h-3.1v2.5h3.1V38L109.5,38z M114.6,38h-3.1v2.5h3.1V38L114.6,38z M119.7,38h-3.1v2.5h3.1V38L119.7,38z
	 M124.9,38h-3.1v2.5h3.1V38L124.9,38z M130,38h-3.1v2.5h3.1V38L130,38z M135.2,38h-3.1v2.5h3.1V38L135.2,38z M140.3,38h-3.1v2.5h3.1
	V38L140.3,38z M145.5,38h-3.1v2.5h3.1V38L145.5,38z M150.6,38h-3.1v2.5h3.1V38L150.6,38z M155.7,38h-3.1v2.5h3.1V38L155.7,38z
	 M160.9,38h-3.1v2.5h3.1V38L160.9,38z M166,38h-3.1v2.5h3.1V38L166,38z M171.2,38h-3.1v2.5h3.1V38L171.2,38z M176.3,38h-3.1v2.5h3.1
	V38L176.3,38z M181.5,38h-3.1v2.5h3.1V38L181.5,38z M186.6,38h-3.1v2.5h3.1V38L186.6,38z M191.7,38h-3.1v2.5h3.1V38L191.7,38z
	 M196.9,38h-3.1v2.5h3.1V38L196.9,38z M202,38h-3.1v2.5h3.1V38L202,38z M207.2,38h-3.1v2.5h3.1V38L207.2,38z M212.3,38h-3.1v2.5h3.1
	V38L212.3,38z M217.5,38h-3.1v2.5h3.1V38L217.5,38z M222.6,38h-3.1v2.5h3.1V38L222.6,38z M227.8,38h-3.1v2.5h3.1V38L227.8,38z
	 M232.9,38h-3.1v2.5h3.1V38L232.9,38z M238,38h-3v2.5h3.1L238,38L238,38z M243.2,38h-3.1v2.5h3.1V38L243.2,38z M248.3,38h-3.1v2.5
	h3.1V38L248.3,38z M252.5,37.6c-0.6,0.3-1.3,0.4-2,0.4h-0.1v2.5h0.1l0,0l0,0l0,0l0,0l0,0l0,0l0,0l0,0l0,0l0,0l0,0l0,0l0,0l0,0l0,0
	l0,0l0,0l0,0l0,0l0,0l0,0l0,0l0,0l0,0l0,0l0,0l0,0l0,0l0,0l0,0l0,0l0,0l0,0l0,0l0,0l0,0l0,0l0,0l0,0l0,0l0,0l0,0l0,0l0,0l0,0l0,0
	l0,0l0,0l0,0l0,0l0,0l0,0l0,0l0,0l0,0l0,0l0,0l0,0l0,0l0,0l0,0l0,0l0,0l0,0l0,0l0,0l0,0l0,0l0,0l0,0l0,0l0,0l0,0l0,0l0,0l0,0l0,0
	l0,0l0,0l0,0l0,0l0,0l0,0l0,0l0,0l0,0l0,0l0,0l0,0l0,0l0,0l0,0l0,0l0,0l0,0l0,0l0,0l0,0l0,0l0,0l0,0l0,0l0,0l0,0l0,0l0,0l0,0l0,0
	l0,0l0,0l0,0l0,0l0,0l0,0l0,0l0,0l0,0l0,0l0,0l0,0l0,0l0,0l0,0l0,0l0,0l0,0l0,0l0,0l0,0l0,0l0,0l0,0l0,0l0,0l0,0l0,0l0,0l0,0l0,0
	l0,0l0,0l0,0l0,0l0,0l0,0l0,0l0,0l0,0l0,0l0,0l0,0l0,0l0,0l0,0l0,0l0,0l0,0l0,0l0,0l0,0l0,0l0,0l0,0l0,0l0,0l0,0l0,0l0,0l0,0l0,0
	l0,0l0,0l0,0l0,0l0,0l0,0l0,0l0,0l0,0l0,0l0,0l0,0l0,0l0,0l0,0l0,0l0,0l0,0l0,0l0,0l0,0l0,0l0,0l0,0l0,0l0,0l0,0l0,0l0,0l0,0l0,0
	l0,0l0,0l0,0l0,0l0,0l0,0l0,0l0,0l0,0l0,0l0,0l0,0l0,0l0,0l0,0l0,0l0,0l0,0l0,0l0,0l0,0l0,0c0,0,0,0,0.1,0l0,0l0,0l0,0l0,0l0,0l0,0
	l0,0l0,0l0,0l0,0l0,0l0,0l0,0l0,0l0,0l0,0l0,0l0,0l0,0l0,0l0,0l0,0l0,0h0.1l0,0l0,0l0,0l0,0l0,0l0,0l0,0l0,0l0,0l0,0l0,0l0,0l0,0
	l0,0l0,0l0,0l0,0h0.1l0,0l0,0l0,0l0,0l0,0l0,0l0,0l0,0l0,0l0,0l0,0c0.3-0.1,0.6-0.2,0.9-0.3L252.5,37.6L252.5,37.6z M255.1,35.3
	c-0.4,0.6-0.9,1.1-1.4,1.6l1.5,2c0.3-0.2,0.6-0.5,0.9-0.7l0,0l0,0l0,0l0,0l0,0l0,0l0,0l0,0l0,0l0,0l0,0l0,0l0,0l0,0l0,0l0,0l0,0l0,0
	l0,0l0,0l0,0l0,0l0,0l0,0l0,0l0,0l0,0l0,0l0,0l0,0l0,0l0,0l0,0l0,0l0,0l0,0l0,0l0,0l0,0l0,0l0,0l0,0l0,0l0,0l0,0l0,0l0.1-0.1l0,0
	l0.1-0.1l0,0l0,0l0,0l0,0l0,0l0,0l0,0l0,0l0,0l0,0c0.3-0.3,0.5-0.7,0.7-1L255.1,35.3L255.1,35.3z M258.5,31.7H256v0.7
	c0,0.5-0.1,1.1-0.2,1.6l2.4,0.7c0.1-0.2,0.1-0.4,0.1-0.5l0,0l0,0l0,0l0,0l0,0l0,0l0,0l0,0l0,0l0,0l0,0l0,0l0,0l0,0l0,0l0,0l0,0l0,0
	l0,0l0,0l0,0l0,0l0,0l0,0l0,0l0,0l0,0l0,0l0,0l0,0l0,0l0,0l0,0l0,0l0,0l0,0l0,0l0,0l0,0l0,0l0,0l0,0l0,0l0,0l0,0l0,0l0,0l0,0l0,0
	l0,0l0,0l0,0l0,0l0,0l0,0l0,0l0,0l0,0l0,0l0,0l0,0l0,0l0,0l0,0l0,0l0,0l0,0l0,0l0,0l0,0l0,0l0,0l0,0l0,0l0,0l0,0l0,0l0,0l0,0l0,0
	l0,0l0,0l0,0l0,0l0,0l0,0l0,0l0,0l0,0l0,0l0,0l0,0l0,0l0,0l0,0l0,0l0,0l0,0l0,0l0,0l0,0l0,0l0,0l0,0l0,0l0,0l0,0l0,0l0,0l0,0l0,0
	l0,0l0,0l0,0l0,0l0,0l0,0l0,0l0,0l0,0l0,0l0,0l0,0l0,0l0,0l0,0l0,0l0,0l0,0l0,0l0,0l0,0l0,0l0,0l0,0l0,0l0,0l0,0l0,0l0,0l0,0l0,0
	l0,0l0,0l0,0l0,0l0,0l0,0l0,0l0,0l0,0l0,0l0,0l0,0l0,0l0,0l0,0l0,0l0,0l0,0l0,0l0,0l0,0l0,0l0,0l0,0l0,0l0,0l0,0l0,0l0,0l0,0l0,0
	l0,0l0,0l0,0l0,0l0,0l0,0l0,0l0,0l0,0l0,0l0,0l0,0l0,0l0,0l0,0l0,0l0,0l0,0l0,0l0,0l0,0l0,0l0,0l0,0l0,0l0,0l0,0l0,0l0,0l0,0l0,0
	l0,0l0,0l0,0l0,0l0,0l0,0l0,0l0,0l0,0l0,0l0,0l0,0l0,0l0,0l0,0l0,0l0,0l0,0l0,0l0,0l0,0l0,0l0,0l0,0l0,0l0,0l0,0l0,0l0,0l0,0l0,0
	l0,0l0,0l0,0l0,0l0,0l0,0l0,0l0,0l0,0l0,0l0,0l0,0l0,0v-2.5H258.5z M258.5,26.6H256v3.1h2.5V26.6L258.5,26.6z M258.5,21.4H256v3.1
	h2.5V21.4L258.5,21.4z M258.5,16.3H256v3.1h2.5V16.3L258.5,16.3z M258.5,11.1H256v3.1h2.5V11.1L258.5,11.1z M257.7,6.1l-2.3,1.1
	c0.3,0.6,0.5,1.3,0.5,2l2.5-0.1c0-0.2,0-0.3,0-0.5l0,0l0,0l0,0l0,0l0,0l0,0l0,0l0,0l0,0l0,0l0,0l0,0l0,0l0,0l0,0l0,0l0,0l0,0l0,0
	l0,0l0,0l0,0l0,0l0,0l0,0l0,0l0,0l0,0l0,0l0,0l0,0l0,0l0,0l0,0C258.3,7.6,258,6.8,257.7,6.1L257.7,6.1z M254.2,2.5L253,4.7
	c0.6,0.3,1.2,0.8,1.6,1.3l1.9-1.6c-0.1-0.1-0.3-0.3-0.4-0.4l0,0l0,0l0,0l0,0l0,0l0,0l0,0l0,0l0,0l0,0l0,0l0,0l0,0l0,0l0,0l0,0l0,0
	l0,0l0,0l0,0l0,0l0,0l0,0l0,0l0,0l0,0l0,0l0,0l0,0l0,0l0,0l0,0l0,0l0,0l0,0l0,0l0,0l0,0l0,0l0,0l0,0l0,0l0,0l0,0l0,0l0,0l0,0l0,0
	l0,0l0,0l0,0l0,0l0,0l0,0l0,0l0,0l0,0l0,0l0,0l0,0l0,0l0,0l0,0l0,0l0,0l0,0l0,0l0,0l0,0l0,0l0,0l0,0l0,0l0,0
	C255.4,3.2,254.8,2.8,254.2,2.5L254.2,2.5L254.2,2.5L254.2,2.5L254.2,2.5L254.2,2.5L254.2,2.5L254.2,2.5L254.2,2.5L254.2,2.5
	L254.2,2.5L254.2,2.5L254.2,2.5L254.2,2.5L254.2,2.5z M250.4,1.5V4c0.4,0,0.8,0,1.2,0.1l0.6-2.4c-0.4-0.1-0.9-0.2-1.3-0.2l0,0l0,0
	l0,0l0,0l0,0l0,0l0,0l0,0l0,0l0,0l0,0l0,0l0,0l0,0l0,0l0,0l0,0l0,0l0,0l0,0l0,0l0,0l0,0l0,0l0,0l0,0l0,0l0,0l0,0l0,0l0,0l0,0l0,0
	l0,0l0,0l0,0l0,0l0,0l0,0l0,0l0,0l0,0l0,0l0,0l0,0l0,0l0,0l0,0l0,0l0,0l0,0l0,0C250.5,1.5,250.5,1.5,250.4,1.5
	C250.5,1.5,250.5,1.5,250.4,1.5C250.5,1.5,250.5,1.5,250.4,1.5C250.5,1.5,250.5,1.5,250.4,1.5C250.5,1.5,250.5,1.5,250.4,1.5
	C250.5,1.5,250.5,1.5,250.4,1.5C250.5,1.5,250.5,1.5,250.4,1.5C250.5,1.5,250.5,1.5,250.4,1.5C250.5,1.5,250.5,1.5,250.4,1.5
	C250.5,1.5,250.5,1.5,250.4,1.5C250.5,1.5,250.5,1.5,250.4,1.5C250.5,1.5,250.5,1.5,250.4,1.5C250.5,1.5,250.5,1.5,250.4,1.5
	C250.5,1.5,250.4,1.5,250.4,1.5L250.4,1.5L250.4,1.5z"/>
<path fill="#8A1654" d="M250.4,1.5h-3.1V3h3.1V1.5L250.4,1.5L250.4,1.5z M245.3,1.5h-3.1V3h3.1V1.5L245.3,1.5z M240.2,1.5h-3.1V3
	h3.1V1.5L240.2,1.5z M235,1.5h-3.1V3h3.1V1.5L235,1.5z M229.9,1.5h-3.1V3h3.1V1.5L229.9,1.5z M224.7,1.5h-3.1V3h3.1V1.5L224.7,1.5z
	 M219.6,1.5h-3.1V3h3.1V1.5L219.6,1.5z M214.4,1.5h-3.1V3h3.1V1.5L214.4,1.5z M209.3,1.5h-3.1V3h3.1V1.5L209.3,1.5z M204.2,1.5h-3.1
	V3h3.1V1.5L204.2,1.5z M199,1.5h-3.1V3h3.1V1.5L199,1.5z M193.9,1.5h-3.1V3h3.1V1.5L193.9,1.5z M188.7,1.5h-3.1V3h3.1V1.5L188.7,1.5
	z M183.6,1.5h-3.1V3h3.1V1.5L183.6,1.5z M178.4,1.5h-3.1V3h3.1V1.5L178.4,1.5z M173.3,1.5h-3.1V3h3.1V1.5L173.3,1.5z M168.1,1.5H165
	V3h3.1V1.5L168.1,1.5z M163,1.5h-3.1V3h3.1V1.5L163,1.5z M157.9,1.5h-3.1V3h3.1V1.5L157.9,1.5z M152.7,1.5h-3.1V3h3.1V1.5L152.7,1.5
	z M147.6,1.5h-3.1V3h3.1V1.5L147.6,1.5z M142.4,1.5h-3.1V3h3.1V1.5L142.4,1.5z M137.3,1.5h-3.1V3h3.1V1.5L137.3,1.5z M132.1,1.5H129
	V3h3.1V1.5L132.1,1.5z M127,1.5h-3.1V3h3.1V1.5L127,1.5z M121.9,1.5h-3.1V3h3.1V1.5L121.9,1.5z M116.7,1.5h-3.1V3h3.1V1.5L116.7,1.5
	z M111.6,1.5h-3.1V3h3.1V1.5L111.6,1.5z M106.4,1.5h-3.1V3h3.1V1.5L106.4,1.5z M101.3,1.5h-3.1V3h3.1V1.5L101.3,1.5z M96.1,1.5H93V3
	h3.1V1.5L96.1,1.5z M91,1.5h-3.1V3H91V1.5L91,1.5z M85.9,1.5h-3.1V3h3.1V1.5L85.9,1.5z M80.7,1.5h-3.1V3h3.1V1.5L80.7,1.5z
	 M75.6,1.5h-3.1V3h3.1V1.5L75.6,1.5z M70.4,1.5h-3.1V3h3.1V1.5L70.4,1.5z M65.3,1.5h-3.1V3h3.1V1.5L65.3,1.5z M60.1,1.5H57V3h3.1
	V1.5L60.1,1.5z M55,1.5h-3.1V3H55V1.5L55,1.5z M49.8,1.5h-3.1V3h3.1V1.5L49.8,1.5z M44.7,1.5h-3.1V3h3.1V1.5L44.7,1.5z M39.6,1.5
	h-3.1V3h3.1V1.5L39.6,1.5z M34.4,1.5h-3.1V3h3.1V1.5L34.4,1.5z M29.3,1.5h-3.1V3h3.1V1.5L29.3,1.5z M24.1,1.5H21V3h3.1V1.5L24.1,1.5
	z M19,1.5h-3.1V3H19V1.5L19,1.5z M13.8,1.5h-3.1V3h3.1V1.5L13.8,1.5z M8.7,1.6C8.1,1.7,7.6,1.8,7,2l0,0l0,0l0,0l0,0l0,0l0,0l0,0l0,0
	l0,0l0,0l0,0l0,0l0,0l0,0l0,0l0,0l0,0l0,0l0,0l0,0l0,0l0,0l0,0l0,0l0,0l0,0l0,0l0,0l0,0l0,0l0,0l0,0l0,0l0,0l0,0l0,0l0,0l0,0l0,0
	l0,0l0,0l0,0l0,0l0,0l0,0l0,0l0,0l0,0l0,0l0,0l0,0l0,0l0,0l0,0l0,0l0,0l0,0l0,0C6.9,2,6.9,2,6.8,2.1l0,0l0,0l0,0l0,0l0,0l0,0l0,0
	l0,0l0,0l0,0l0,0l0,0l0,0l0,0l0,0l0,0l0,0l0,0l0,0l0,0l0,0l0,0l0,0l0,0l0,0l0,0l0,0l0,0l0,0l0,0l0,0l0,0l0,0l0,0l0,0l0,0l0,0l0,0
	l0,0l0,0l0,0l0,0l0,0l0,0l0,0l0,0l0,0l0,0l0,0l0,0l0,0l0,0l0,0l0,0l0,0l0,0l0,0l0,0l0,0l0,0l0,0l0,0l0,0l0,0l0,0l0,0l0,0l0,0l0,0
	l0,0l0,0l0,0l0,0l0,0l0,0l0,0l0,0l0,0l0,0l0,0l0,0l0,0l0,0l0,0l0,0l0,0l0,0l0,0l0,0l0,0l0,0l0,0l0,0l0,0l0,0l0,0l0,0l0,0l0,0l0,0
	l0,0l0,0c-0.1,0-0.1,0.1-0.2,0.1l0.7,1.3C7.2,3.4,8,3.2,8.9,3.1L8.7,1.6L8.7,1.6z M4.1,3.7L4.1,3.7C4,3.7,4,3.7,4.1,3.7
	C4,3.7,4,3.7,4.1,3.7C4,3.7,4,3.7,4.1,3.7C4,3.8,4,3.8,4.1,3.7C4,3.8,4,3.8,4.1,3.7C4,3.8,4,3.8,4.1,3.7C4,3.8,4,3.8,4.1,3.7
	C4,3.8,4,3.8,4.1,3.7C4,3.8,4,3.8,4.1,3.7C4,3.8,4,3.8,4.1,3.7C4,3.8,4,3.8,4.1,3.7C4,3.8,4,3.8,4,3.8l0,0l0,0l0,0l0,0l0,0l0,0l0,0
	l0,0l0,0l0,0l0,0l0,0l0,0l0,0l0,0l0,0l0,0l0,0l0,0l0,0l0,0l0,0l0,0l0,0l0,0l0,0l0,0l0,0l0,0l0,0l0,0l0,0l0,0l0,0l0,0l0,0l0,0l0,0
	l0,0l0,0l0,0l0,0l0,0l0,0l0,0l0,0l0,0l0,0C3.7,4.1,3.6,4.2,3.6,4.2l0,0C3.5,4.3,3.4,4.4,3.3,4.5l0,0l0,0l0,0l0,0l0,0l0,0l0,0l0,0
	l0,0l0,0l0,0l0,0l0,0l0,0l0,0l0,0l0,0l0,0l0,0l0,0l0,0l0,0l0,0l0,0l0,0l0,0l0,0l0,0l0,0l0,0l0,0l0,0l0,0l0,0l0,0l0,0l0,0l0,0l0,0
	l0,0l0,0l0,0l0,0l0,0l0,0l0,0l0,0l0,0l0,0l0,0l0,0l0,0l0,0l0,0l0,0l0,0l0,0l0,0l0,0l0,0l0,0l0,0l0,0l0,0c-0.5,0.7-0.8,1.2-1,1.7
	l1.4,0.6C4,6,4.5,5.4,5.1,4.8L4.1,3.7L4.1,3.7z M1.7,8.1v0.1l0,0l0,0l0,0l0,0l0,0l0,0l0,0l0,0l0,0l0,0l0,0l0,0l0,0l0,0l0,0l0,0l0,0
	l0,0l0,0l0,0c0,0.2-0.1,0.5-0.1,0.7l0,0l0,0l0,0l0,0l0,0c0,0,0,0,0,0.1l0,0l0,0l0,0l0,0l0,0l0,0l0,0l0,0l0,0l0,0l0,0l0,0l0,0l0,0
	l0,0l0,0l0,0l0,0l0,0l0,0l0,0l0,0l0,0l0,0l0,0l0,0l0,0l0,0l0,0l0,0l0,0l0,0l0,0l0,0l0,0l0,0l0,0l0,0l0,0l0,0l0,0l0,0l0,0l0,0l0,0
	l0,0l0,0l0,0l0,0l0,0l0,0l0,0l0,0l0,0l0,0v1.7H3V9.5c0-0.4,0-0.8,0.1-1.2L1.7,8.1L1.7,8.1z M3,13.3H1.5v3.1H3V13.3L3,13.3z M3,18.4
	H1.5v3.1H3V18.4L3,18.4z M3,23.5H1.5v3.1H3V23.5L3,23.5z M3,28.7H1.5v3.1H3V28.7L3,28.7z M3.1,33.6l-1.5,0.3
	c0.1,0.7,0.3,1.3,0.6,1.9l0,0l0,0l0,0l0,0l0,0l0,0l0,0l0,0l0,0l0,0l0,0l0,0l0,0l0,0l0,0l0,0l0,0l0,0l0,0l0,0l0,0l0,0l0,0l0,0l0,0
	l0,0l0,0l0,0l0,0l0,0l0,0l0,0l0,0l0,0l0,0l0,0l0,0l0,0l0,0l0,0l0,0l0,0l0,0l0,0l0,0l0,0l0,0l0,0l0,0l0,0l0,0l0,0l0,0l0,0l0,0l0,0
	l0,0l0,0l0,0l0,0l0,0l0,0l0,0l0,0l0,0l0,0l0,0l0,0l0,0l0,0l0,0l0,0l0,0l0,0c0.1,0.2,0.2,0.4,0.3,0.6L4,35.9
	C3.6,35.2,3.3,34.4,3.1,33.6L3.1,33.6z M5.1,37.2l-1,1.1c0.2,0.2,0.4,0.3,0.6,0.5l0,0l0,0l0,0l0,0l0,0l0,0l0,0l0,0l0,0l0,0l0,0l0,0
	l0,0l0,0l0,0l0,0l0,0l0,0l0,0l0,0l0,0l0,0l0,0l0,0l0,0l0,0C5,39,5.4,39.3,5.8,39.5l0,0l0,0l0,0l0,0l0,0l0,0l0,0l0,0l0,0l0,0l0,0l0,0
	l0,0l0,0l0,0l0,0l0,0l0,0l0,0l0,0l0,0l0,0l0,0l0,0l0,0l0,0l0,0l0,0l0,0l0,0l0,0l0,0l0,0l0,0l0,0l0,0l0,0l0,0l0,0l0,0l0,0l0,0l0,0
	l0,0l0,0l0,0l0,0l0,0l0,0l0,0l0,0l0,0l0,0l0,0l0,0l0,0l0,0l0,0l0,0l0,0l0,0l0,0l0,0l0,0l0,0l0,0l0,0l0,0l0,0l0,0l0,0l0,0l0,0l0,0
	l0,0l0,0l0,0l0,0l0,0l0,0l0,0l0,0l0,0l0,0c0.1,0.1,0.2,0.1,0.4,0.1l0.5-1.4C6.4,38.2,5.7,37.8,5.1,37.2L5.1,37.2z M8.8,38.9
	l-0.2,1.5c0.2,0,0.3,0,0.5,0l0,0l0,0l0,0l0,0l0,0l0,0l0,0l0,0l0,0l0,0l0,0l0,0l0,0l0,0l0,0l0,0l0,0l0,0l0,0l0,0l0,0l0,0l0,0l0,0l0,0
	l0,0l0,0l0,0l0,0l0,0l0,0l0,0l0,0l0,0l0,0l0,0l0,0l0,0l0,0l0,0l0,0l0,0l0,0l0,0l0,0l0,0l0,0l0,0l0,0l0,0l0,0l0,0l0,0l0,0l0,0l0,0
	l0,0l0,0l0,0l0,0h2.2V39H9.6C9.3,39,9.1,38.9,8.8,38.9L8.8,38.9z M16.9,39h-3.1v1.5h3.1V39L16.9,39z M22,39h-3.1v1.5H22V39L22,39z
	 M27.2,39h-3.1v1.5h3.1V39L27.2,39z M32.3,39h-3.1v1.5h3.1V39L32.3,39z M37.4,39h-3.1v1.5h3.1V39L37.4,39z M42.6,39h-3.1v1.5h3.1V39
	L42.6,39z M47.7,39h-3.1v1.5h3.1V39L47.7,39z M52.9,39h-3.1v1.5h3.1V39L52.9,39z M58,39h-3.1v1.5H58V39L58,39z M63.2,39h-3.1v1.5
	h3.1V39L63.2,39z M68.3,39h-3.1v1.5h3.1V39L68.3,39z M73.4,39h-3.1v1.5h3.1V39L73.4,39z M78.6,39h-3.1v1.5h3.1V39L78.6,39z M83.7,39
	h-3.1v1.5h3.1V39L83.7,39z M88.9,39h-3.1v1.5h3.1V39L88.9,39z M94,39h-3.1v1.5H94V39L94,39z M99.2,39h-3.1v1.5h3.1V39L99.2,39z
	 M104.3,39h-3.1v1.5h3.1V39L104.3,39z M109.5,39h-3.1v1.5h3.1V39L109.5,39z M114.6,39h-3.1v1.5h3.1V39L114.6,39z M119.7,39h-3.1v1.5
	h3.1V39L119.7,39z M124.9,39h-3.1v1.5h3.1V39L124.9,39z M130,39h-3.1v1.5h3.1V39L130,39z M135.2,39h-3.1v1.5h3.1V39L135.2,39z
	 M140.3,39h-3.1v1.5h3.1V39L140.3,39z M145.5,39h-3.1v1.5h3.1V39L145.5,39z M150.6,39h-3.1v1.5h3.1V39L150.6,39z M155.7,39h-3.1v1.5
	h3.1V39L155.7,39z M160.9,39h-3.1v1.5h3.1V39L160.9,39z M166,39h-3.1v1.5h3.1V39L166,39z M171.2,39h-3.1v1.5h3.1V39L171.2,39z
	 M176.3,39h-3.1v1.5h3.1V39L176.3,39z M181.5,39h-3.1v1.5h3.1V39L181.5,39z M186.6,39h-3.1v1.5h3.1V39L186.6,39z M191.7,39h-3.1v1.5
	h3.1V39L191.7,39z M196.9,39h-3.1v1.5h3.1V39L196.9,39z M202,39h-3.1v1.5h3.1V39L202,39z M207.2,39h-3.1v1.5h3.1V39L207.2,39z
	 M212.3,39h-3.1v1.5h3.1V39L212.3,39z M217.5,39h-3.1v1.5h3.1V39L217.5,39z M222.6,39h-3.1v1.5h3.1V39L222.6,39z M227.8,39h-3.1v1.5
	h3.1V39L227.8,39z M232.9,39h-3.1v1.5h3.1V39L232.9,39z M238,39h-3v1.5h3.1L238,39L238,39z M243.2,39h-3.1v1.5h3.1V39L243.2,39z
	 M248.3,39h-3.1v1.5h3.1V39L248.3,39z M252.8,38.5c-0.8,0.3-1.6,0.5-2.4,0.5h-0.1v1.5h0.1l0,0l0,0l0,0l0,0l0,0l0,0l0,0l0,0l0,0l0,0
	l0,0l0,0l0,0l0,0l0,0l0,0l0,0l0,0l0,0l0,0l0,0l0,0l0,0l0,0l0,0l0,0l0,0l0,0l0,0l0,0l0,0l0,0l0,0l0,0l0,0l0,0l0,0l0,0l0,0l0,0l0,0
	l0,0l0,0l0,0l0,0l0,0l0,0l0,0l0,0l0,0l0,0l0,0l0,0l0,0l0,0l0,0l0,0l0,0l0,0l0,0l0,0l0,0l0,0l0,0l0,0l0,0l0,0l0,0l0,0l0,0l0,0l0,0
	l0,0l0,0l0,0l0,0l0,0l0,0l0,0l0,0l0,0l0,0l0,0l0,0l0,0l0,0l0,0l0,0l0,0l0,0l0,0l0,0l0,0l0,0l0,0l0,0c0,0,0,0,0.1,0l0,0l0,0l0,0l0,0
	l0,0l0,0l0,0l0,0l0,0l0,0l0,0l0,0l0,0l0,0l0,0l0,0l0,0l0,0l0,0l0,0l0,0l0,0l0,0h0.1l0,0l0,0l0,0l0,0l0,0l0,0l0,0l0,0l0,0l0,0l0,0
	l0,0l0,0c0.6-0.1,1.2-0.2,1.8-0.4l0,0l0,0l0,0l0,0l0,0l0,0l0,0l0,0l0,0l0,0l0,0l0,0l0,0l0,0l0,0l0,0l0,0l0,0l0,0l0,0l0,0l0,0l0,0
	l0,0l0,0l0,0l0,0l0,0l0,0L252.8,38.5L252.8,38.5z M256,35.9c-0.4,0.7-1,1.3-1.7,1.8l0.9,1.2l0,0l0,0l0,0l0,0l0,0l0,0l0,0l0,0
	c0.8-0.6,1.5-1.4,2-2.2L256,35.9L256,35.9z M258.5,31.7H257v0.7c0,0.6-0.1,1.3-0.3,1.9l1.4,0.4c0.2-0.5,0.3-1.1,0.3-1.6l0,0l0,0l0,0
	l0,0l0,0l0,0l0,0l0,0l0,0l0,0l0,0l0,0l0,0l0,0l0,0l0,0l0,0l0,0l0,0l0,0l0,0l0,0l0,0l0,0l0,0l0,0l0,0l0,0l0,0l0,0l0,0l0,0l0,0l0,0
	l0,0l0,0l0,0l0,0l0,0l0,0l0,0l0,0l0,0l0,0l0,0l0,0l0,0l0,0l0,0l0,0l0,0l0,0l0,0l0,0l0,0l0,0l0,0l0,0l0,0l0,0l0,0l0,0l0,0l0,0l0,0
	l0,0l0,0l0,0l0,0l0,0l0,0l0,0l0,0l0,0l0,0l0,0l0,0l0,0l0,0l0,0l0,0l0,0l0,0l0,0l0,0l0,0l0,0l0,0l0,0l0,0l0,0l0,0l0,0L258.5,31.7
	L258.5,31.7z M258.5,26.6H257v3.1h1.5V26.6L258.5,26.6z M258.5,21.4H257v3.1h1.5V21.4L258.5,21.4z M258.5,16.3H257v3.1h1.5V16.3
	L258.5,16.3z M258.5,11.1H257v3.1h1.5V11.1L258.5,11.1z M257.7,6.1l-1.4,0.6c0.4,0.8,0.6,1.6,0.6,2.4l1.5-0.1c0-0.5-0.1-1-0.2-1.5
	l0,0c0-0.1,0-0.2-0.1-0.2l0,0l0,0l0,0l0,0l0,0l0,0l0,0l0,0l0,0l0,0l0,0l0,0l0,0l0,0l0,0l0,0l0,0l0,0l0,0l0,0l0,0l0,0l0,0l0,0l0,0
	l0,0l0,0l0,0l0,0l0,0l0,0l0,0l0,0l0,0l0,0l0,0l0,0l0,0l0,0l0,0l0,0l0,0l0,0l0,0l0,0l0,0l0,0l0,0l0,0l0,0l0,0l0,0l0,0l0,0l0,0l0,0
	l0,0l0,0l0,0l0,0l0,0l0,0l0,0l0,0l0,0l0,0l0,0l0,0l0,0l0,0l0,0l0,0l0,0l0,0l0,0l0,0l0,0l0,0l0,0l0,0l0,0l0,0l0,0l0,0l0,0l0,0l0,0
	l0,0l0,0l0,0l0,0l0,0l0,0l0,0l0,0l0,0l0,0l0,0l0,0l0,0l0,0l0,0l0,0l0,0l0,0l0,0l0,0l0,0c0-0.1-0.1-0.2-0.1-0.3l0,0l0,0l0,0
	C257.8,6.3,257.7,6.2,257.7,6.1L257.7,6.1L257.7,6.1z M254.2,2.5l-0.7,1.3c0.7,0.4,1.4,0.9,1.9,1.6l1.1-1
	C255.9,3.6,255.1,3,254.2,2.5L254.2,2.5z M250.4,1.5V3c0.5,0,1,0.1,1.5,0.2l0.3-1.5c-0.1,0-0.2,0-0.3-0.1l0,0l0,0l0,0l0,0l0,0
	c0,0,0,0-0.1,0l0,0l0,0l0,0l0,0l0,0l0,0l0,0l0,0l0,0l0,0l0,0l0,0l0,0l0,0l0,0l0,0l0,0l0,0l0,0l0,0l0,0l0,0l0,0l0,0l0,0l0,0l0,0l0,0
	l0,0l0,0l0,0l0,0l0,0l0,0l0,0l0,0l0,0l0,0l0,0l0,0l0,0l0,0l0,0l0,0l0,0l0,0l0,0l0,0l0,0l0,0l0,0l0,0l0,0l0,0l0,0l0,0l0,0l0,0l0,0
	l0,0l0,0l0,0l0,0l0,0l0,0l0,0l0,0l0,0l0,0l0,0l0,0l0,0l0,0l0,0l0,0l0,0l0,0l0,0l0,0l0,0l0,0l0,0l0,0l0,0l0,0l0,0l0,0l0,0l0,0l0,0
	l0,0l0,0l0,0l0,0l0,0l0,0l0,0l0,0l0,0l0,0l0,0l0,0l0,0l0,0l0,0l0,0l0,0l0,0l0,0l0,0l0,0l0,0l0,0l0,0l0,0l0,0l0,0l0,0l0,0l0,0l0,0
	l0,0l0,0l0,0l0,0l0,0l0,0l0,0l0,0l0,0l0,0l0,0l0,0l0,0l0,0l0,0l0,0l0,0l0,0l0,0l0,0l0,0l0,0l0,0l0,0l0,0l0,0l0,0l0,0l0,0l0,0l0,0
	l0,0l0,0l0,0l0,0l0,0l0,0l0,0l0,0l0,0l0,0l0,0l0,0l0,0l0,0l0,0l0,0l0,0l0,0l0,0l0,0l0,0l0,0l0,0l0,0l0,0l0,0
	C250.5,1.5,250.5,1.5,250.4,1.5C250.5,1.5,250.5,1.5,250.4,1.5C250.5,1.5,250.5,1.5,250.4,1.5C250.5,1.5,250.5,1.5,250.4,1.5
	C250.5,1.5,250.5,1.5,250.4,1.5C250.5,1.5,250.5,1.5,250.4,1.5C250.5,1.5,250.5,1.5,250.4,1.5C250.5,1.5,250.5,1.5,250.4,1.5
	C250.5,1.5,250.5,1.5,250.4,1.5C250.5,1.5,250.5,1.5,250.4,1.5C250.5,1.5,250.5,1.5,250.4,1.5C250.5,1.5,250.5,1.5,250.4,1.5
	C250.5,1.5,250.5,1.5,250.4,1.5C250.5,1.5,250.4,1.5,250.4,1.5L250.4,1.5L250.4,1.5z"/>
</svg>
