<?xml version="1.0" encoding="utf-8"?>
<!-- Generator: Adobe Illustrator 15.0.0, SVG Export Plug-In  -->
<!DOCTYPE svg PUBLIC "-//W3C//DTD SVG 1.1//EN" "http://www.w3.org/Graphics/SVG/1.1/DTD/svg11.dtd" [
	<!ENTITY ns_flows "http://ns.adobe.com/Flows/1.0/">
]>
<svg version="1.1"
	 xmlns="http://www.w3.org/2000/svg" xmlns:xlink="http://www.w3.org/1999/xlink" xmlns:a="http://ns.adobe.com/AdobeSVGViewerExtensions/3.0/"
	 x="0px" y="0px" width="92px" height="60px" viewBox="0 0 92 60" overflow="visible" enable-background="new 0 0 92 60"
	 xml:space="preserve">
<defs>
</defs>
<linearGradient id="SVGID_1_" gradientUnits="userSpaceOnUse" x1="392" y1="-311.4995" x2="392" y2="-281.4995" gradientTransform="matrix(1 0 0 -1 -346 -251.5)">
	<stop  offset="0" style="stop-color:#D60080"/>
	<stop  offset="0.3" style="stop-color:#EC008C"/>
	<stop  offset="0.4268" style="stop-color:#EC098E"/>
	<stop  offset="0.6335" style="stop-color:#ED2194"/>
	<stop  offset="0.893" style="stop-color:#EE499D"/>
	<stop  offset="1" style="stop-color:#EF5BA1"/>
</linearGradient>
<path fill="url(#SVGID_1_)" d="M92,45.5C92,50.7,79.7,60,74.4,60H9.6C4.3,60,0,55.7,0,50.5v-11C0,34.3,4.3,30,9.6,30h64.9
	C79.7,30,92,39.3,92,44.5V45.5z"/>
<path fill="#F484BE" d="M74.4,31.5h-3.1V34h3.1V31.5L74.4,31.5L74.4,31.5z M69.3,31.5h-3.1V34h3.1V31.5L69.3,31.5z M64.2,31.5h-3.1
	V34h3.1V31.5L64.2,31.5z M59,31.5h-3.1V34H59V31.5L59,31.5z M53.9,31.5h-3.1V34h3.1V31.5L53.9,31.5z M48.7,31.5h-3.1V34h3.1V31.5
	L48.7,31.5z M43.6,31.5h-3.1V34h3.1V31.5L43.6,31.5z M38.4,31.5h-3.1V34h3.1V31.5L38.4,31.5z M33.3,31.5h-3.1V34h3.1V31.5L33.3,31.5
	z M28.2,31.5h-3.1V34h3.1V31.5L28.2,31.5z M23,31.5h-3.1V34H23V31.5L23,31.5z M17.9,31.5h-3.1V34h3.1V31.5L17.9,31.5z M12.7,31.5
	H9.6V34h3.1V31.5L12.7,31.5z M7.6,31.8c-0.8,0.2-1.6,0.5-2.3,1l0,0l0,0l0,0l0,0l0,0l0,0l0,0l0,0l0,0l0,0l0,0l0,0l0,0l0,0l0,0l0,0
	l0,0l0,0l0,0l0,0l0,0l0,0l0,0l0,0l0,0l0,0l0,0l0,0l0,0l0,0l0,0l0,0l0,0l0,0l0,0l0,0l0,0l0,0l0,0l0,0l0,0l0,0l0,0l0,0l0,0l0,0l0,0
	l0,0l0,0l0,0l0,0l0,0l0,0l0,0l0,0l0,0l0,0l0,0l0,0l0,0l0,0l0,0l0,0l0,0l0,0l0,0l0,0l0,0l0,0l0,0l0,0l0,0l0,0l0,0l0,0l0,0l0,0l0,0
	l0,0l0,0l0,0l0,0l0,0l0,0l0,0l0,0l0,0l0,0l0,0l0,0l1.5,2c0.6-0.4,1.2-0.7,1.9-0.9L7.6,31.8L7.6,31.8z M3.3,34.5L3.3,34.5L3.3,34.5
	L3.3,34.5L3.3,34.5L3.3,34.5L3.3,34.5L3.3,34.5L3.3,34.5L3.3,34.5C3.3,34.5,3.3,34.6,3.3,34.5C3.3,34.6,3.3,34.6,3.3,34.5
	C3.3,34.6,3.3,34.6,3.3,34.5C3.3,34.6,3.3,34.6,3.3,34.5C3.3,34.6,3.3,34.6,3.3,34.5C3.3,34.6,3.3,34.6,3.3,34.5
	C3.3,34.6,3.3,34.6,3.3,34.5C3.3,34.6,3.3,34.6,3.3,34.5C3.3,34.6,3.3,34.6,3.3,34.5C3.3,34.6,3.3,34.6,3.3,34.5
	C3.3,34.6,3.3,34.6,3.3,34.5C3.3,34.6,3.3,34.6,3.3,34.5C3.3,34.6,3.3,34.6,3.3,34.5L3.3,34.5L3.3,34.5L3.3,34.5L3.3,34.5
	c-0.5,0.7-0.9,1.3-1.2,2l0,0l0,0l0,0l0,0l0,0l0,0l0,0l0,0l0,0l0,0l0,0l0,0l0,0l0,0l0,0l0,0l0,0l0,0l0,0l0,0l0,0l0,0l0,0l0,0l0,0l0,0
	l0,0l0,0l0,0l0,0l0,0l0,0l0,0l0,0l0,0l0,0l0,0l0,0l0,0l0,0C2,36.9,1.9,37,1.9,37.2l2.4,0.7c0.2-0.7,0.5-1.3,1-1.9L3.3,34.5L3.3,34.5
	z M1.6,39.2C1.5,39.3,1.5,39.3,1.6,39.2C1.5,39.3,1.5,39.3,1.6,39.2C1.5,39.3,1.5,39.3,1.6,39.2C1.5,39.3,1.5,39.3,1.6,39.2
	C1.5,39.3,1.5,39.3,1.6,39.2C1.5,39.3,1.5,39.3,1.6,39.2C1.6,39.3,1.6,39.3,1.6,39.2L1.6,39.2L1.6,39.2L1.6,39.2L1.6,39.2L1.6,39.2
	L1.6,39.2L1.6,39.2L1.6,39.2L1.6,39.2L1.6,39.2L1.6,39.2L1.6,39.2L1.6,39.2L1.6,39.2L1.6,39.2L1.6,39.2L1.6,39.2L1.6,39.2L1.6,39.2
	L1.6,39.2L1.6,39.2L1.6,39.2L1.6,39.2L1.6,39.2L1.6,39.2L1.6,39.2L1.6,39.2L1.6,39.2L1.6,39.2L1.6,39.2L1.6,39.2L1.6,39.2L1.6,39.2
	L1.6,39.2L1.6,39.2L1.6,39.2L1.6,39.2L1.6,39.2L1.6,39.2L1.6,39.2L1.6,39.2L1.6,39.2L1.6,39.2v2.9H4v-2.6c0-0.1,0-0.1,0-0.2
	L1.6,39.2L1.6,39.2z M4,44.4H1.5v3.1H4V44.4L4,44.4z M4,49.5H1.5v0.9l0,0l0,0l0,0l0,0l0,0l0,0l0,0l0,0l0,0l0,0l0,0l0,0l0,0l0,0l0,0
	l0,0l0,0l0,0l0,0l0,0l0,0l0,0l0,0l0,0l0,0l0,0l0,0l0,0l0,0l0,0l0,0l0,0l0,0l0,0l0,0l0,0l0,0l0,0l0,0l0,0l0,0l0,0l0,0l0,0l0,0l0,0
	l0,0l0,0l0,0l0,0l0,0l0,0l0,0l0,0l0,0l0,0l0,0l0,0l0,0l0,0l0,0l0,0l0,0l0,0l0,0l0,0l0,0l0,0l0,0l0,0l0,0l0,0l0,0l0,0l0,0l0,0l0,0
	l0,0l0,0l0,0l0,0l0,0l0,0l0,0l0,0l0,0l0,0l0,0l0,0l0,0l0,0l0,0l0,0l0,0l0,0l0,0l0,0l0,0l0,0l0,0l0,0l0,0l0,0l0,0l0,0l0,0l0,0l0,0
	l0,0l0,0l0,0l0,0l0,0l0,0l0,0l0,0l0,0l0,0l0,0l0,0l0,0l0,0l0,0l0,0l0,0l0,0l0,0l0,0l0,0l0,0l0,0l0,0l0,0l0,0l0,0l0,0l0,0l0,0l0,0
	l0,0l0,0l0,0l0,0l0,0l0,0l0,0l0,0l0,0l0,0l0,0l0,0l0,0l0,0l0,0l0,0l0,0l0,0l0,0l0,0l0,0l0,0l0,0l0,0l0,0l0,0l0,0l0,0l0,0l0,0l0,0
	l0,0l0,0l0,0l0,0l0,0l0,0l0,0l0,0l0,0l0,0l0,0l0,0l0,0l0,0l0,0l0,0l0,0l0,0l0,0l0,0l0,0l0,0l0,0l0,0l0,0l0,0l0,0l0,0l0,0l0,0l0,0
	l0,0l0,0l0,0l0,0l0,0l0,0l0,0l0,0l0,0l0,0l0,0l0,0l0,0l0,0l0,0l0,0l0,0l0,0l0,0l0,0l0,0l0,0l0,0l0,0l0,0l0,0l0,0l0,0l0,0l0,0l0,0
	l0,0l0,0l0,0l0,0l0,0l0,0c0,0.3,0.1,0.7,0.2,1l2.4-0.7C4.1,51.4,4,51,4,50.5V49.5L4,49.5z M4.8,53.2l-2.2,1.3c0,0.1,0.1,0.1,0.1,0.2
	l0,0l0,0l0,0l0,0l0,0l0,0l0,0l0,0l0,0l0,0l0,0l0,0l0,0l0,0l0,0l0,0l0,0l0,0l0,0l0,0l0,0l0,0l0,0l0,0l0,0l0,0l0,0l0,0l0,0l0,0l0,0
	l0,0l0,0l0,0l0,0l0,0l0,0l0,0l0,0l0,0l0,0l0,0c0.5,0.7,1.1,1.4,1.8,1.9l1.5-2C5.6,54.4,5.1,53.8,4.8,53.2L4.8,53.2z M7.4,55.5
	l-1,2.3C7,58,7.6,58.2,8.2,58.3l0,0l0,0l0,0l0,0l0,0l0,0l0,0l0,0l0,0l0,0l0,0l0,0l0,0l0,0l0,0l0,0l0,0l0,0l0,0h0.1l0,0l0,0l0,0l0,0
	l0,0l0,0l0,0l0,0l0,0l0,0l0,0l0,0l0,0l0,0l0,0l0,0l0,0l0,0l0,0l0,0l0,0l0,0l0,0l0,0l0,0l0,0l0,0l0,0l0,0l0,0l0,0l0,0l0,0
	c0,0,0,0,0.1,0l0,0l0,0l0,0l0,0l0,0l0,0l0,0l0,0l0,0l0,0l0,0l0,0l0,0l0,0l0,0l0,0l0,0l0,0l0,0l0,0l0,0l0,0l0,0l0,0l0,0l0,0l0,0l0,0
	l0,0l0,0l0,0l0,0l0,0l0,0l0,0l0,0l0,0l0,0l0,0l0,0l0,0l0,0l0,0l0,0l0,0l0,0l0,0l0,0l0,0l0,0l0,0l0,0l0,0l0,0l0,0l0,0l0,0l0,0l0,0
	l0,0l0,0l0,0l0,0l0,0l0,0l0,0l0,0l0,0l0,0l0,0l0,0l0,0l0,0l0,0l0,0l0,0l0,0l0,0l0,0l0,0l0,0l0,0l0,0l0,0l0,0l0,0l0,0l0,0l0,0l0,0
	l0,0l0,0l0,0l0,0l0,0l0,0l0,0l0,0l0,0l0,0l0,0l0,0l0,0l0,0l0,0l0,0l0,0l0,0l0,0l0,0l0,0l0,0l0,0l0,0l0,0l0,0l0,0l0,0l0,0l0,0l0,0
	l0,0l0,0l0,0l0,0l0,0l0,0l0,0l0,0l0,0l0,0l0,0l0,0l0,0l0,0l0,0l0,0l0,0l0,0l0,0l0,0l0,0l0,0l0,0l0,0l0,0l0,0l0,0l0,0l0,0l0,0l0,0
	l0,0l0,0l0,0l0,0l0,0l0,0l0,0l0,0l0,0l0,0l0,0l0,0l0,0l0,0l0,0l0,0l0,0l0,0l0,0l0,0l0,0l0,0l0,0l0,0l0,0l0,0l0,0l0,0l0,0l0,0l0,0
	l0,0l0,0l0,0l0,0l0,0l0,0l0,0l0,0l0,0l0,0l0,0l0,0l0,0l0,0l0,0l0,0l0,0l0,0l0,0l0,0l0,0l0,0l0,0l0,0l0,0l0,0l0,0l0,0l0,0l0,0l0,0
	l0,0l0,0l0,0l0,0l0,0l0,0l0,0l0,0l0,0l0,0l0,0l0,0l0,0l0,0l0,0l0,0l0,0l0,0l0,0l0,0l0,0l0,0l0,0l0,0l0,0l0,0l0,0l0,0l0,0l0,0l0,0
	v-2.5C8.7,55.9,8.1,55.8,7.4,55.5L7.4,55.5z M14.6,56h-3.1v2.5h3.1V56L14.6,56z M19.7,56h-3.1v2.5h3.1V56L19.7,56z M24.9,56h-3.1
	v2.5h3.1V56L24.9,56z M30,56h-3.1v2.5H30V56L30,56z M35.1,56H32v2.5h3.1V56L35.1,56z M40.3,56h-3.1v2.5h3.1V56L40.3,56z M45.4,56
	h-3.1v2.5h3.1V56L45.4,56z M50.6,56h-3.1v2.5h3.1V56L50.6,56z M55.7,56h-3.1v2.5h3.1V56L55.7,56z M60.9,56h-3.1v2.5h3.1V56L60.9,56z
	 M66,56h-3.1v2.5H66V56L66,56z M71.1,56H68v2.5h3.1V56L71.1,56z M75.5,55.7c-0.6,0.2-0.9,0.2-1.1,0.2h-1.2v2.5h1.2l0,0l0,0l0,0l0,0
	l0,0l0,0l0,0l0,0l0,0l0,0l0,0l0,0l0,0l0,0l0,0l0,0l0,0l0,0l0,0l0,0l0,0l0,0l0,0l0,0l0,0l0,0l0,0l0,0l0,0l0,0l0,0l0,0l0,0l0,0l0,0
	l0,0l0,0l0,0l0,0l0,0l0,0l0,0l0,0l0,0l0,0l0,0l0,0l0,0l0,0l0,0l0,0l0,0l0,0l0,0l0,0l0,0l0,0l0,0l0,0l0,0l0,0l0,0l0,0l0,0l0,0l0,0
	l0,0l0,0l0,0l0,0l0,0l0,0l0,0l0,0l0,0l0,0l0,0l0,0l0,0l0,0l0,0l0,0l0,0l0,0l0,0l0,0l0,0l0,0l0,0l0,0l0,0l0,0l0,0l0,0l0,0l0,0l0,0
	l0,0l0,0l0,0l0,0l0,0l0,0l0,0l0,0l0,0l0,0l0,0l0,0l0,0l0,0l0,0l0,0l0,0l0,0l0,0l0,0l0,0l0,0l0,0l0,0l0,0l0,0l0,0l0,0l0,0l0,0l0,0
	l0,0l0,0l0,0l0,0l0,0l0,0l0,0l0,0l0,0l0,0l0,0l0,0l0,0l0,0l0,0l0,0l0,0l0,0l0,0l0,0l0,0l0,0l0,0l0,0l0,0l0,0l0,0l0,0l0,0l0,0l0,0
	c0,0,0,0,0.1,0l0,0l0,0l0,0l0,0l0,0l0,0l0,0l0,0l0,0l0,0l0,0c0,0,0,0,0.1,0l0,0l0,0l0,0l0,0l0,0l0,0l0,0h0.1l0,0l0,0l0,0l0,0l0,0
	l0,0l0,0h0.1l0,0l0,0l0,0l0,0l0,0l0,0l0,0l0,0l0,0h0.1l0,0l0,0l0,0l0,0l0,0l0,0l0,0l0,0l0,0H75l0,0l0,0l0,0l0,0l0,0l0,0l0,0l0,0l0,0
	c0,0,0,0,0.1,0l0,0l0,0l0,0l0,0l0,0l0,0l0,0l0,0l0,0l0,0l0,0l0,0l0,0l0,0l0,0l0,0l0,0l0,0l0,0l0,0l0,0l0,0l0,0l0,0l0,0l0,0l0,0l0,0
	l0,0l0,0l0,0l0,0l0,0l0,0l0,0l0,0l0,0l0,0l0,0l0,0l0,0l0,0l0,0l0,0l0,0l0,0l0,0l0,0l0,0l0,0l0,0l0,0l0,0l0,0l0,0l0,0l0,0l0,0l0,0
	l0,0l0,0l0,0l0,0l0,0l0,0l0,0l0,0l0,0l0,0l0,0l0,0l0,0l0,0l0,0l0,0l0,0l0,0l0,0l0,0l0,0l0,0l0,0l0,0l0,0l0,0l0,0l0,0l0,0l0,0l0,0
	L75.5,55.7L75.5,55.7z M79.5,53.8c-0.9,0.5-1.7,1-2.5,1.3l1.1,2.3c0.1,0,0.2-0.1,0.2-0.1l0,0l0,0l0,0l0,0l0,0l0,0l0,0l0,0l0,0l0,0
	l0,0l0,0l0,0l0,0l0,0l0,0l0,0l0,0l0,0l0,0l0,0l0,0l0,0l0,0l0,0l0,0l0,0l0,0l0,0l0,0l0,0l0,0l0,0l0,0l0,0l0,0l0,0l0,0l0,0l0,0l0,0
	l0,0l0,0l0,0l0,0l0,0l0,0l0,0l0,0l0,0l0,0l0,0l0,0l0,0l0,0l0,0l0,0l0,0l0,0l0,0l0,0l0,0l0,0l0,0l0,0l0,0l0,0l0,0l0,0l0,0l0,0l0,0
	l0,0l0,0l0,0l0,0l0,0l0,0c0.5-0.3,1-0.5,1.6-0.9l0,0l0,0l0,0l0,0l0,0l0,0l0,0l0,0l0,0l0,0l0,0l0,0l0,0l0,0l0,0l0,0l0,0l0,0l0,0l0,0
	l0,0l0,0l0,0l0,0l0,0l0,0c0.1-0.1,0.2-0.1,0.4-0.2L79.5,53.8L79.5,53.8z M83.4,50.9c-0.7,0.6-1.5,1.2-2.3,1.8l1.4,2
	c0.2-0.2,0.5-0.3,0.7-0.5l0,0l0,0l0,0l0,0l0,0l0,0l0,0l0,0l0,0l0,0l0,0l0,0l0,0l0,0l0,0l0,0l0,0l0,0l0,0l0,0l0,0l0,0l0,0l0,0l0,0
	l0,0l0,0l0,0c0.5-0.4,1-0.8,1.5-1.2L83.4,50.9L83.4,50.9z M86.7,47.7c-0.5,0.6-1.1,1.3-1.9,2l1.7,1.8l0,0l0,0l0,0l0,0l0,0l0,0l0,0
	l0,0l0,0l0,0l0,0l0,0l0,0l0,0l0,0l0,0l0,0l0,0l0,0l0,0l0,0l0,0l0,0l0,0l0,0l0,0c0.6-0.6,1.2-1.2,1.7-1.8l0,0l0,0l0,0l0,0l0,0l0,0
	l0,0l0,0l0,0l0,0l0,0l0,0l0,0l0,0l0,0l0,0l0,0l0,0l0,0l0,0l0,0l0,0l0,0l0,0l0,0l0,0l0,0l0,0l0,0l0,0l0,0l0,0l0,0l0,0l0,0l0,0l0,0
	l0,0l0,0l0,0l0,0l0,0l0,0l0,0l0,0l0,0l0,0l0,0l0,0l0,0l0,0l0,0l0,0l0,0l0,0l0,0c0,0,0,0,0-0.1l0,0L86.7,47.7L86.7,47.7z M90.5,44.6
	H88v0.9c0,0,0,0.3-0.3,0.9l2.2,1.2c0.2-0.3,0.3-0.6,0.4-0.9l0,0l0,0l0,0l0,0l0,0l0,0l0,0l0,0l0,0l0,0l0,0l0,0l0,0l0,0l0,0l0,0l0,0
	l0,0l0,0l0,0l0,0l0,0l0,0l0,0l0,0l0,0l0,0l0,0l0,0l0,0l0,0l0,0l0,0l0,0l0,0l0,0l0,0l0,0l0,0l0,0l0,0l0,0l0,0l0,0l0,0l0,0l0,0l0,0
	l0,0l0,0l0,0l0,0l0,0l0,0l0,0l0,0l0,0l0,0l0,0l0,0l0,0l0,0l0,0l0,0l0,0l0,0l0,0l0,0l0,0l0,0l0,0l0,0l0,0l0,0l0,0l0,0l0,0l0,0l0,0
	l0,0l0,0l0,0l0,0l0,0l0,0l0,0l0,0l0,0l0,0l0,0l0,0l0,0l0,0l0,0l0,0l0,0l0,0l0,0l0,0l0,0l0,0l0,0l0,0l0,0l0,0l0,0l0,0l0,0l0,0l0,0
	l0,0l0,0l0,0l0,0l0,0l0,0l0,0l0,0l0,0l0,0l0,0l0,0l0,0l0,0l0,0l0,0l0,0l0,0l0,0l0,0l0,0l0,0l0,0l0,0l0,0l0,0l0,0l0,0l0,0l0,0l0,0
	l0,0l0,0l0,0l0,0l0,0l0,0l0,0l0,0l0,0l0,0l0,0l0,0l0,0l0,0l0,0l0,0l0,0l0,0l0,0l0,0l0,0l0,0l0,0l0,0l0,0l0,0l0,0l0,0l0,0l0,0l0,0
	l0,0l0,0l0,0l0,0l0,0l0,0l0,0l0,0l0,0l0,0l0,0l0,0l0,0l0,0l0,0l0,0l0,0l0,0l0,0l0,0l0,0l0,0l0,0l0,0l0,0l0,0l0,0l0,0l0,0l0,0l0,0
	l0,0l0,0l0,0l0,0l0,0l0,0l0,0l0,0l0,0l0,0l0,0l0,0l0,0l0,0l0,0l0,0l0,0l0,0l0,0l0,0l0,0l0,0l0,0l0,0l0,0l0,0l0,0l0,0l0,0l0,0l0,0
	l0,0l0,0l0,0l0,0l0,0l0,0l0,0l0,0l0,0l0,0l0,0l0,0l0,0l0,0l0,0l0,0l0,0l0,0l0,0l0,0l0,0l0,0l0,0l0,0l0,0l0,0l0,0l0,0l0,0l0,0l0,0
	l0,0l0,0l0,0l0,0l0,0l0,0l0,0l0,0l0,0l0,0l0,0l0,0l0,0l0,0l0,0l0,0l0,0l0,0l0,0l0,0l0,0l0,0l0,0l0,0l0,0l0,0l0,0l0,0l0,0l0,0l0,0
	l0,0l0,0l0,0l0,0l0,0l0,0l0,0l0,0l0,0l0,0l0,0l0,0l0,0l0,0l0,0l0,0l0,0l0,0l0,0l0,0l0,0l0,0l0,0l0,0l0,0l0,0l0,0l0,0l0,0l0,0l0,0
	l0,0l0,0l0,0l0,0l0,0l0,0l0,0l0,0l0,0l0,0l0,0l0,0v-2.1H90.5z M88.1,40.1l-1.9,1.6c0.6,0.7,1.1,1.4,1.4,2l2.2-1.1
	C89.5,41.8,88.9,41,88.1,40.1L88.1,40.1z M84.4,36.6l-1.6,2c0.8,0.6,1.5,1.2,2.1,1.9l1.7-1.8c-0.4-0.4-0.8-0.7-1.2-1.1l0,0l0,0l0,0
	l0,0l0,0l0,0l0,0l0,0l0,0l0,0l0,0l0,0l0,0l0,0l0,0l0,0l0,0l0,0l0,0l0,0l0,0l0,0l0,0l0,0l0,0l0,0l0,0l0,0l0,0l0,0l0,0l0,0l0,0l0,0
	l0,0l0,0l0,0l0,0l0,0l0,0c-0.4-0.5-0.6-0.6-0.8-0.8l0,0l0,0l0,0l0,0l0,0l0,0l0,0l0,0l0,0l0,0l0,0l0,0l0,0l0,0l0,0l0,0l0,0l0,0l0,0
	l0,0C84.5,36.7,84.4,36.6,84.4,36.6L84.4,36.6z M80.1,33.7l-1.3,2.2c0.8,0.5,1.6,1,2.4,1.6l1.4-2c-0.2-0.1-0.3-0.2-0.5-0.3l0,0l0,0
	l0,0l0,0l0,0l0,0l0,0l0,0l0,0l0,0l0,0l0,0l0,0l0,0l0,0l0,0l0,0l0,0l0,0l0,0l0,0l0,0l0,0l0,0l0,0l0,0L82,35.1l0,0
	C81.3,34.4,80.7,34,80.1,33.7L80.1,33.7z M75.4,31.7l-0.5,2.4c0.4,0.1,1.2,0.3,2.3,0.9l1.1-2.3C77.2,32.2,76.3,31.8,75.4,31.7
	L75.4,31.7z"/>
<path fill="#8A1654" d="M74.4,31.5h-3.1V33h3.1V31.5L74.4,31.5L74.4,31.5z M69.3,31.5h-3.1V33h3.1V31.5L69.3,31.5z M64.2,31.5h-3.1
	V33h3.1V31.5L64.2,31.5z M59,31.5h-3.1V33H59V31.5L59,31.5z M53.9,31.5h-3.1V33h3.1V31.5L53.9,31.5z M48.7,31.5h-3.1V33h3.1V31.5
	L48.7,31.5z M43.6,31.5h-3.1V33h3.1V31.5L43.6,31.5z M38.4,31.5h-3.1V33h3.1V31.5L38.4,31.5z M33.3,31.5h-3.1V33h3.1V31.5L33.3,31.5
	z M28.2,31.5h-3.1V33h3.1V31.5L28.2,31.5z M23,31.5h-3.1V33H23V31.5L23,31.5z M17.9,31.5h-3.1V33h3.1V31.5L17.9,31.5z M12.7,31.5
	H9.6V33h3.1V31.5L12.7,31.5z M7.6,31.8C7,31.9,6.5,32.1,6,32.4l0,0l0,0l0,0l0,0l0,0l0,0l0,0l0,0l0,0l0,0l0,0l0,0l0,0l0,0l0,0l0,0
	l0,0l0,0l0,0l0,0l0,0l0,0l0,0l0,0l0,0l0,0l0,0l0,0l0,0l0,0l0,0l0,0l0,0l0,0l0,0l0,0l0,0l0,0l0,0l0,0l0,0l0,0l0,0l0,0l0,0l0,0l0,0
	l0,0l0,0l0,0l0,0l0,0l0,0l0,0l0,0l0,0l0,0l0,0l0,0l0,0l0,0l0,0l0,0l0,0l0,0l0,0l0,0l0,0l0,0l0,0l0,0l0,0l0,0l0,0l0,0l0,0l0,0l0,0
	l0,0l0,0l0,0l0,0l0,0l0,0l0,0l0,0l0,0l0,0l0,0l0,0l0,0l0,0l0,0l0,0l0,0l0,0l0,0l0,0c-0.6,0.3-0.9,0.5-1.2,0.7l0.9,1.2
	c0.7-0.5,1.4-0.9,2.3-1.1L7.6,31.8L7.6,31.8z M3.3,34.5c-0.5,0.6-0.9,1.3-1.2,2l0,0l0,0l0,0l0,0l0,0l0,0l0,0l0,0l0,0l0,0l0,0l0,0
	l0,0l0,0l0,0l0,0l0,0l0,0l0,0l0,0l0,0l0,0l0,0l0,0l0,0l0,0l0,0l0,0l0,0l0,0l0,0l0,0l0,0l0,0l0,0l0,0l0,0l0,0l0,0l0,0l0,0l0,0l0,0
	l0,0l0,0l0,0l0,0l0,0l0,0l0,0l0,0l0,0l0,0l0,0l0,0l0,0l0,0l0,0l0,0l0,0l0,0l0,0l0,0l0,0l0,0l0,0l0,0l0,0l0,0l0,0l0,0l0,0
	C2,36.9,1.9,37,1.9,37.2l1.4,0.4c0.3-0.7,0.7-1.5,1.2-2.1L3.3,34.5L3.3,34.5z M1.6,39.2L1.6,39.2L1.6,39.2L1.6,39.2L1.6,39.2
	L1.6,39.2L1.6,39.2L1.6,39.2L1.6,39.2L1.6,39.2L1.6,39.2L1.6,39.2L1.6,39.2L1.6,39.2L1.6,39.2L1.6,39.2L1.6,39.2L1.6,39.2L1.6,39.2
	L1.6,39.2L1.6,39.2L1.6,39.2L1.6,39.2L1.6,39.2L1.6,39.2L1.6,39.2L1.6,39.2L1.6,39.2L1.6,39.2L1.6,39.2L1.6,39.2L1.6,39.2L1.6,39.2
	L1.6,39.2L1.6,39.2L1.6,39.2L1.6,39.2L1.6,39.2L1.6,39.2L1.6,39.2L1.6,39.2L1.6,39.2v2.9H3v-2.6c0-0.1,0-0.2,0-0.3H1.6L1.6,39.2z
	 M3,44.4H1.5v3.1H3V44.4L3,44.4z M3,49.5H1.5v0.9l0,0l0,0l0,0l0,0l0,0l0,0l0,0l0,0l0,0l0,0l0,0l0,0l0,0l0,0l0,0l0,0l0,0l0,0l0,0l0,0
	l0,0l0,0l0,0l0,0l0,0l0,0l0,0l0,0l0,0l0,0l0,0l0,0l0,0l0,0l0,0l0,0l0,0l0,0l0,0l0,0l0,0l0,0l0,0l0,0l0,0l0,0l0,0l0,0l0,0l0,0l0,0
	l0,0l0,0l0,0l0,0l0,0l0,0l0,0l0,0l0,0l0,0l0,0l0,0l0,0l0,0l0,0l0,0l0,0l0,0l0,0l0,0l0,0l0,0l0,0l0,0l0,0l0,0l0,0l0,0l0,0l0,0l0,0
	l0,0l0,0l0,0l0,0l0,0l0,0l0,0l0,0l0,0l0,0l0,0l0,0l0,0l0,0l0,0l0,0l0,0l0,0l0,0l0,0l0,0l0,0l0,0l0,0l0,0l0,0l0,0l0,0l0,0l0,0l0,0
	l0,0l0,0l0,0l0,0l0,0l0,0l0,0l0,0l0,0l0,0l0,0l0,0l0,0l0,0l0,0l0,0l0,0l0,0l0,0l0,0l0,0l0,0l0,0l0,0l0,0c0,0,0,0,0,0.1l0,0
	c0,0.5,0.1,0.9,0.3,1.4l1.4-0.4C3.1,51.6,3,51,3,50.5V49.5L3,49.5z M3.9,53.7l-1.3,0.8l0,0l0,0l0,0l0,0l0,0l0,0l0,0l0,0l0,0l0,0l0,0
	l0,0l0,0l0,0l0,0l0,0l0,0l0,0l0,0l0,0l0,0l0,0l0,0l0,0l0,0l0,0l0,0l0,0l0,0l0,0l0,0l0,0l0,0l0,0l0,0l0,0l0,0l0,0l0,0l0,0l0,0l0,0
	l0,0l0,0l0,0l0,0l0,0l0,0l0,0l0,0l0,0l0,0l0,0l0,0l0,0l0,0l0,0l0,0l0,0l0,0l0,0l0,0l0,0l0,0l0,0l0,0l0,0l0,0l0,0
	c0.2,0.3,0.4,0.6,0.6,0.8l0,0l0,0l0,0l0,0l0,0l0,0l0,0l0,0l0,0l0,0l0,0l0,0l0,0l0,0l0,0l0,0l0,0l0,0l0,0l0,0l0,0l0,0l0,0l0,0l0,0
	l0,0l0,0l0,0l0,0l0,0l0,0l0,0l0,0l0,0l0,0l0,0l0,0l0,0l0,0l0,0l0,0l0,0l0,0l0,0l0,0l0,0l0,0l0,0l0,0l0,0l0,0l0,0l0,0l0,0l0,0l0,0
	l0,0l0,0l0,0l0,0l0,0l0,0l0,0l0,0l0,0l0,0l0,0l0,0l0,0l0,0l0,0l0,0l0,0l0,0l0,0l0,0l0,0l0,0l0,0l0,0l0,0l0,0l0,0l0,0l0,0l0,0l0,0
	l0,0l0,0l0,0l0,0l0,0l0,0l0,0l0,0l0,0l0,0l0,0l0,0l0,0l0,0l0,0l0,0l0,0l0,0l0,0l0,0l0,0l0,0l0,0l0,0l0,0l0,0l0,0l0,0l0,0l0,0l0,0
	l0,0l0,0l0,0l0,0l0,0l0,0l0,0l0,0l0,0l0,0l0,0l0,0l0,0l0,0l0,0l0,0l0,0l0,0l0,0l0,0l0,0l0,0l0,0l0,0l0,0l0,0l0,0l0,0l0,0l0,0l0,0
	l0,0l0,0l0,0l0,0l0,0l0,0l0,0l0,0l0,0l0,0l0,0l0,0l0,0l0,0l0,0l0,0l0,0l0,0l0,0l0,0l0,0l0,0l0,0l0,0l0,0l0,0l0,0l0,0l0,0l0,0l0,0
	l0,0l0,0l0,0l0,0l0,0l0,0l0,0l0,0l0,0l0,0l0,0l0,0l0,0l0,0l0,0l0,0l0,0l0,0l0,0l0,0l0,0l0,0l0,0l0,0l0,0l0,0l0,0l0,0l0,0l0,0l0,0
	l0,0l0,0l0,0l0,0l0,0l0,0l0,0l0,0l0,0l0,0l0,0l0,0l0,0l0,0l0,0l0,0l0,0l0,0l0,0l0,0l0,0l0,0l0,0l0,0l0,0l0,0l0,0l0,0l0,0l0,0l0,0
	l0,0l0,0l0,0l0,0l0,0l0,0l0,0l0,0l0,0l0,0l0,0l0,0l0,0l0,0l0,0l0,0l0,0l0,0l0,0c0,0,0,0,0.1,0.1l0.9-1.2C4.9,55.1,4.4,54.4,3.9,53.7
	L3.9,53.7z M7,56.4l-0.6,1.4h0.1l0,0l0,0l0,0l0,0l0,0l0,0l0,0l0,0l0,0l0,0l0,0l0,0l0,0l0,0l0,0l0,0l0,0l0,0l0,0l0,0l0,0l0,0l0,0l0,0
	l0,0l0,0l0,0l0,0l0,0l0,0l0,0l0,0l0,0l0,0l0,0l0,0l0,0l0,0l0,0l0,0c0.9,0.3,1.8,0.5,2.8,0.6v-1.5C8.6,56.9,7.8,56.8,7,56.4L7,56.4z
	 M14.6,57h-3.1v1.5h3.1V57L14.6,57z M19.7,57h-3.1v1.5h3.1V57L19.7,57z M24.9,57h-3.1v1.5h3.1V57L24.9,57z M30,57h-3.1v1.5H30V57
	L30,57z M35.1,57H32v1.5h3.1V57L35.1,57z M40.3,57h-3.1v1.5h3.1V57L40.3,57z M45.4,57h-3.1v1.5h3.1V57L45.4,57z M50.6,57h-3.1v1.5
	h3.1V57L50.6,57z M55.7,57h-3.1v1.5h3.1V57L55.7,57z M60.9,57h-3.1v1.5h3.1V57L60.9,57z M66,57h-3.1v1.5H66V57L66,57z M71.1,57H68
	v1.5h3.1V57L71.1,57z M75.8,56.7c-0.7,0.2-1.1,0.3-1.4,0.3h-1.2v1.5h1.2l0,0l0,0l0,0l0,0l0,0l0,0l0,0l0,0l0,0l0,0l0,0l0,0l0,0l0,0
	l0,0l0,0l0,0l0,0l0,0l0,0l0,0l0,0l0,0l0,0l0,0l0,0l0,0l0,0l0,0l0,0l0,0l0,0l0,0l0,0l0,0l0,0l0,0l0,0l0,0l0,0l0,0l0,0l0,0l0,0l0,0
	l0,0l0,0l0,0l0,0l0,0l0,0l0,0l0,0l0,0l0,0l0,0l0,0l0,0l0,0l0,0l0,0l0,0l0,0l0,0l0,0l0,0l0,0l0,0l0,0l0,0l0,0l0,0l0,0l0,0l0,0l0,0
	l0,0l0,0c0.3,0,0.6-0.1,1-0.2l0,0l0,0l0,0l0,0l0,0l0,0l0,0l0,0l0,0l0,0l0,0l0,0l0,0l0,0l0,0l0,0l0,0l0,0l0,0l0,0l0,0l0,0l0,0l0,0
	l0,0l0,0l0,0l0,0l0,0l0,0l0,0l0,0l0,0l0,0l0,0l0,0l0,0l0,0l0,0l0,0l0,0l0,0l0,0l0,0l0,0l0,0l0,0l0,0l0,0l0,0l0,0l0,0l0,0l0,0l0,0
	l0,0l0,0l0,0c0.1,0,0.2-0.1,0.3-0.1L75.8,56.7L75.8,56.7z M80.1,54.6c-0.9,0.6-1.8,1-2.6,1.4l0.6,1.4c0.9-0.4,1.8-0.9,2.7-1.5
	L80.1,54.6L80.1,54.6z M84.1,51.7c-0.7,0.6-1.5,1.2-2.3,1.8l0.9,1.2c0.1-0.1,0.2-0.1,0.3-0.2l0,0l0,0l0,0l0,0l0,0l0,0l0,0l0,0l0,0
	l0,0l0,0l0,0l0,0l0,0l0,0l0,0c0.4-0.3,0.8-0.6,1.2-0.9l0,0l0,0l0,0l0,0l0,0l0,0l0,0l0,0l0,0l0,0l0,0l0,0l0,0l0,0l0,0l0,0l0,0l0,0
	l0,0l0,0l0,0l0,0l0,0l0,0l0,0l0,0l0,0l0,0l0,0l0,0l0,0l0,0l0,0l0,0l0,0l0,0l0,0l0,0l0,0l0,0l0,0l0,0l0,0l0,0l0,0l0,0l0,0l0,0l0,0
	l0,0l0,0l0,0c0.2-0.2,0.4-0.3,0.6-0.5L84.1,51.7L84.1,51.7z M87.5,48.3c-0.5,0.7-1.2,1.4-2,2.1l1,1.1c0.3-0.3,0.6-0.6,0.9-0.9l0,0
	l0,0l0,0l0,0l0,0l0,0l0,0l0,0l0,0l0,0l0,0l0,0l0,0l0,0l0,0l0,0l0,0l0,0l0,0l0,0l0,0l0,0l0,0l0,0c0.4-0.4,0.8-0.8,1.1-1.3L87.5,48.3
	L87.5,48.3z M90.5,44.6H89v0.9c0,0.2-0.1,0.6-0.5,1.4l1.3,0.7c0-0.1,0.1-0.2,0.1-0.2l0,0l0,0l0,0l0,0l0,0l0,0l0,0l0,0l0,0l0,0l0,0
	l0,0l0,0l0,0l0,0l0,0l0,0l0,0l0,0l0,0l0,0l0,0l0,0l0,0l0,0l0,0l0,0l0,0l0,0l0,0l0,0l0,0l0,0l0,0l0,0l0,0l0,0l0,0l0,0l0,0l0,0l0,0
	c0.2-0.4,0.4-0.9,0.4-1.3l0,0l0,0l0,0l0,0l0,0l0,0l0,0l0,0l0,0l0,0l0,0l0,0l0,0l0,0l0,0l0,0l0,0l0,0l0,0l0,0l0,0l0,0l0,0l0,0l0,0
	l0,0l0,0l0,0l0,0l0,0l0,0l0,0l0,0l0,0l0,0l0,0l0,0l0,0l0,0l0,0l0,0l0,0l0,0l0,0l0,0l0,0l0,0l0,0l0,0l0,0l0,0l0,0l0,0l0,0l0,0l0,0
	l0,0l0,0l0,0l0,0l0,0l0,0l0,0l0,0l0,0l0,0l0,0l0,0l0,0l0,0l0,0l0,0l0,0l0,0l0,0l0,0l0,0l0,0l0,0l0,0l0,0l0,0l0,0l0,0l0,0l0,0l0,0
	l0,0l0,0l0,0l0,0l0,0l0,0l0,0l0,0l0,0l0,0l0,0l0,0l0,0l0,0l0,0l0,0l0,0l0,0l0,0l0,0l0,0l0,0l0,0l0,0l0,0l0,0l0,0l0,0l0,0l0,0l0,0
	l0,0l0,0l0,0l0,0l0,0l0,0l0,0l0,0l0,0l0,0l0,0l0,0l0,0l0,0l0,0l0,0l0,0l0,0l0,0l0,0l0,0l0,0l0,0l0,0l0,0l0,0l0,0l0,0l0,0l0,0l0,0
	l0,0l0,0l0,0l0,0l0,0l0,0l0,0l0,0l0,0l0,0l0,0l0,0l0,0l0,0l0,0l0,0l0,0l0,0l0,0l0,0l0,0l0,0l0,0l0,0l0,0l0,0l0,0l0,0l0,0l0,0l0,0
	l0,0l0,0l0,0l0,0l0,0l0,0l0,0l0,0l0,0l0,0l0,0l0,0l0,0l0,0l0,0l0,0v-1.5H90.5z M88.1,40.1l-1.1,1c0.7,0.8,1.2,1.5,1.6,2.2l1.3-0.7
	l0,0l0,0l0,0l0,0l0,0l0,0l0,0l0,0l0,0l0,0l0,0l0,0l0,0l0,0l0,0l0,0l0,0l0,0l0,0l0,0l0,0l0,0l0,0l0,0l0,0l0,0l0,0l0,0l0,0l0,0l0,0
	l0,0l0,0l0,0l0,0l0,0l0,0l0,0l0,0l0,0l0,0l0,0l0,0l0,0l0,0l0,0l0,0l0,0l0,0l0,0l0,0l0,0l0,0l0,0l0,0l0,0l0,0l0,0l0,0l0,0l0,0l0,0
	l0,0l0,0l0,0l0,0l0,0l0,0l0,0l0,0l0,0l0,0l0,0l0,0l0,0l0,0l0,0l0,0l0,0l0,0l0,0l0,0l0,0l0,0l0,0l0,0l0,0l0,0l0,0l0,0l0,0l0,0l0,0
	l0,0l0,0l0,0l0,0l0,0l0,0l0,0l0,0l0,0l0,0l0,0l0,0l0,0l0,0l0,0l0,0l0,0l0,0l0,0l0,0l0,0l0,0l0,0l0,0l0,0l0,0l0,0l0,0l0,0l0,0l0,0
	l0,0l0,0l0,0l0,0l0,0l0,0l0,0l0,0l0,0l0,0l0,0l0,0l0,0l0,0l0,0l0,0l0,0l0,0l0,0l0,0l0,0l0,0l0,0l0,0l0,0l0,0l0,0l0,0l0,0l0,0l0,0
	l0,0l0,0l0,0l0,0l0,0l0,0l0,0l0,0l0,0l0,0l0,0l0,0l0,0l0,0l0,0l0,0l0,0l0,0l0,0l0,0l0,0l0,0l0,0l0,0l0,0l0,0l0,0l0,0l0,0l0,0l0,0
	l0,0l0,0l0,0l0,0l0,0l0,0l0,0l0,0l0,0l0,0l0,0l0,0l0,0C89.1,41.3,88.6,40.7,88.1,40.1L88.1,40.1z M84.4,36.6l-0.9,1.2
	c0.8,0.6,1.5,1.3,2.2,1.9l1-1.1c-0.3-0.3-0.7-0.6-1.1-1l0,0l0,0l0,0l0,0l0,0l0,0l0,0l0,0l0,0l0,0l0,0l0,0l0,0l0,0l0,0l0,0l0,0l0,0
	l0,0l0,0l0,0l0,0l0,0l0,0l0,0l0,0l0,0l0,0l0,0l0,0l0,0l0,0l0,0l0,0l0,0l0,0l0,0l0,0l0,0l0,0l0,0l0,0l0,0l0,0l0,0l0,0
	c0,0,0,0-0.1-0.1l0,0c-0.3-0.2-0.5-0.4-0.8-0.6l0,0l0,0l0,0l0,0l0,0l0,0l0,0l0,0l0,0l0,0l0,0l0,0l0,0l0,0l0,0l0,0l0,0l0,0l0,0l0,0
	l0,0l0,0l0,0l0,0l0,0l0,0C84.5,36.7,84.5,36.7,84.4,36.6C84.5,36.7,84.5,36.7,84.4,36.6C84.5,36.7,84.4,36.7,84.4,36.6L84.4,36.6
	C84.4,36.7,84.4,36.7,84.4,36.6C84.4,36.7,84.4,36.7,84.4,36.6L84.4,36.6L84.4,36.6z M80.1,33.7L79.4,35c0.8,0.5,1.6,1,2.5,1.6
	l0.9-1.2C81.9,34.7,81,34.2,80.1,33.7L80.1,33.7z M75.4,31.7l-0.3,1.5c0.7,0.1,1.6,0.5,2.5,0.9l0.7-1.4c-0.4-0.2-0.7-0.3-1-0.5l0,0
	l0,0l0,0l0,0l0,0l0,0l0,0l0,0l0,0l0,0l0,0l0,0l0,0l0,0l0,0l0,0l0,0l0,0l0,0l0,0l0,0l0,0l0,0l0,0l0,0l0,0
	C76.5,31.9,75.9,31.8,75.4,31.7L75.4,31.7z"/>
<linearGradient id="SVGID_2_" gradientUnits="userSpaceOnUse" x1="392" y1="-251.5" x2="392" y2="-281.5005" gradientTransform="matrix(1 0 0 -1 -346 -251.5)">
	<stop  offset="0" style="stop-color:#D60080"/>
	<stop  offset="0.3" style="stop-color:#EC008C"/>
	<stop  offset="0.4268" style="stop-color:#EC098E"/>
	<stop  offset="0.6335" style="stop-color:#ED2194"/>
	<stop  offset="0.893" style="stop-color:#EE499D"/>
	<stop  offset="1" style="stop-color:#EF5BA1"/>
</linearGradient>
<path fill="url(#SVGID_2_)" d="M92,15.5C92,20.7,79.7,30,74.4,30H9.6C4.3,30,0,25.7,0,20.5v-11C0,4.3,4.3,0,9.6,0h64.9
	C79.7,0,92,9.3,92,14.5V15.5z"/>
<path fill="#F484BE" d="M74.4,1.5h-3.1V4h3.1V1.5L74.4,1.5L74.4,1.5z M69.3,1.5h-3.1V4h3.1V1.5L69.3,1.5z M64.2,1.5h-3.1V4h3.1V1.5
	L64.2,1.5z M59,1.5h-3.1V4H59V1.5L59,1.5z M53.9,1.5h-3.1V4h3.1V1.5L53.9,1.5z M48.7,1.5h-3.1V4h3.1V1.5L48.7,1.5z M43.6,1.5h-3.1V4
	h3.1V1.5L43.6,1.5z M38.4,1.5h-3.1V4h3.1V1.5L38.4,1.5z M33.3,1.5h-3.1V4h3.1V1.5L33.3,1.5z M28.2,1.5h-3.1V4h3.1V1.5L28.2,1.5z
	 M23,1.5h-3.1V4H23V1.5L23,1.5z M17.9,1.5h-3.1V4h3.1V1.5L17.9,1.5z M12.7,1.5H9.6V4h3.1V1.5L12.7,1.5z M7.6,1.8
	C6.8,2,6,2.3,5.3,2.8l0,0l0,0l0,0l0,0l0,0l0,0l0,0l0,0l0,0l0,0l0,0l0,0l0,0l0,0l0,0l0,0l0,0l0,0l0,0l0,0l0,0l0,0l0,0l0,0l0,0l0,0
	l0,0l0,0l0,0l0,0l0,0l0,0l0,0l0,0l0,0l0,0l0,0l0,0l0,0l0,0l0,0l0,0l0,0l0,0l0,0l0,0l0,0l0,0l0,0l0,0l0,0l0,0l0,0l0,0l0,0l0,0l0,0
	l0,0l0,0l0,0l0,0l0,0l0,0l0,0l0,0l0,0l0,0l0,0l0,0l0,0l0,0l0,0l0,0l0,0l0,0l0,0l0,0l0,0l0,0l0,0l0,0l0,0l0,0l0,0l0,0l0,0l0,0l0,0
	l0,0l0,0l1.5,2C7.4,4.4,8,4.1,8.7,3.9L7.6,1.8L7.6,1.8z M3.3,4.5L3.3,4.5L3.3,4.5L3.3,4.5L3.3,4.5L3.3,4.5L3.3,4.5L3.3,4.5L3.3,4.5
	L3.3,4.5C3.3,4.5,3.3,4.6,3.3,4.5C3.3,4.6,3.3,4.6,3.3,4.5C3.3,4.6,3.3,4.6,3.3,4.5C3.3,4.6,3.3,4.6,3.3,4.5
	C3.3,4.6,3.3,4.6,3.3,4.5C3.3,4.6,3.3,4.6,3.3,4.5C3.3,4.6,3.3,4.6,3.3,4.5C3.3,4.6,3.3,4.6,3.3,4.5C3.3,4.6,3.3,4.6,3.3,4.5
	C3.3,4.6,3.3,4.6,3.3,4.5C3.3,4.6,3.3,4.6,3.3,4.5C3.3,4.6,3.3,4.6,3.3,4.5c0,0.1,0,0.1,0,0.1l0,0l0,0l0,0l0,0
	C2.8,5.2,2.4,5.8,2.1,6.5l0,0l0,0l0,0l0,0l0,0l0,0l0,0l0,0l0,0l0,0l0,0l0,0l0,0l0,0l0,0l0,0l0,0l0,0l0,0l0,0l0,0l0,0l0,0l0,0l0,0
	l0,0l0,0l0,0l0,0l0,0l0,0l0,0l0,0l0,0l0,0l0,0l0,0l0,0l0,0l0,0C2,6.9,1.9,7,1.9,7.2l2.4,0.7c0.2-0.7,0.5-1.3,1-1.9L3.3,4.5L3.3,4.5z
	 M1.6,9.2C1.5,9.3,1.5,9.3,1.6,9.2C1.5,9.3,1.5,9.3,1.6,9.2C1.5,9.3,1.5,9.3,1.6,9.2C1.5,9.3,1.5,9.3,1.6,9.2
	C1.5,9.3,1.5,9.3,1.6,9.2C1.5,9.3,1.5,9.3,1.6,9.2C1.6,9.3,1.6,9.3,1.6,9.2L1.6,9.2L1.6,9.2L1.6,9.2L1.6,9.2L1.6,9.2L1.6,9.2
	L1.6,9.2L1.6,9.2L1.6,9.2L1.6,9.2L1.6,9.2L1.6,9.2L1.6,9.2L1.6,9.2L1.6,9.2L1.6,9.2L1.6,9.2L1.6,9.2L1.6,9.2L1.6,9.2L1.6,9.2
	L1.6,9.2L1.6,9.2L1.6,9.2L1.6,9.2L1.6,9.2L1.6,9.2L1.6,9.2L1.6,9.2L1.6,9.2L1.6,9.2L1.6,9.2L1.6,9.2L1.6,9.2L1.6,9.2L1.6,9.2
	L1.6,9.2L1.6,9.2L1.6,9.2L1.6,9.2L1.6,9.2L1.6,9.2L1.6,9.2v2.9H4V9.5c0-0.1,0-0.1,0-0.2L1.6,9.2L1.6,9.2z M4,14.4H1.5v3.1H4V14.4
	L4,14.4z M4,19.5H1.5v0.9l0,0l0,0l0,0l0,0l0,0l0,0l0,0l0,0l0,0l0,0l0,0l0,0l0,0l0,0l0,0l0,0l0,0l0,0l0,0l0,0l0,0l0,0l0,0l0,0l0,0
	l0,0l0,0l0,0l0,0l0,0l0,0l0,0l0,0l0,0l0,0l0,0l0,0l0,0l0,0l0,0l0,0l0,0l0,0l0,0l0,0l0,0l0,0l0,0l0,0l0,0l0,0l0,0l0,0l0,0l0,0l0,0
	l0,0l0,0l0,0l0,0l0,0l0,0l0,0l0,0l0,0l0,0l0,0l0,0l0,0l0,0l0,0l0,0l0,0l0,0l0,0l0,0l0,0l0,0l0,0l0,0l0,0l0,0l0,0l0,0l0,0l0,0l0,0
	l0,0l0,0l0,0l0,0l0,0l0,0l0,0l0,0l0,0l0,0l0,0l0,0l0,0l0,0l0,0l0,0l0,0l0,0l0,0l0,0l0,0l0,0l0,0l0,0l0,0l0,0l0,0l0,0l0,0l0,0l0,0
	l0,0l0,0l0,0l0,0l0,0l0,0l0,0l0,0l0,0l0,0l0,0l0,0l0,0l0,0l0,0l0,0l0,0l0,0l0,0l0,0l0,0l0,0l0,0l0,0l0,0l0,0l0,0l0,0l0,0l0,0l0,0
	l0,0l0,0l0,0l0,0l0,0l0,0l0,0l0,0l0,0l0,0l0,0l0,0l0,0l0,0l0,0l0,0l0,0l0,0l0,0l0,0l0,0l0,0l0,0l0,0l0,0l0,0l0,0l0,0l0,0l0,0l0,0
	l0,0l0,0l0,0l0,0l0,0l0,0l0,0l0,0l0,0l0,0l0,0l0,0l0,0l0,0l0,0l0,0l0,0l0,0l0,0l0,0l0,0l0,0l0,0l0,0l0,0l0,0l0,0l0,0l0,0l0,0l0,0
	l0,0l0,0l0,0l0,0l0,0l0,0l0,0l0,0l0,0l0,0l0,0l0,0l0,0l0,0l0,0l0,0l0,0l0,0l0,0l0,0l0,0l0,0l0,0l0,0l0,0l0,0l0,0
	c0,0.3,0.1,0.7,0.2,1l2.4-0.7C4.1,21.4,4,21,4,20.5V19.5L4,19.5z M4.8,23.2l-2.2,1.3c0,0.1,0.1,0.1,0.1,0.2l0,0l0,0l0,0l0,0l0,0l0,0
	l0,0l0,0l0,0l0,0l0,0l0,0l0,0l0,0l0,0l0,0l0,0l0,0l0,0l0,0l0,0l0,0l0,0l0,0l0,0l0,0l0,0l0,0l0,0l0,0l0,0l0,0l0,0l0,0l0,0l0,0l0,0
	l0,0l0,0l0,0l0,0l0,0c0.5,0.7,1.1,1.4,1.8,1.9l1.5-2C5.6,24.4,5.1,23.8,4.8,23.2L4.8,23.2z M7.4,25.5l-1,2.3C7,28,7.6,28.2,8.2,28.3
	l0,0l0,0l0,0l0,0l0,0l0,0l0,0l0,0l0,0l0,0l0,0l0,0l0,0l0,0l0,0l0,0l0,0l0,0l0,0h0.1l0,0l0,0l0,0l0,0l0,0l0,0l0,0l0,0l0,0l0,0l0,0
	l0,0l0,0l0,0l0,0l0,0l0,0l0,0l0,0l0,0l0,0l0,0l0,0l0,0l0,0l0,0l0,0l0,0l0,0l0,0l0,0l0,0l0,0c0,0,0,0,0.1,0l0,0l0,0l0,0l0,0l0,0l0,0
	l0,0l0,0l0,0l0,0l0,0l0,0l0,0l0,0l0,0l0,0l0,0l0,0l0,0l0,0l0,0l0,0l0,0l0,0l0,0l0,0l0,0l0,0l0,0l0,0l0,0l0,0l0,0l0,0l0,0l0,0l0,0
	l0,0l0,0l0,0l0,0l0,0l0,0l0,0l0,0l0,0l0,0l0,0l0,0l0,0l0,0l0,0l0,0l0,0l0,0l0,0l0,0l0,0l0,0l0,0l0,0l0,0l0,0l0,0l0,0l0,0l0,0l0,0
	l0,0l0,0l0,0l0,0l0,0l0,0l0,0l0,0l0,0l0,0l0,0l0,0l0,0l0,0l0,0l0,0l0,0l0,0l0,0l0,0l0,0l0,0l0,0l0,0l0,0l0,0l0,0l0,0l0,0l0,0l0,0
	l0,0l0,0l0,0l0,0l0,0l0,0l0,0l0,0l0,0l0,0l0,0l0,0l0,0l0,0l0,0l0,0l0,0l0,0l0,0l0,0l0,0l0,0l0,0l0,0l0,0l0,0l0,0l0,0l0,0l0,0l0,0
	l0,0l0,0l0,0l0,0l0,0l0,0l0,0l0,0l0,0l0,0l0,0l0,0l0,0l0,0l0,0l0,0l0,0l0,0l0,0l0,0l0,0l0,0l0,0l0,0l0,0l0,0l0,0l0,0l0,0l0,0l0,0
	l0,0l0,0l0,0l0,0l0,0l0,0l0,0l0,0l0,0l0,0l0,0l0,0l0,0l0,0l0,0l0,0l0,0l0,0l0,0l0,0l0,0l0,0l0,0l0,0l0,0l0,0l0,0l0,0l0,0l0,0l0,0
	l0,0l0,0l0,0l0,0l0,0l0,0l0,0l0,0l0,0l0,0l0,0l0,0l0,0l0,0l0,0l0,0l0,0l0,0l0,0l0,0l0,0l0,0l0,0l0,0l0,0l0,0l0,0l0,0l0,0l0,0l0,0
	l0,0l0,0l0,0l0,0l0,0l0,0l0,0l0,0l0,0l0,0l0,0l0,0l0,0l0,0l0,0l0,0l0,0l0,0l0,0l0,0l0,0l0,0v-2.5C8.7,25.9,8.1,25.8,7.4,25.5
	L7.4,25.5z M14.6,26h-3.1v2.5h3.1V26L14.6,26z M19.7,26h-3.1v2.5h3.1V26L19.7,26z M24.9,26h-3.1v2.5h3.1V26L24.9,26z M30,26h-3.1
	v2.5H30V26L30,26z M35.1,26H32v2.5h3.1V26L35.1,26z M40.3,26h-3.1v2.5h3.1V26L40.3,26z M45.4,26h-3.1v2.5h3.1V26L45.4,26z M50.6,26
	h-3.1v2.5h3.1V26L50.6,26z M55.7,26h-3.1v2.5h3.1V26L55.7,26z M60.9,26h-3.1v2.5h3.1V26L60.9,26z M66,26h-3.1v2.5H66V26L66,26z
	 M71.1,26H68v2.5h3.1V26L71.1,26z M75.5,25.7c-0.6,0.2-0.9,0.2-1.1,0.2h-1.2v2.5h1.2l0,0l0,0l0,0l0,0l0,0l0,0l0,0l0,0l0,0l0,0l0,0
	l0,0l0,0l0,0l0,0l0,0l0,0l0,0l0,0l0,0l0,0l0,0l0,0l0,0l0,0l0,0l0,0l0,0l0,0l0,0l0,0l0,0l0,0l0,0l0,0l0,0l0,0l0,0l0,0l0,0l0,0l0,0
	l0,0l0,0l0,0l0,0l0,0l0,0l0,0l0,0l0,0l0,0l0,0l0,0l0,0l0,0l0,0l0,0l0,0l0,0l0,0l0,0l0,0l0,0l0,0l0,0l0,0l0,0l0,0l0,0l0,0l0,0l0,0
	l0,0l0,0l0,0l0,0l0,0l0,0l0,0l0,0l0,0l0,0l0,0l0,0l0,0l0,0l0,0l0,0l0,0l0,0l0,0l0,0l0,0l0,0l0,0l0,0l0,0l0,0l0,0l0,0l0,0l0,0l0,0
	l0,0l0,0l0,0l0,0l0,0l0,0l0,0l0,0l0,0l0,0l0,0l0,0l0,0l0,0l0,0l0,0l0,0l0,0l0,0l0,0l0,0l0,0l0,0l0,0l0,0l0,0l0,0l0,0l0,0l0,0l0,0
	l0,0l0,0l0,0l0,0l0,0l0,0l0,0l0,0l0,0l0,0l0,0l0,0l0,0l0,0l0,0l0,0l0,0l0,0l0,0l0,0l0,0l0,0l0,0l0,0c0,0,0,0,0.1,0l0,0l0,0l0,0l0,0
	l0,0l0,0l0,0l0,0l0,0l0,0l0,0c0,0,0,0,0.1,0l0,0l0,0l0,0l0,0l0,0l0,0l0,0h0.1l0,0l0,0l0,0l0,0l0,0l0,0l0,0h0.1l0,0l0,0l0,0l0,0l0,0
	l0,0l0,0l0,0l0,0h0.1l0,0l0,0l0,0l0,0l0,0l0,0l0,0l0,0l0,0H75l0,0l0,0l0,0l0,0l0,0l0,0l0,0l0,0l0,0c0,0,0,0,0.1,0l0,0l0,0l0,0l0,0
	l0,0l0,0l0,0l0,0l0,0l0,0l0,0l0,0l0,0l0,0l0,0l0,0l0,0l0,0l0,0l0,0l0,0l0,0l0,0l0,0l0,0l0,0l0,0l0,0l0,0l0,0l0,0l0,0l0,0l0,0l0,0
	l0,0l0,0l0,0l0,0l0,0l0,0l0,0l0,0l0,0l0,0l0,0l0,0l0,0l0,0l0,0l0,0l0,0l0,0l0,0l0,0l0,0l0,0l0,0l0,0l0,0l0,0l0,0l0,0l0,0l0,0l0,0
	l0,0l0,0l0,0l0,0l0,0l0,0l0,0l0,0l0,0l0,0l0,0l0,0l0,0l0,0l0,0l0,0l0,0l0,0l0,0l0,0l0,0l0,0l0,0l0,0L75.5,25.7L75.5,25.7z
	 M79.5,23.8c-0.9,0.5-1.7,1-2.5,1.3l1.1,2.3c0.1,0,0.2-0.1,0.2-0.1l0,0l0,0l0,0l0,0l0,0l0,0l0,0l0,0l0,0l0,0l0,0l0,0l0,0l0,0l0,0
	l0,0l0,0l0,0l0,0l0,0l0,0l0,0l0,0l0,0l0,0l0,0l0,0l0,0l0,0l0,0l0,0l0,0l0,0l0,0l0,0l0,0l0,0l0,0l0,0l0,0l0,0l0,0l0,0l0,0l0,0l0,0
	l0,0l0,0l0,0l0,0l0,0l0,0l0,0l0,0l0,0l0,0l0,0l0,0l0,0l0,0l0,0l0,0l0,0l0,0l0,0l0,0l0,0l0,0l0,0l0,0l0,0l0,0l0,0l0,0l0,0l0,0l0,0
	l0,0c0.5-0.3,1-0.5,1.6-0.9l0,0l0,0l0,0l0,0l0,0l0,0l0,0l0,0l0,0l0,0l0,0l0,0l0,0l0,0l0,0l0,0l0,0l0,0l0,0l0,0l0,0l0,0l0,0l0,0l0,0
	l0,0c0.1-0.1,0.2-0.1,0.4-0.2L79.5,23.8L79.5,23.8z M83.4,20.9c-0.7,0.6-1.5,1.2-2.3,1.8l1.4,2c0.2-0.2,0.5-0.3,0.7-0.5l0,0l0,0l0,0
	l0,0l0,0l0,0l0,0l0,0l0,0l0,0l0,0l0,0l0,0l0,0l0,0l0,0l0,0l0,0l0,0l0,0l0,0l0,0l0,0l0,0l0,0l0,0l0,0l0,0c0.5-0.4,1-0.8,1.5-1.2
	L83.4,20.9L83.4,20.9z M86.7,17.7c-0.5,0.6-1.1,1.3-1.9,2l1.7,1.8l0,0l0,0l0,0l0,0l0,0l0,0l0,0l0,0l0,0l0,0l0,0l0,0l0,0l0,0l0,0l0,0
	l0,0l0,0l0,0l0,0l0,0l0,0l0,0l0,0l0,0l0,0c0.6-0.6,1.2-1.2,1.7-1.8l0,0l0,0l0,0l0,0l0,0l0,0l0,0l0,0l0,0l0,0l0,0l0,0l0,0l0,0l0,0
	l0,0l0,0l0,0l0,0l0,0l0,0l0,0l0,0l0,0l0,0l0,0l0,0l0,0l0,0l0,0l0,0l0,0l0,0l0,0l0,0l0,0l0,0l0,0l0,0l0,0l0,0l0,0l0,0l0,0l0,0l0,0
	l0,0l0,0l0,0l0,0l0,0l0,0l0,0l0,0l0,0l0,0c0,0,0,0,0-0.1l0,0L86.7,17.7L86.7,17.7z M90.5,14.6H88v0.9c0,0,0,0.3-0.3,0.9l2.2,1.2
	c0.2-0.3,0.3-0.6,0.4-0.9l0,0l0,0l0,0l0,0l0,0l0,0l0,0l0,0l0,0l0,0l0,0l0,0l0,0l0,0l0,0l0,0l0,0l0,0l0,0l0,0l0,0l0,0l0,0l0,0l0,0
	l0,0l0,0l0,0l0,0l0,0l0,0l0,0l0,0l0,0l0,0l0,0l0,0l0,0l0,0l0,0l0,0l0,0l0,0l0,0l0,0l0,0l0,0l0,0l0,0l0,0l0,0l0,0l0,0l0,0l0,0l0,0
	l0,0l0,0l0,0l0,0l0,0l0,0l0,0l0,0l0,0l0,0l0,0l0,0l0,0l0,0l0,0l0,0l0,0l0,0l0,0l0,0l0,0l0,0l0,0l0,0l0,0l0,0l0,0l0,0l0,0l0,0l0,0
	l0,0l0,0l0,0l0,0l0,0l0,0l0,0l0,0l0,0l0,0l0,0l0,0l0,0l0,0l0,0l0,0l0,0l0,0l0,0l0,0l0,0l0,0l0,0l0,0l0,0l0,0l0,0l0,0l0,0l0,0l0,0
	l0,0l0,0l0,0l0,0l0,0l0,0l0,0l0,0l0,0l0,0l0,0l0,0l0,0l0,0l0,0l0,0l0,0l0,0l0,0l0,0l0,0l0,0l0,0l0,0l0,0l0,0l0,0l0,0l0,0l0,0l0,0
	l0,0l0,0l0,0l0,0l0,0l0,0l0,0l0,0l0,0l0,0l0,0l0,0l0,0l0,0l0,0l0,0l0,0l0,0l0,0l0,0l0,0l0,0l0,0l0,0l0,0l0,0l0,0l0,0l0,0l0,0l0,0
	l0,0l0,0l0,0l0,0l0,0l0,0l0,0l0,0l0,0l0,0l0,0l0,0l0,0l0,0l0,0l0,0l0,0l0,0l0,0l0,0l0,0l0,0l0,0l0,0l0,0l0,0l0,0l0,0l0,0l0,0l0,0
	l0,0l0,0l0,0l0,0l0,0l0,0l0,0l0,0l0,0l0,0l0,0l0,0l0,0l0,0l0,0l0,0l0,0l0,0l0,0l0,0l0,0l0,0l0,0l0,0l0,0l0,0l0,0l0,0l0,0l0,0l0,0
	l0,0l0,0l0,0l0,0l0,0l0,0l0,0l0,0l0,0l0,0l0,0l0,0l0,0l0,0l0,0l0,0l0,0l0,0l0,0l0,0l0,0l0,0l0,0l0,0l0,0l0,0l0,0l0,0l0,0l0,0l0,0
	l0,0l0,0l0,0l0,0l0,0l0,0l0,0l0,0l0,0l0,0l0,0l0,0l0,0l0,0l0,0l0,0l0,0l0,0l0,0l0,0l0,0l0,0l0,0l0,0l0,0l0,0l0,0l0,0l0,0l0,0l0,0
	l0,0l0,0l0,0l0,0l0,0l0,0l0,0l0,0l0,0l0,0l0,0l0,0l0,0l0,0l0,0l0,0l0,0l0,0l0,0l0,0l0,0l0,0l0,0l0,0l0,0l0,0l0,0l0,0l0,0l0,0l0,0
	l0,0l0,0l0,0l0,0v-2.1H90.5z M88.1,10.1l-1.9,1.6c0.6,0.7,1.1,1.4,1.4,2l2.2-1.1C89.5,11.8,88.9,11,88.1,10.1L88.1,10.1z M84.4,6.6
	l-1.6,2c0.8,0.6,1.5,1.2,2.1,1.9l1.7-1.8c-0.4-0.4-0.8-0.7-1.2-1.1l0,0l0,0l0,0l0,0l0,0l0,0l0,0l0,0l0,0l0,0l0,0l0,0l0,0l0,0l0,0
	l0,0l0,0l0,0l0,0l0,0l0,0l0,0l0,0l0,0l0,0l0,0l0,0l0,0l0,0l0,0l0,0l0,0l0,0l0,0l0,0l0,0l0,0l0,0l0,0l0,0C85,7.1,84.8,7,84.6,6.8l0,0
	l0,0l0,0l0,0l0,0l0,0l0,0l0,0l0,0l0,0l0,0l0,0l0,0l0,0l0,0l0,0l0,0l0,0l0,0l0,0C84.5,6.7,84.4,6.6,84.4,6.6L84.4,6.6z M80.1,3.7
	l-1.3,2.2c0.8,0.5,1.6,1,2.4,1.6l1.4-2c-0.2-0.1-0.3-0.2-0.5-0.3l0,0l0,0l0,0l0,0l0,0l0,0l0,0l0,0l0,0l0,0l0,0l0,0l0,0l0,0l0,0l0,0
	l0,0l0,0l0,0l0,0l0,0l0,0l0,0l0,0l0,0l0,0L82,5.1l0,0C81.3,4.4,80.7,4,80.1,3.7L80.1,3.7z M75.4,1.7l-0.5,2.4
	c0.4,0.1,1.2,0.3,2.3,0.9l1.1-2.3C77.2,2.2,76.3,1.8,75.4,1.7L75.4,1.7z"/>
<path fill="#8A1654" d="M74.4,1.5h-3.1V3h3.1V1.5L74.4,1.5L74.4,1.5z M69.3,1.5h-3.1V3h3.1V1.5L69.3,1.5z M64.2,1.5h-3.1V3h3.1V1.5
	L64.2,1.5z M59,1.5h-3.1V3H59V1.5L59,1.5z M53.9,1.5h-3.1V3h3.1V1.5L53.9,1.5z M48.7,1.5h-3.1V3h3.1V1.5L48.7,1.5z M43.6,1.5h-3.1V3
	h3.1V1.5L43.6,1.5z M38.4,1.5h-3.1V3h3.1V1.5L38.4,1.5z M33.3,1.5h-3.1V3h3.1V1.5L33.3,1.5z M28.2,1.5h-3.1V3h3.1V1.5L28.2,1.5z
	 M23,1.5h-3.1V3H23V1.5L23,1.5z M17.9,1.5h-3.1V3h3.1V1.5L17.9,1.5z M12.7,1.5H9.6V3h3.1V1.5L12.7,1.5z M7.6,1.8
	C7,1.9,6.5,2.1,6,2.4l0,0l0,0l0,0l0,0l0,0l0,0l0,0l0,0l0,0l0,0l0,0l0,0l0,0l0,0l0,0l0,0l0,0l0,0l0,0l0,0l0,0l0,0l0,0l0,0l0,0l0,0
	l0,0l0,0l0,0l0,0l0,0l0,0l0,0l0,0l0,0l0,0l0,0l0,0l0,0l0,0l0,0l0,0l0,0l0,0l0,0l0,0l0,0l0,0l0,0l0,0l0,0l0,0l0,0l0,0l0,0l0,0l0,0
	l0,0l0,0l0,0l0,0l0,0l0,0l0,0l0,0l0,0l0,0l0,0l0,0l0,0l0,0l0,0l0,0l0,0l0,0l0,0l0,0l0,0l0,0l0,0l0,0l0,0l0,0l0,0l0,0l0,0l0,0l0,0
	l0,0l0,0l0,0l0,0l0,0l0,0l0,0l0,0l0,0l0,0C5.4,2.7,5.1,2.9,4.8,3.1l0.9,1.2C6.4,3.8,7.1,3.4,8,3.2L7.6,1.8L7.6,1.8z M3.3,4.5
	c-0.5,0.6-0.9,1.3-1.2,2l0,0l0,0l0,0l0,0l0,0l0,0l0,0l0,0l0,0l0,0l0,0l0,0l0,0l0,0l0,0l0,0l0,0l0,0l0,0l0,0l0,0l0,0l0,0l0,0l0,0l0,0
	l0,0l0,0l0,0l0,0l0,0l0,0l0,0l0,0l0,0l0,0l0,0l0,0l0,0l0,0l0,0l0,0l0,0l0,0l0,0l0,0l0,0l0,0l0,0l0,0l0,0l0,0l0,0l0,0l0,0l0,0l0,0
	l0,0l0,0l0,0l0,0l0,0l0,0l0,0l0,0l0,0l0,0l0,0l0,0l0,0l0,0l0,0C2,6.9,1.9,7,1.9,7.2l1.4,0.4C3.6,6.9,4,6.1,4.5,5.5L3.3,4.5L3.3,4.5z
	 M1.6,9.2L1.6,9.2L1.6,9.2L1.6,9.2L1.6,9.2L1.6,9.2L1.6,9.2L1.6,9.2L1.6,9.2L1.6,9.2L1.6,9.2L1.6,9.2L1.6,9.2L1.6,9.2L1.6,9.2
	L1.6,9.2L1.6,9.2L1.6,9.2L1.6,9.2L1.6,9.2L1.6,9.2L1.6,9.2L1.6,9.2L1.6,9.2L1.6,9.2L1.6,9.2L1.6,9.2L1.6,9.2L1.6,9.2L1.6,9.2
	L1.6,9.2L1.6,9.2L1.6,9.2L1.6,9.2L1.6,9.2L1.6,9.2L1.6,9.2L1.6,9.2L1.6,9.2L1.6,9.2L1.6,9.2L1.6,9.2v2.9H3V9.5c0-0.1,0-0.2,0-0.3
	H1.6L1.6,9.2z M3,14.4H1.5v3.1H3V14.4L3,14.4z M3,19.5H1.5v0.9l0,0l0,0l0,0l0,0l0,0l0,0l0,0l0,0l0,0l0,0l0,0l0,0l0,0l0,0l0,0l0,0
	l0,0l0,0l0,0l0,0l0,0l0,0l0,0l0,0l0,0l0,0l0,0l0,0l0,0l0,0l0,0l0,0l0,0l0,0l0,0l0,0l0,0l0,0l0,0l0,0l0,0l0,0l0,0l0,0l0,0l0,0l0,0
	l0,0l0,0l0,0l0,0l0,0l0,0l0,0l0,0l0,0l0,0l0,0l0,0l0,0l0,0l0,0l0,0l0,0l0,0l0,0l0,0l0,0l0,0l0,0l0,0l0,0l0,0l0,0l0,0l0,0l0,0l0,0
	l0,0l0,0l0,0l0,0l0,0l0,0l0,0l0,0l0,0l0,0l0,0l0,0l0,0l0,0l0,0l0,0l0,0l0,0l0,0l0,0l0,0l0,0l0,0l0,0l0,0l0,0l0,0l0,0l0,0l0,0l0,0
	l0,0l0,0l0,0l0,0l0,0l0,0l0,0l0,0l0,0l0,0l0,0l0,0l0,0l0,0l0,0l0,0l0,0l0,0l0,0l0,0l0,0l0,0l0,0l0,0l0,0l0,0l0,0l0,0l0,0
	c0,0,0,0,0,0.1l0,0c0,0.5,0.1,0.9,0.3,1.4l1.4-0.4C3.1,21.6,3,21,3,20.5V19.5L3,19.5z M3.9,23.7l-1.3,0.8l0,0l0,0l0,0l0,0l0,0l0,0
	l0,0l0,0l0,0l0,0l0,0l0,0l0,0l0,0l0,0l0,0l0,0l0,0l0,0l0,0l0,0l0,0l0,0l0,0l0,0l0,0l0,0l0,0l0,0l0,0l0,0l0,0l0,0l0,0l0,0l0,0l0,0
	l0,0l0,0l0,0l0,0l0,0l0,0l0,0l0,0l0,0l0,0l0,0l0,0l0,0l0,0l0,0l0,0l0,0l0,0l0,0l0,0l0,0l0,0l0,0l0,0l0,0l0,0l0,0l0,0l0,0l0,0l0,0
	l0,0c0.2,0.3,0.4,0.6,0.6,0.8l0,0l0,0l0,0l0,0l0,0l0,0l0,0l0,0l0,0l0,0l0,0l0,0l0,0l0,0l0,0l0,0l0,0l0,0l0,0l0,0l0,0l0,0l0,0l0,0
	l0,0l0,0l0,0l0,0l0,0l0,0l0,0l0,0l0,0l0,0l0,0l0,0l0,0l0,0l0,0l0,0l0,0l0,0l0,0l0,0l0,0l0,0l0,0l0,0l0,0l0,0l0,0l0,0l0,0l0,0l0,0
	l0,0l0,0l0,0l0,0l0,0l0,0l0,0l0,0l0,0l0,0l0,0l0,0l0,0l0,0l0,0l0,0l0,0l0,0l0,0l0,0l0,0l0,0l0,0l0,0l0,0l0,0l0,0l0,0l0,0l0,0l0,0
	l0,0l0,0l0,0l0,0l0,0l0,0l0,0l0,0l0,0l0,0l0,0l0,0l0,0l0,0l0,0l0,0l0,0l0,0l0,0l0,0l0,0l0,0l0,0l0,0l0,0l0,0l0,0l0,0l0,0l0,0l0,0
	l0,0l0,0l0,0l0,0l0,0l0,0l0,0l0,0l0,0l0,0l0,0l0,0l0,0l0,0l0,0l0,0l0,0l0,0l0,0l0,0l0,0l0,0l0,0l0,0l0,0l0,0l0,0l0,0l0,0l0,0l0,0
	l0,0l0,0l0,0l0,0l0,0l0,0l0,0l0,0l0,0l0,0l0,0l0,0l0,0l0,0l0,0l0,0l0,0l0,0l0,0l0,0l0,0l0,0l0,0l0,0l0,0l0,0l0,0l0,0l0,0l0,0l0,0
	l0,0l0,0l0,0l0,0l0,0l0,0l0,0l0,0l0,0l0,0l0,0l0,0l0,0l0,0l0,0l0,0l0,0l0,0l0,0l0,0l0,0l0,0l0,0l0,0l0,0l0,0l0,0l0,0l0,0l0,0l0,0
	l0,0l0,0l0,0l0,0l0,0l0,0l0,0l0,0l0,0l0,0l0,0l0,0l0,0l0,0l0,0l0,0l0,0l0,0l0,0l0,0l0,0l0,0l0,0l0,0l0,0l0,0l0,0l0,0l0,0l0,0l0,0
	l0,0l0,0l0,0l0,0l0,0l0,0l0,0l0,0l0,0l0,0l0,0l0,0l0,0l0,0l0,0l0,0l0,0l0,0l0,0l0,0c0,0,0,0,0.1,0.1l0.9-1.2
	C4.9,25.1,4.4,24.4,3.9,23.7L3.9,23.7z M7,26.4l-0.6,1.4h0.1l0,0l0,0l0,0l0,0l0,0l0,0l0,0l0,0l0,0l0,0l0,0l0,0l0,0l0,0l0,0l0,0l0,0
	l0,0l0,0l0,0l0,0l0,0l0,0l0,0l0,0l0,0l0,0l0,0l0,0l0,0l0,0l0,0l0,0l0,0l0,0l0,0l0,0l0,0l0,0l0,0c0.9,0.3,1.8,0.5,2.8,0.6v-1.5
	C8.6,26.9,7.8,26.8,7,26.4L7,26.4z M14.6,27h-3.1v1.5h3.1V27L14.6,27z M19.7,27h-3.1v1.5h3.1V27L19.7,27z M24.9,27h-3.1v1.5h3.1V27
	L24.9,27z M30,27h-3.1v1.5H30V27L30,27z M35.1,27H32v1.5h3.1V27L35.1,27z M40.3,27h-3.1v1.5h3.1V27L40.3,27z M45.4,27h-3.1v1.5h3.1
	V27L45.4,27z M50.6,27h-3.1v1.5h3.1V27L50.6,27z M55.7,27h-3.1v1.5h3.1V27L55.7,27z M60.9,27h-3.1v1.5h3.1V27L60.9,27z M66,27h-3.1
	v1.5H66V27L66,27z M71.1,27H68v1.5h3.1V27L71.1,27z M75.8,26.7c-0.7,0.2-1.1,0.3-1.4,0.3h-1.2v1.5h1.2l0,0l0,0l0,0l0,0l0,0l0,0l0,0
	l0,0l0,0l0,0l0,0l0,0l0,0l0,0l0,0l0,0l0,0l0,0l0,0l0,0l0,0l0,0l0,0l0,0l0,0l0,0l0,0l0,0l0,0l0,0l0,0l0,0l0,0l0,0l0,0l0,0l0,0l0,0
	l0,0l0,0l0,0l0,0l0,0l0,0l0,0l0,0l0,0l0,0l0,0l0,0l0,0l0,0l0,0l0,0l0,0l0,0l0,0l0,0l0,0l0,0l0,0l0,0l0,0l0,0l0,0l0,0l0,0l0,0l0,0
	l0,0l0,0l0,0l0,0l0,0l0,0l0,0l0,0l0,0c0.3,0,0.6-0.1,1-0.2l0,0l0,0l0,0l0,0l0,0l0,0l0,0l0,0l0,0l0,0l0,0l0,0l0,0l0,0l0,0l0,0l0,0
	l0,0l0,0l0,0l0,0l0,0l0,0l0,0l0,0l0,0l0,0l0,0l0,0l0,0l0,0l0,0l0,0l0,0l0,0l0,0l0,0l0,0l0,0l0,0l0,0l0,0l0,0l0,0l0,0l0,0l0,0l0,0
	l0,0l0,0l0,0l0,0l0,0l0,0l0,0l0,0l0,0l0,0c0.1,0,0.2-0.1,0.3-0.1L75.8,26.7L75.8,26.7z M80.1,24.6c-0.9,0.6-1.8,1-2.6,1.4l0.6,1.4
	c0.9-0.4,1.8-0.9,2.7-1.5L80.1,24.6L80.1,24.6z M84.1,21.7c-0.7,0.6-1.5,1.2-2.3,1.8l0.9,1.2c0.1-0.1,0.2-0.1,0.3-0.2l0,0l0,0l0,0
	l0,0l0,0l0,0l0,0l0,0l0,0l0,0l0,0l0,0l0,0l0,0l0,0l0,0c0.4-0.3,0.8-0.6,1.2-0.9l0,0l0,0l0,0l0,0l0,0l0,0l0,0l0,0l0,0l0,0l0,0l0,0
	l0,0l0,0l0,0l0,0l0,0l0,0l0,0l0,0l0,0l0,0l0,0l0,0l0,0l0,0l0,0l0,0l0,0l0,0l0,0l0,0l0,0l0,0l0,0l0,0l0,0l0,0l0,0l0,0l0,0l0,0l0,0
	l0,0l0,0l0,0l0,0l0,0l0,0l0,0l0,0l0,0c0.2-0.2,0.4-0.3,0.6-0.5L84.1,21.7L84.1,21.7z M87.5,18.3c-0.5,0.7-1.2,1.4-2,2.1l1,1.1
	c0.3-0.3,0.6-0.6,0.9-0.9l0,0l0,0l0,0l0,0l0,0l0,0l0,0l0,0l0,0l0,0l0,0l0,0l0,0l0,0l0,0l0,0l0,0l0,0l0,0l0,0l0,0l0,0l0,0l0,0
	c0.4-0.4,0.8-0.8,1.1-1.3L87.5,18.3L87.5,18.3z M90.5,14.6H89v0.9c0,0.2-0.1,0.6-0.5,1.4l1.3,0.7c0-0.1,0.1-0.2,0.1-0.2l0,0l0,0l0,0
	l0,0l0,0l0,0l0,0l0,0l0,0l0,0l0,0l0,0l0,0l0,0l0,0l0,0l0,0l0,0l0,0l0,0l0,0l0,0l0,0l0,0l0,0l0,0l0,0l0,0l0,0l0,0l0,0l0,0l0,0l0,0
	l0,0l0,0l0,0l0,0l0,0l0,0l0,0l0,0c0.2-0.4,0.4-0.9,0.4-1.3l0,0l0,0l0,0l0,0l0,0l0,0l0,0l0,0l0,0l0,0l0,0l0,0l0,0l0,0l0,0l0,0l0,0
	l0,0l0,0l0,0l0,0l0,0l0,0l0,0l0,0l0,0l0,0l0,0l0,0l0,0l0,0l0,0l0,0l0,0l0,0l0,0l0,0l0,0l0,0l0,0l0,0l0,0l0,0l0,0l0,0l0,0l0,0l0,0
	l0,0l0,0l0,0l0,0l0,0l0,0l0,0l0,0l0,0l0,0l0,0l0,0l0,0l0,0l0,0l0,0l0,0l0,0l0,0l0,0l0,0l0,0l0,0l0,0l0,0l0,0l0,0l0,0l0,0l0,0l0,0
	l0,0l0,0l0,0l0,0l0,0l0,0l0,0l0,0l0,0l0,0l0,0l0,0l0,0l0,0l0,0l0,0l0,0l0,0l0,0l0,0l0,0l0,0l0,0l0,0l0,0l0,0l0,0l0,0l0,0l0,0l0,0
	l0,0l0,0l0,0l0,0l0,0l0,0l0,0l0,0l0,0l0,0l0,0l0,0l0,0l0,0l0,0l0,0l0,0l0,0l0,0l0,0l0,0l0,0l0,0l0,0l0,0l0,0l0,0l0,0l0,0l0,0l0,0
	l0,0l0,0l0,0l0,0l0,0l0,0l0,0l0,0l0,0l0,0l0,0l0,0l0,0l0,0l0,0l0,0l0,0l0,0l0,0l0,0l0,0l0,0l0,0l0,0l0,0l0,0l0,0l0,0l0,0l0,0l0,0
	l0,0l0,0l0,0l0,0l0,0l0,0l0,0l0,0l0,0l0,0l0,0l0,0l0,0l0,0l0,0l0,0l0,0l0,0l0,0l0,0l0,0l0,0l0,0l0,0v-1.5H90.5z M88.1,10.1l-1.1,1
	c0.7,0.8,1.2,1.5,1.6,2.2l1.3-0.7l0,0l0,0l0,0l0,0l0,0l0,0l0,0l0,0l0,0l0,0l0,0l0,0l0,0l0,0l0,0l0,0l0,0l0,0l0,0l0,0l0,0l0,0l0,0
	l0,0l0,0l0,0l0,0l0,0l0,0l0,0l0,0l0,0l0,0l0,0l0,0l0,0l0,0l0,0l0,0l0,0l0,0l0,0l0,0l0,0l0,0l0,0l0,0l0,0l0,0l0,0l0,0l0,0l0,0l0,0
	l0,0l0,0l0,0l0,0l0,0l0,0l0,0l0,0l0,0l0,0l0,0l0,0l0,0l0,0l0,0l0,0l0,0l0,0l0,0l0,0l0,0l0,0l0,0l0,0l0,0l0,0l0,0l0,0l0,0l0,0l0,0
	l0,0l0,0l0,0l0,0l0,0l0,0l0,0l0,0l0,0l0,0l0,0l0,0l0,0l0,0l0,0l0,0l0,0l0,0l0,0l0,0l0,0l0,0l0,0l0,0l0,0l0,0l0,0l0,0l0,0l0,0l0,0
	l0,0l0,0l0,0l0,0l0,0l0,0l0,0l0,0l0,0l0,0l0,0l0,0l0,0l0,0l0,0l0,0l0,0l0,0l0,0l0,0l0,0l0,0l0,0l0,0l0,0l0,0l0,0l0,0l0,0l0,0l0,0
	l0,0l0,0l0,0l0,0l0,0l0,0l0,0l0,0l0,0l0,0l0,0l0,0l0,0l0,0l0,0l0,0l0,0l0,0l0,0l0,0l0,0l0,0l0,0l0,0l0,0l0,0l0,0l0,0l0,0l0,0l0,0
	l0,0l0,0l0,0l0,0l0,0l0,0l0,0l0,0l0,0l0,0l0,0l0,0l0,0l0,0l0,0l0,0l0,0l0,0l0,0l0,0l0,0C89.1,11.3,88.6,10.7,88.1,10.1L88.1,10.1z
	 M84.4,6.6l-0.9,1.2c0.8,0.6,1.5,1.3,2.2,1.9l1-1.1c-0.3-0.3-0.7-0.6-1.1-1l0,0l0,0l0,0l0,0l0,0l0,0l0,0l0,0l0,0l0,0l0,0l0,0l0,0
	l0,0l0,0l0,0l0,0l0,0l0,0l0,0l0,0l0,0l0,0l0,0l0,0l0,0l0,0l0,0l0,0l0,0l0,0l0,0l0,0l0,0l0,0l0,0l0,0l0,0l0,0l0,0l0,0l0,0l0,0l0,0
	l0,0l0,0c0,0,0,0-0.1-0.1l0,0c-0.3-0.2-0.5-0.4-0.8-0.6l0,0l0,0l0,0l0,0l0,0l0,0l0,0l0,0l0,0l0,0l0,0l0,0l0,0l0,0l0,0l0,0l0,0l0,0
	l0,0l0,0l0,0l0,0l0,0l0,0l0,0l0,0C84.5,6.7,84.5,6.7,84.4,6.6C84.5,6.7,84.5,6.7,84.4,6.6C84.5,6.7,84.4,6.7,84.4,6.6L84.4,6.6
	C84.4,6.7,84.4,6.7,84.4,6.6C84.4,6.7,84.4,6.7,84.4,6.6L84.4,6.6L84.4,6.6z M80.1,3.7L79.4,5c0.8,0.5,1.6,1,2.5,1.6l0.9-1.2
	C81.9,4.7,81,4.2,80.1,3.7L80.1,3.7z M75.4,1.7l-0.3,1.5c0.7,0.1,1.6,0.5,2.5,0.9l0.7-1.4c-0.4-0.2-0.7-0.3-1-0.5l0,0l0,0l0,0l0,0
	l0,0l0,0l0,0l0,0l0,0l0,0l0,0l0,0l0,0l0,0l0,0l0,0l0,0l0,0l0,0l0,0l0,0l0,0l0,0l0,0l0,0l0,0C76.5,1.9,75.9,1.8,75.4,1.7L75.4,1.7z"
	/>
</svg>
