<?xml version="1.0" encoding="utf-8"?>
<!-- Generator: Adobe Illustrator 15.0.0, SVG Export Plug-In  -->
<!DOCTYPE svg PUBLIC "-//W3C//DTD SVG 1.1//EN" "http://www.w3.org/Graphics/SVG/1.1/DTD/svg11.dtd" [
	<!ENTITY ns_flows "http://ns.adobe.com/Flows/1.0/">
]>
<svg version="1.1"
	 xmlns="http://www.w3.org/2000/svg" xmlns:xlink="http://www.w3.org/1999/xlink" xmlns:a="http://ns.adobe.com/AdobeSVGViewerExtensions/3.0/"
	 x="0px" y="0px" width="260px" height="58px" viewBox="0 0 260 58" overflow="visible" enable-background="new 0 0 260 58"
	 xml:space="preserve">
<defs>
</defs>
<path fill="#FFFFFF" d="M10.6,17.5v13h5v1.2H0.1v-1.2h4.9V1.9H0.1V0.7h16c3.6,0,6.4,0.8,8.2,2.4c1.8,1.6,2.8,3.6,2.8,5.9
	c0,2.4-0.9,4.4-2.8,6c-1.9,1.6-4.9,2.4-9.2,2.4H10.6z M10.6,1.9v14.4h3c1.6,0,2.9-0.1,3.9-0.4c1-0.3,1.9-1,2.7-2.1
	c0.8-1.1,1.1-2.9,1.1-5.2c0-2.1-0.3-3.6-1-4.6c-0.7-1-1.4-1.6-2.3-1.8c-0.9-0.2-2-0.3-3.3-0.3H10.6z"/>
<path fill="#FFFFFF" d="M47.5,22.1h-9.9l-3.2,8.5h5.8v1.2H28.9v-1.2h4.3L44.6,0h0.7l10.9,30.5h4.2v1.2H45.5v-1.2h5L47.5,22.1z
	 M38.1,20.9h9L42.7,8.5h-0.1L38.1,20.9z"/>
<path fill="#FFFFFF" d="M95.6,1.9v30.5h-1L74.2,1.8h-0.1v28.8h5.3v1.2H68.3v-1.2h4.6V1.9h-4.9V0.7h11.9l14.5,21.7h0.1V1.9h-5.2V0.7
	h11.1v1.2H95.6z"/>
<path fill="#FFFFFF" d="M113.9,30.5V1.9h-4.9V0.7h14.7c3.3,0,6,0.5,8.4,1.4c2.3,0.9,4.2,2.7,5.8,5.4c1.5,2.7,2.3,5.6,2.3,8.7
	c0,3.3-0.9,6.3-2.6,8.9c-1.7,2.6-3.7,4.4-5.9,5.3c-2.2,0.9-4.9,1.4-8.1,1.4h-14.6v-1.2H113.9z M119.5,1.9v28.6h4
	c2.1,0,3.9-0.2,5.2-0.6c1.3-0.4,2.4-1.2,3.3-2.5c0.9-1.3,1.5-2.9,1.8-4.9c0.3-2,0.5-4.6,0.5-7.8c0-3.9-0.5-6.7-1.5-8.6
	c-1-1.9-2.2-3.1-3.6-3.5c-1.4-0.5-3.3-0.7-5.6-0.7H119.5z"/>
<path fill="#FFFFFF" d="M164.7,32.4c-4,0-7.4-1.7-10.3-5c-2.8-3.4-4.2-6.9-4.2-10.8c0-4.6,1.5-8.5,4.4-11.8c3-3.2,6.4-4.9,10.3-4.9
	c3.7,0,7,1.6,9.9,4.9c2.9,3.3,4.4,7,4.4,11.2c0,4.3-1.5,8.1-4.4,11.4C171.8,30.8,168.5,32.4,164.7,32.4z M164.8,1.2
	c-1.7,0-3.2,0.4-4.6,1.2c-1.4,0.8-2.3,2.1-2.8,4.1c-0.5,1.9-0.7,5.3-0.7,10.1c0,3.3,0.1,6,0.4,7.9c0.3,2,1,3.6,2.1,4.9
	c1.1,1.3,2.9,1.9,5.4,1.9c1.5,0,3-0.4,4.5-1.2c1.5-0.8,2.5-2.3,2.9-4.6c0.5-2.3,0.7-5.8,0.7-10.6c0-4.3-0.3-7.3-0.8-9
	c-0.6-1.6-1.5-2.8-2.7-3.6C167.8,1.5,166.4,1.2,164.8,1.2z"/>
<path fill="#FFFFFF" d="M194.3,30.5V1.9h-4.9V0.7h17.1c2.2,0,4.1,0.2,5.5,0.6c1.4,0.4,2.7,1.2,3.7,2.4s1.6,2.6,1.6,4.2
	c0,2-0.8,3.5-2.3,4.8c-1.5,1.2-4.1,2.1-7.7,2.8v0.1c2.6,0.5,4.7,1.5,6.4,3c1.7,1.5,2.5,3.9,2.5,7.4c0,2,0.2,3.3,0.7,3.8
	c0.5,0.6,1.1,0.8,2,0.8c0.5,0,1.2-0.1,2-0.3v1.1c-1.3,0.5-2.6,0.7-3.9,0.7c-2.6,0-4.4-0.7-5.4-2.1c-1.1-1.4-1.6-2.8-1.5-4.2l0.1-3.9
	c0-1.4-0.4-2.7-1.3-4.1c-0.9-1.3-2.9-2-6-2h-2.9v14.7h4.9v1.2h-15.3v-1.2H194.3z M199.8,1.9v12.8h4.2c1.8,0,3.2-0.1,4.1-0.4
	c0.9-0.2,1.7-0.9,2.3-1.9c0.6-1,0.8-2.6,0.8-4.8c0-1.8-0.3-3.1-0.9-4c-0.6-0.8-1.3-1.3-2.1-1.5c-0.8-0.2-1.9-0.3-3.2-0.3H199.8z"/>
<path fill="#FFFFFF" d="M247.1,22.1h-9.9l-3.2,8.5h5.8v1.2h-11.3v-1.2h4.3L244.1,0h0.7l10.9,30.5h4.2v1.2h-14.8v-1.2h5L247.1,22.1z
	 M237.6,20.9h9l-4.4-12.4h-0.1L237.6,20.9z"/>
<path fill="#929497" d="M1.7,57.3v-9.9H0v-0.4h5.1c1.1,0,2.1,0.2,2.9,0.5c0.8,0.3,1.5,0.9,2,1.9c0.5,0.9,0.8,1.9,0.8,3
	c0,1.1-0.3,2.2-0.9,3.1c-0.6,0.9-1.3,1.5-2,1.8c-0.8,0.3-1.7,0.5-2.8,0.5H0v-0.4H1.7z M3.6,47.5v9.9H5c0.7,0,1.3-0.1,1.8-0.2
	c0.5-0.1,0.8-0.4,1.1-0.9c0.3-0.4,0.5-1,0.6-1.7c0.1-0.7,0.2-1.6,0.2-2.7c0-1.3-0.2-2.3-0.5-3c-0.3-0.7-0.8-1.1-1.2-1.2
	c-0.5-0.2-1.1-0.2-1.9-0.2H3.6z"/>
<path fill="#929497" d="M17,57.3v-9.9h-1.7v-0.4h5.9c0.8,0,1.4,0.1,1.9,0.2c0.5,0.1,0.9,0.4,1.3,0.8c0.4,0.4,0.5,0.9,0.5,1.4
	c0,0.7-0.3,1.2-0.8,1.6c-0.5,0.4-1.4,0.7-2.7,0.9v0c0.9,0.2,1.6,0.5,2.2,1c0.6,0.5,0.9,1.4,0.9,2.6c0,0.7,0.1,1.1,0.2,1.3
	c0.2,0.2,0.4,0.3,0.7,0.3c0.2,0,0.4,0,0.7-0.1v0.4c-0.5,0.2-0.9,0.2-1.3,0.2c-0.9,0-1.5-0.2-1.9-0.7c-0.4-0.5-0.5-1-0.5-1.4l0-1.4
	c0-0.5-0.2-0.9-0.5-1.4c-0.3-0.5-1-0.7-2.1-0.7h-1v5.1h1.7v0.4h-5.3v-0.4H17z M18.9,47.5v4.4h1.4c0.6,0,1.1,0,1.4-0.1
	c0.3-0.1,0.6-0.3,0.8-0.6c0.2-0.3,0.3-0.9,0.3-1.7c0-0.6-0.1-1.1-0.3-1.4c-0.2-0.3-0.4-0.5-0.7-0.5c-0.3-0.1-0.6-0.1-1.1-0.1H18.9z"
	/>
<path fill="#929497" d="M33.6,47.5v4.6h1c0.3,0,0.6,0,0.9-0.1c0.2-0.1,0.5-0.2,0.6-0.5c0.2-0.3,0.3-0.7,0.3-1.4h0.4v4.5h-0.4
	c0-0.9-0.2-1.4-0.5-1.7c-0.3-0.3-0.7-0.4-1.3-0.4h-1v4.9h2.2c1.2,0,2.1-0.3,2.6-0.8c0.5-0.5,0.8-1.3,0.9-2.4h0.4l-0.1,3.6H30v-0.4
	h1.7v-9.9H30v-0.4h9.1l0.2,2.9h-0.4c-0.1-0.9-0.4-1.5-0.9-1.9c-0.4-0.4-1.2-0.6-2.2-0.6H33.6z"/>
<path fill="#929497" d="M50.4,46.9l0,2.8h-0.4c-0.5-1.7-1.5-2.5-2.8-2.5c-0.7,0-1.3,0.2-1.7,0.6c-0.4,0.4-0.6,0.8-0.6,1.3
	c0,0.4,0.2,0.8,0.5,1c0.3,0.3,1,0.5,1.9,0.7c0.9,0.2,1.6,0.3,2.1,0.6c0.5,0.2,0.9,0.6,1.2,1.1c0.3,0.5,0.5,1.1,0.5,1.8
	c0,1-0.3,1.9-1,2.6c-0.7,0.7-1.5,1-2.6,1c-0.8,0-1.7-0.3-2.5-0.9l-0.8,0.7H44v-3h0.3c0.3,0.9,0.8,1.6,1.3,2.1
	c0.6,0.5,1.2,0.7,1.9,0.7c0.7,0,1.3-0.2,1.8-0.7c0.6-0.4,0.8-1,0.8-1.7c0-0.6-0.2-1-0.6-1.4c-0.4-0.4-1-0.7-1.9-0.8
	c-0.9-0.1-1.5-0.3-2-0.5c-0.5-0.2-0.9-0.5-1.2-1c-0.3-0.5-0.5-1-0.5-1.6c0-0.8,0.3-1.5,0.9-2.2c0.6-0.6,1.4-1,2.3-1
	c0.8,0,1.6,0.3,2.3,0.8c0.2-0.2,0.4-0.4,0.5-0.7H50.4z"/>
<path fill="#929497" d="M61.7,46.9l0,2.8h-0.4c-0.5-1.7-1.5-2.5-2.8-2.5c-0.7,0-1.3,0.2-1.7,0.6c-0.4,0.4-0.6,0.8-0.6,1.3
	c0,0.4,0.2,0.8,0.5,1c0.3,0.3,1,0.5,1.9,0.7c0.9,0.2,1.6,0.3,2.1,0.6c0.5,0.2,0.9,0.6,1.2,1.1c0.3,0.5,0.5,1.1,0.5,1.8
	c0,1-0.3,1.9-1,2.6c-0.7,0.7-1.5,1-2.6,1c-0.8,0-1.7-0.3-2.5-0.9l-0.8,0.7h-0.3v-3h0.3c0.3,0.9,0.8,1.6,1.3,2.1
	c0.6,0.5,1.2,0.7,1.9,0.7c0.7,0,1.3-0.2,1.8-0.7c0.6-0.4,0.8-1,0.8-1.7c0-0.6-0.2-1-0.6-1.4s-1-0.7-1.9-0.8c-0.9-0.1-1.5-0.3-2-0.5
	c-0.5-0.2-0.9-0.5-1.2-1c-0.3-0.5-0.5-1-0.5-1.6c0-0.8,0.3-1.5,0.9-2.2c0.6-0.6,1.4-1,2.3-1c0.8,0,1.6,0.3,2.3,0.8
	c0.2-0.2,0.4-0.4,0.5-0.7H61.7z"/>
<path fill="#929497" d="M79.1,54.4h-3.4l-1.1,2.9h2v0.4h-3.9v-0.4h1.5L78,46.8h0.2L82,57.3h1.4v0.4h-5.1v-0.4h1.7L79.1,54.4z
	 M75.8,54h3.1l-1.5-4.3h0L75.8,54z"/>
<path fill="#929497" d="M93.5,54.2h-1.8v-0.4h5.6v0.4h-1.6c0,1.4-0.4,2.3-1.3,2.9c-0.9,0.6-1.8,0.9-2.8,0.9c-1.4,0-2.6-0.6-3.5-1.7
	c-0.9-1.1-1.4-2.4-1.4-3.9c0-1.5,0.5-2.8,1.4-3.9c1-1.1,2.1-1.7,3.6-1.7c0.7,0,1.4,0.2,2.1,0.6c0.2,0.1,0.3,0.2,0.4,0.2
	c0.2,0,0.3-0.1,0.5-0.5h0.4l0.1,2.9h-0.4c-0.4-1.9-1.5-2.9-3.1-2.9c-0.9,0-1.5,0.2-1.9,0.6c-0.4,0.4-0.6,0.9-0.7,1.5
	C89,49.8,89,50.7,89,51.8c0,2,0.1,3.3,0.2,3.9c0.1,0.6,0.4,1.1,0.8,1.4c0.4,0.3,0.9,0.5,1.5,0.5c0.5,0,0.9-0.1,1.3-0.3
	c0.4-0.2,0.6-0.5,0.7-0.9c0.1-0.4,0.1-0.9,0.1-1.7V54.2z"/>
<path fill="#929497" d="M104.5,47.5v4.6h1c0.3,0,0.6,0,0.9-0.1c0.2-0.1,0.5-0.2,0.6-0.5c0.2-0.3,0.3-0.7,0.3-1.4h0.4v4.5h-0.4
	c0-0.9-0.2-1.4-0.5-1.7c-0.3-0.3-0.7-0.4-1.3-0.4h-1v4.9h2.2c1.2,0,2.1-0.3,2.6-0.8c0.5-0.5,0.8-1.3,0.9-2.4h0.4l-0.1,3.6h-9.5v-0.4
	h1.7v-9.9h-1.7v-0.4h9.1l0.2,2.9h-0.4c-0.1-0.9-0.4-1.5-0.9-1.9c-0.4-0.4-1.2-0.6-2.2-0.6H104.5z"/>
<path fill="#929497" d="M124.1,47.5V58h-0.3l-7.1-10.6h0v9.9h1.8v0.4h-3.8v-0.4h1.6v-9.9h-1.7v-0.4h4.1l5,7.5h0v-7.1h-1.8v-0.4h3.8
	v0.4H124.1z"/>
<path fill="#929497" d="M137.5,46.9v3.2h-0.3c-0.4-1.9-1.3-2.9-2.9-2.9c-0.8,0-1.4,0.3-1.8,1c-0.4,0.7-0.6,2-0.6,4.1
	c0,1.7,0.1,2.9,0.2,3.5c0.2,0.6,0.5,1.1,0.9,1.3c0.4,0.3,0.9,0.4,1.3,0.4c0.6,0,1.2-0.2,1.8-0.7c0.6-0.5,1-1.3,1.3-2.3h0.4l-0.1,3.3
	h-0.3c-0.1-0.3-0.3-0.6-0.6-0.9c-0.8,0.7-1.7,1-2.6,1c-1.1,0-2.2-0.5-3.1-1.6c-0.9-1.1-1.4-2.4-1.4-3.9c0-1.6,0.5-2.9,1.4-4
	c0.9-1.1,2-1.6,3.2-1.6c0.9,0,1.7,0.3,2.5,1c0.2-0.3,0.4-0.6,0.5-0.9H137.5z"/>
<path fill="#929497" d="M141.5,47.1h5.4v0.4h-1.8l3.1,4.7l3.1-4.7h-1.9v-0.4h3.8v0.4h-1.4l-3.4,5.1v4.8h1.8v0.4h-5.5v-0.4h1.8v-4.5
	l-3.6-5.4h-1.4V47.1z"/>
<path fill="#FF0099" d="M163.3,52.3c0-0.5,0.2-1,0.6-1.4c0.4-0.4,0.9-0.6,1.4-0.6s1,0.2,1.4,0.6c0.4,0.4,0.6,0.9,0.6,1.4
	c0,0.6-0.2,1-0.6,1.4c-0.4,0.4-0.9,0.6-1.4,0.6c-0.5,0-1-0.2-1.4-0.6C163.5,53.4,163.3,52.9,163.3,52.3z"/>
<path fill="#929497" d="M181.5,47.5v9.9h2.4c0.5,0,0.8,0,1.1-0.1c0.3-0.1,0.5-0.2,0.8-0.5c0.3-0.3,0.5-0.6,0.6-0.9
	c0.1-0.4,0.3-0.9,0.5-1.5h0.4l-0.3,3.5h-9v-0.4h1.7v-9.9h-1.7v-0.4h5.4v0.4H181.5z"/>
<path fill="#929497" d="M196,58c-1.4,0-2.6-0.6-3.5-1.7s-1.5-2.4-1.5-3.7c0-1.6,0.5-2.9,1.5-4.1c1-1.1,2.2-1.7,3.5-1.7
	c1.3,0,2.4,0.6,3.4,1.7s1.5,2.4,1.5,3.9c0,1.5-0.5,2.8-1.5,3.9C198.5,57.4,197.3,58,196,58z M196,47.2c-0.6,0-1.1,0.1-1.6,0.4
	c-0.5,0.3-0.8,0.7-1,1.4c-0.2,0.7-0.3,1.8-0.3,3.5c0,1.1,0,2.1,0.1,2.7c0.1,0.7,0.3,1.2,0.7,1.7c0.4,0.4,1,0.7,1.8,0.7
	c0.5,0,1-0.1,1.5-0.4c0.5-0.3,0.9-0.8,1-1.6c0.2-0.8,0.2-2,0.2-3.7c0-1.5-0.1-2.5-0.3-3.1c-0.2-0.6-0.5-1-0.9-1.2
	C197.1,47.4,196.6,47.2,196,47.2z"/>
<path fill="#929497" d="M214.5,47.5V58h-0.3l-7.1-10.6h0v9.9h1.8v0.4H205v-0.4h1.6v-9.9h-1.7v-0.4h4.1l5,7.5h0v-7.1h-1.8v-0.4h3.8
	v0.4H214.5z"/>
<path fill="#929497" d="M221.6,57.3v-9.9h-1.7v-0.4h5.1c1.1,0,2.1,0.2,2.9,0.5c0.8,0.3,1.5,0.9,2,1.9c0.5,0.9,0.8,1.9,0.8,3
	c0,1.1-0.3,2.2-0.9,3.1c-0.6,0.9-1.3,1.5-2,1.8c-0.8,0.3-1.7,0.5-2.8,0.5h-5v-0.4H221.6z M223.5,47.5v9.9h1.4c0.7,0,1.3-0.1,1.8-0.2
	c0.5-0.1,0.8-0.4,1.1-0.9c0.3-0.4,0.5-1,0.6-1.7c0.1-0.7,0.2-1.6,0.2-2.7c0-1.3-0.2-2.3-0.5-3c-0.3-0.7-0.8-1.1-1.2-1.2
	c-0.5-0.2-1.1-0.2-1.9-0.2H223.5z"/>
<path fill="#929497" d="M239.9,58c-1.4,0-2.6-0.6-3.5-1.7c-1-1.2-1.5-2.4-1.5-3.7c0-1.6,0.5-2.9,1.5-4.1c1-1.1,2.2-1.7,3.5-1.7
	c1.3,0,2.4,0.6,3.4,1.7c1,1.1,1.5,2.4,1.5,3.9c0,1.5-0.5,2.8-1.5,3.9C242.4,57.4,241.2,58,239.9,58z M239.9,47.2
	c-0.6,0-1.1,0.1-1.6,0.4c-0.5,0.3-0.8,0.7-1,1.4c-0.2,0.7-0.3,1.8-0.3,3.5c0,1.1,0,2.1,0.1,2.7c0.1,0.7,0.3,1.2,0.7,1.7
	c0.4,0.4,1,0.7,1.8,0.7c0.5,0,1-0.1,1.5-0.4c0.5-0.3,0.9-0.8,1-1.6c0.2-0.8,0.2-2,0.2-3.7c0-1.5-0.1-2.5-0.3-3.1
	c-0.2-0.6-0.5-1-0.9-1.2C241,47.4,240.5,47.2,239.9,47.2z"/>
<path fill="#929497" d="M258.4,47.5V58H258L251,47.4h0v9.9h1.8v0.4h-3.8v-0.4h1.6v-9.9h-1.7v-0.4h4.1l5,7.5h0v-7.1h-1.8v-0.4h3.8
	v0.4H258.4z"/>
</svg>
